<?xml version="1.0" encoding="UTF-8"?>
<!-- Generator: visioncortex VTracer 0.6.12 -->
<svg version="1.1" xmlns="http://www.w3.org/2000/svg" width="1000" height="1000">
<path d="M0 0 C3.593 0.017 7.184 0.007 10.777 -0.01 C36.55 -0.115 62.014 1.69 87.437 6.141 C88.174 6.267 88.911 6.393 89.67 6.523 C132.788 13.916 174.588 27.132 214.312 45.391 C215.969 46.138 217.626 46.884 219.284 47.629 C232.057 53.45 244.196 60.319 256.312 67.391 C257.206 67.911 258.101 68.432 259.022 68.968 C280.468 81.484 301.408 95.513 320.183 111.817 C322.312 113.391 322.312 113.391 324.472 113.872 C324.775 113.957 324.775 113.957 326.312 114.391 C327.319 116.223 327.319 116.223 328.312 118.391 C330.116 120.278 330.116 120.278 332.187 122.079 C332.865 122.681 333.543 123.283 334.241 123.903 C336.312 125.391 336.312 125.391 338.382 125.786 C340.312 126.391 340.312 126.391 341.499 128.479 C343.928 132.382 346.996 135.361 350.245 138.59 C350.582 138.928 350.582 138.928 352.289 140.64 C353.711 142.063 355.136 143.484 356.563 144.903 C358.745 147.075 360.916 149.257 363.087 151.44 C364.472 152.824 365.858 154.208 367.245 155.59 C367.893 156.242 368.541 156.894 369.209 157.566 C369.82 158.171 370.43 158.775 371.059 159.398 C371.592 159.929 372.125 160.46 372.674 161.007 C374.312 162.391 374.312 162.391 376.46 163.43 C378.312 164.391 378.312 164.391 379.187 166.766 C380.712 170.325 383.134 171.295 386.312 173.391 C386.937 175.516 386.937 175.516 387.312 177.391 C387.972 177.721 388.632 178.051 389.312 178.391 C389.972 178.721 390.632 179.051 391.312 179.391 C391.645 180.724 391.978 182.058 392.312 183.391 C393.628 184.09 394.962 184.758 396.312 185.391 C396.642 186.381 396.972 187.371 397.312 188.391 C398.302 189.051 399.292 189.711 400.312 190.391 C400.642 191.381 400.972 192.371 401.312 193.391 C401.972 193.721 402.632 194.051 403.312 194.391 C403.642 195.381 403.972 196.371 404.312 197.391 C404.972 197.721 405.632 198.051 406.312 198.391 C406.642 199.381 406.972 200.371 407.312 201.391 C407.972 201.721 408.632 202.051 409.312 202.391 C409.642 203.381 409.972 204.371 410.312 205.391 C411.97 207.066 413.637 208.732 415.312 210.391 C416.601 212.132 417.839 213.912 419.026 215.723 C419.706 216.758 420.386 217.793 421.087 218.859 C421.444 219.411 421.444 219.411 423.249 222.204 C423.617 222.77 423.985 223.336 424.364 223.92 C429.856 232.388 435.175 240.952 440.312 249.641 C440.904 250.633 441.497 251.626 442.108 252.648 C442.65 253.579 443.191 254.51 443.749 255.469 C444.222 256.278 444.695 257.086 445.183 257.919 C446.469 260.737 446.925 263.329 447.312 266.391 C447.972 266.391 448.632 266.391 449.312 266.391 C463.296 292.053 463.296 292.053 464.312 301.391 C464.972 301.391 465.632 301.391 466.312 301.391 C466.642 303.701 466.972 306.011 467.312 308.391 C467.972 308.391 468.632 308.391 469.312 308.391 C469.989 309.949 470.653 311.513 471.312 313.079 C471.683 313.949 472.054 314.819 472.437 315.715 C473.33 318.448 473.476 320.538 473.312 323.391 C473.972 323.391 474.632 323.391 475.312 323.391 C476.474 326.531 477.613 329.679 478.749 332.829 C479.075 333.707 479.4 334.586 479.735 335.491 C481.53 340.505 482.735 345.073 483.023 350.403 C483.537 353.942 485.348 356.446 487.312 359.391 C487.713 361.714 488.038 364.05 488.312 366.391 C488.966 371.533 489.995 376.387 491.312 381.391 C491.972 381.391 492.632 381.391 493.312 381.391 C493.312 384.361 493.312 387.331 493.312 390.391 C493.972 390.391 494.632 390.391 495.312 390.391 C495.283 390.962 495.283 390.962 495.136 393.852 C495.141 402.035 497.038 410.144 498.522 418.166 C503.369 444.579 504.877 470.98 504.758 497.773 C504.749 499.996 504.744 502.219 504.741 504.441 C504.688 527.284 503.837 549.789 500.312 572.391 C500.101 573.77 499.89 575.15 499.68 576.529 C497.859 588.309 495.743 599.979 492.888 611.557 C492.365 614.129 492.179 616.341 492.249 618.954 C492.311 622.341 492.092 623.622 490.312 626.391 C488.386 629.849 487.296 633.412 486.187 637.204 C485.833 638.386 485.48 639.568 485.116 640.786 C484.3 644.442 484.168 647.659 484.312 651.391 C483.652 651.391 482.992 651.391 482.312 651.391 C479.921 658.063 477.857 664.304 477.312 671.391 C476.652 671.391 475.992 671.391 475.312 671.391 C475.353 672.278 475.394 673.165 475.437 674.079 C475.313 677.364 474.698 679.446 473.312 682.391 C472.652 682.391 471.992 682.391 471.312 682.391 C471.188 683.443 471.064 684.495 470.937 685.579 C470.4 688.851 469.673 691.396 468.312 694.391 C467.652 694.391 466.992 694.391 466.312 694.391 C466.23 695.362 466.149 696.332 466.065 697.333 C465.386 702.086 463.366 706.063 461.249 710.329 C460.872 711.108 460.495 711.887 460.106 712.69 C459.183 714.595 458.249 716.493 457.312 718.391 C456.652 718.391 455.992 718.391 455.312 718.391 C452.429 723.774 450.255 728.329 449.312 734.391 C448.117 736.836 446.749 739.073 445.312 741.391 C444.652 741.391 443.992 741.391 443.312 741.391 C443.261 742.183 443.211 742.974 443.159 743.79 C441.976 748.818 439.46 752.658 436.749 757.016 C436.209 757.898 435.669 758.78 435.113 759.689 C423.289 778.902 423.289 778.902 420.312 780.391 C420.043 781.092 419.775 781.794 419.499 782.516 C417.809 786.607 415.388 791.353 411.312 793.391 C410.982 794.381 410.652 795.371 410.312 796.391 C409.652 796.721 408.992 797.051 408.312 797.391 C408.023 798.175 407.734 798.959 407.437 799.766 C406.158 802.749 404.902 803.553 402.312 805.391 C401.982 806.381 401.652 807.371 401.312 808.391 C400.322 808.721 399.332 809.051 398.312 809.391 C397.939 810.714 397.605 812.048 397.312 813.391 C396.652 813.721 395.992 814.051 395.312 814.391 C395.002 815.051 394.693 815.711 394.374 816.391 C393.312 818.391 393.312 818.391 390.312 819.391 C390.188 820.01 390.064 820.629 389.937 821.266 C389.033 824.339 386.983 824.788 384.312 826.391 C384.147 827.051 383.982 827.711 383.812 828.391 C383.312 830.391 383.312 830.391 380.874 831.954 C380.028 832.428 379.183 832.902 378.312 833.391 C376.312 836.391 376.312 836.391 375.499 838.391 C374.312 840.391 374.312 840.391 372.105 841.665 C368.777 843.722 366.163 846.253 363.425 849.012 C362.882 849.553 362.339 850.095 361.779 850.652 C360.638 851.792 359.499 852.934 358.363 854.079 C356.626 855.827 354.879 857.563 353.13 859.299 C352.019 860.411 350.909 861.524 349.8 862.637 C349.539 862.896 349.539 862.896 348.222 864.203 C345.672 866.786 343.829 869.104 342.312 872.391 C340.982 872.739 339.648 873.07 338.312 873.391 C336.007 875.29 336.007 875.29 333.437 877.766 C327.641 883.213 321.501 888.097 315.195 892.936 C313.313 894.39 311.45 895.865 309.589 897.344 C292.251 911.01 273.545 923.55 254.312 934.391 C253.558 934.82 252.804 935.249 252.028 935.69 C182.787 974.901 102.225 1000.319 22.132 1000.594 C21.476 1000.597 20.821 1000.6 20.146 1000.603 C16.66 1000.618 13.175 1000.627 9.69 1000.631 C6.886 1000.636 4.083 1000.649 1.28 1000.672 C-24.265 1000.877 -49.436 999.252 -74.688 995.141 C-75.33 995.038 -75.972 994.935 -76.633 994.829 C-139.858 984.621 -201.209 962.121 -255.741 928.492 C-257.688 927.391 -257.688 927.391 -260.688 926.391 C-261.431 925.793 -262.173 925.195 -262.938 924.579 C-266.601 921.665 -270.499 919.486 -274.688 917.391 C-274.977 917.082 -274.977 917.082 -276.438 915.516 C-279.753 912.386 -283.398 910.821 -287.688 909.391 C-288.018 908.401 -288.348 907.411 -288.688 906.391 C-290.096 905.092 -290.096 905.092 -291.899 903.79 C-292.562 903.304 -293.225 902.818 -293.907 902.317 C-294.619 901.805 -295.33 901.293 -296.063 900.766 C-297.53 899.691 -298.995 898.614 -300.458 897.536 C-301.179 897.004 -301.901 896.472 -302.644 895.925 C-305.416 893.845 -308.084 891.667 -310.751 889.454 C-321.015 880.949 -321.015 880.949 -325.688 879.391 C-326.355 878.058 -327.022 876.724 -327.688 875.391 C-329.659 873.683 -331.428 872.506 -333.813 871.454 C-335.688 870.391 -335.688 870.391 -336.447 868.7 C-338.218 865.406 -340.8 862.995 -343.431 860.383 C-343.995 859.817 -344.56 859.25 -345.142 858.666 C-346.335 857.472 -347.53 856.28 -348.728 855.091 C-350.557 853.273 -352.375 851.444 -354.192 849.614 C-355.355 848.453 -356.517 847.293 -357.681 846.133 C-358.222 845.587 -358.764 845.042 -359.322 844.479 C-361.969 841.865 -364.334 839.968 -367.688 838.391 C-367.977 837.607 -368.266 836.824 -368.563 836.016 C-370.089 832.457 -372.511 831.487 -375.688 829.391 C-376.05 828.065 -376.386 826.732 -376.688 825.391 C-377.101 825.144 -377.101 825.144 -379.188 823.891 C-381.688 822.391 -381.688 822.391 -382.251 820.329 C-382.395 819.689 -382.54 819.05 -382.688 818.391 C-384.005 817.692 -385.339 817.024 -386.688 816.391 C-386.853 815.896 -386.853 815.896 -387.688 813.391 C-388.678 812.731 -389.668 812.071 -390.688 811.391 C-390.853 810.896 -390.853 810.896 -391.688 808.391 C-392.348 808.061 -393.008 807.731 -393.688 807.391 C-393.853 806.896 -393.853 806.896 -394.688 804.391 C-396.333 802.703 -398.002 801.038 -399.688 799.391 C-401.707 796.941 -402.674 795.434 -403.688 792.391 C-404.249 791.846 -404.81 791.301 -405.388 790.739 C-408.62 787.441 -410.98 783.684 -413.501 779.829 C-414.029 779.027 -414.558 778.225 -415.102 777.398 C-416.153 775.799 -417.202 774.199 -418.248 772.597 C-419.49 770.695 -420.74 768.798 -421.993 766.903 C-422.614 765.95 -423.236 764.998 -423.876 764.016 C-424.406 763.204 -424.936 762.392 -425.481 761.555 C-426.688 759.391 -426.688 759.391 -427.177 757.29 C-427.688 755.391 -427.688 755.391 -429.054 754.051 C-432.25 750.806 -434.136 746.545 -436.313 742.579 C-436.816 741.689 -437.319 740.798 -437.837 739.881 C-440.352 735.32 -442.08 731.629 -442.688 726.391 C-443.348 725.731 -444.008 725.071 -444.688 724.391 C-444.761 724.082 -444.761 724.082 -445.126 722.516 C-445.976 719.305 -448.023 717.209 -450.091 714.668 C-452.04 711.89 -453.437 709.027 -454.876 705.954 C-455.406 704.841 -455.936 703.729 -456.481 702.583 C-457.629 699.548 -457.957 697.587 -457.688 694.391 C-458.348 694.391 -459.008 694.391 -459.688 694.391 C-459.81 693.727 -459.931 693.063 -460.056 692.379 C-460.914 687.857 -461.728 683.592 -463.688 679.391 C-464.348 679.391 -465.008 679.391 -465.688 679.391 C-465.833 678.628 -465.977 677.865 -466.126 677.079 C-466.688 674.391 -466.688 674.391 -467.688 671.391 C-468.607 668.635 -469.377 665.885 -470.126 663.079 C-471.193 659.135 -472.333 655.248 -473.688 651.391 C-474.348 651.391 -475.008 651.391 -475.688 651.391 C-475.647 650.298 -475.606 649.205 -475.563 648.079 C-475.688 644.391 -475.688 644.391 -477.688 641.391 C-478.661 638.207 -479.166 634.916 -479.751 631.641 C-479.928 630.656 -480.104 629.671 -480.286 628.657 C-480.353 628.283 -480.353 628.283 -480.688 626.391 C-481.348 626.391 -482.008 626.391 -482.688 626.391 C-483.355 621.058 -484.022 615.724 -484.688 610.391 C-485.348 610.391 -486.008 610.391 -486.688 610.391 C-486.63 609.249 -486.572 608.107 -486.513 606.93 C-486.517 598.747 -488.415 590.638 -489.899 582.616 C-494.644 556.758 -496.205 530.935 -496.08 504.703 C-496.062 501.11 -496.073 497.518 -496.09 493.926 C-496.188 469.581 -494.474 445.693 -490.596 421.63 C-489.668 415.862 -489.327 410.235 -489.688 404.391 C-489.028 404.391 -488.368 404.391 -487.688 404.391 C-486.54 394.981 -486.54 394.981 -486.688 390.391 C-486.028 390.391 -485.368 390.391 -484.688 390.391 C-484.688 387.421 -484.688 384.451 -484.688 381.391 C-484.028 381.391 -483.368 381.391 -482.688 381.391 C-480.7 370.891 -480.7 370.891 -480.251 366.266 C-479.602 361.795 -478.574 357.514 -476.688 353.391 C-476.028 353.061 -475.368 352.731 -474.688 352.391 C-474.688 350.411 -474.688 348.431 -474.688 346.391 C-474.028 346.391 -473.368 346.391 -472.688 346.391 C-472.639 345.811 -472.591 345.231 -472.54 344.633 C-472.092 339.952 -471.39 335.816 -469.688 331.391 C-469.028 331.391 -468.368 331.391 -467.688 331.391 C-467.358 328.751 -467.028 326.111 -466.688 323.391 C-466.028 323.391 -465.368 323.391 -464.688 323.391 C-464.585 322.401 -464.482 321.411 -464.376 320.391 C-463.78 316.108 -462.303 312.391 -460.688 308.391 C-460.028 308.391 -459.368 308.391 -458.688 308.391 C-458.587 307.379 -458.485 306.367 -458.38 305.325 C-457.662 301.243 -456.428 298.172 -454.626 294.454 C-454.078 293.31 -453.53 292.167 -452.966 290.989 C-452.755 290.56 -452.755 290.56 -451.688 288.391 C-451.028 288.391 -450.368 288.391 -449.688 288.391 C-449.607 287.4 -449.526 286.409 -449.442 285.387 C-448.799 280.881 -446.852 277.371 -444.626 273.454 C-444.249 272.77 -443.872 272.086 -443.483 271.381 C-442.561 269.713 -441.626 268.051 -440.688 266.391 C-440.028 266.391 -439.368 266.391 -438.688 266.391 C-438.656 265.989 -438.656 265.989 -438.489 263.954 C-437.425 259.217 -435.307 255.563 -432.876 251.391 C-432.366 250.506 -431.855 249.621 -431.329 248.71 C-426.243 240.058 -420.744 231.683 -415.188 223.329 C-414.968 222.997 -414.968 222.997 -413.855 221.317 C-412.587 219.409 -411.311 217.507 -410.032 215.606 C-409.653 215.037 -409.275 214.468 -408.884 213.882 C-406.735 210.714 -404.428 208.054 -401.688 205.391 C-401.007 204.065 -400.337 202.734 -399.688 201.391 C-399.028 201.061 -398.368 200.731 -397.688 200.391 C-397.358 199.401 -397.028 198.411 -396.688 197.391 C-396.028 197.061 -395.368 196.731 -394.688 196.391 C-394.358 195.401 -394.028 194.411 -393.688 193.391 C-393.028 193.061 -392.368 192.731 -391.688 192.391 C-391.358 191.731 -391.028 191.071 -390.688 190.391 C-389.688 188.391 -389.688 188.391 -387.688 187.391 C-387.358 186.731 -387.028 186.071 -386.688 185.391 C-385.688 183.391 -385.688 183.391 -383.688 182.391 C-383.4 181.752 -383.111 181.112 -382.813 180.454 C-381.688 178.391 -381.688 178.391 -379.626 177.391 C-378.987 177.061 -378.347 176.731 -377.688 176.391 C-377.544 175.752 -377.4 175.112 -377.251 174.454 C-376.688 172.391 -376.688 172.391 -374.251 170.954 C-371.688 169.391 -371.688 169.391 -370.751 166.954 C-369.504 163.946 -368.101 163.329 -365.439 161.632 C-362.061 159.237 -359.273 156.196 -356.384 153.247 C-355.701 152.559 -355.018 151.871 -354.315 151.162 C-352.143 148.972 -349.978 146.776 -347.813 144.579 C-345.656 142.393 -343.496 140.209 -341.334 138.028 C-339.993 136.675 -338.655 135.319 -337.32 133.96 C-333.467 130.067 -329.496 126.437 -325.27 122.95 C-323.688 121.391 -323.688 121.391 -322.688 118.391 C-321.364 118.024 -320.029 117.695 -318.688 117.391 C-316.802 116.086 -316.802 116.086 -315.001 114.516 C-314.7 114.26 -314.7 114.26 -313.177 112.961 C-311.688 111.391 -311.688 111.391 -310.688 108.391 C-309.355 108.058 -308.022 107.724 -306.688 107.391 C-306.358 106.401 -306.028 105.411 -305.688 104.391 C-303.844 103.852 -303.844 103.852 -301.688 103.391 C-299.963 102.338 -299.963 102.338 -298.204 101.012 C-297.529 100.511 -296.854 100.011 -296.159 99.495 C-295.792 99.22 -295.792 99.22 -293.938 97.829 C-275.275 84.122 -255.924 71.648 -235.688 60.391 C-234.773 59.881 -233.858 59.371 -232.916 58.846 C-184.398 32.086 -130.728 14.736 -76.188 5.641 C-75.09 5.455 -73.991 5.268 -72.859 5.076 C-48.637 1.258 -24.48 -0.117 0 0 Z M457.312 286.391 C458.312 288.391 458.312 288.391 458.312 288.391 Z M-454.688 297.391 C-453.688 299.391 -453.688 299.391 -453.688 299.391 Z M-456.688 301.391 C-455.688 303.391 -455.688 303.391 -455.688 303.391 Z M-457.688 304.391 C-456.688 306.391 -456.688 306.391 -456.688 306.391 Z M465.312 304.391 C466.312 306.391 466.312 306.391 466.312 306.391 Z M-460.688 311.391 C-459.688 313.391 -459.688 313.391 -459.688 313.391 Z M-461.688 313.391 C-460.688 315.391 -460.688 315.391 -460.688 315.391 Z M469.312 313.391 C470.312 315.391 470.312 315.391 470.312 315.391 Z M-463.688 318.391 C-462.688 320.391 -462.688 320.391 -462.688 320.391 Z M471.312 318.391 C472.312 320.391 472.312 320.391 472.312 320.391 Z M-466.688 326.391 C-465.688 328.391 -465.688 328.391 -465.688 328.391 Z M474.312 326.391 C475.312 328.391 475.312 328.391 475.312 328.391 Z M475.312 329.391 C476.312 331.391 476.312 331.391 476.312 331.391 Z M476.312 332.391 C477.312 334.391 477.312 334.391 477.312 334.391 Z M-477.688 359.391 C-476.688 362.391 -476.688 362.391 -476.688 362.391 Z M485.312 359.391 C486.312 362.391 486.312 362.391 486.312 362.391 Z M-478.688 363.391 C-477.688 366.391 -477.688 366.391 -477.688 366.391 Z M486.312 363.391 C487.312 366.391 487.312 366.391 487.312 366.391 Z M-479.688 366.391 C-478.688 369.391 -478.688 369.391 -478.688 369.391 Z M-482.688 619.391 C-481.688 622.391 -481.688 622.391 -481.688 622.391 Z M490.312 619.391 C491.312 622.391 491.312 622.391 491.312 622.391 Z M476.312 666.391 C477.312 668.391 477.312 668.391 477.312 668.391 Z M473.312 674.391 C474.312 676.391 474.312 676.391 474.312 676.391 Z M472.312 677.391 C473.312 679.391 473.312 679.391 473.312 679.391 Z M469.312 684.391 C470.312 686.391 470.312 686.391 470.312 686.391 Z M468.312 687.391 C469.312 689.391 469.312 689.391 469.312 689.391 Z M-459.688 689.391 C-458.688 691.391 -458.688 691.391 -458.688 691.391 Z M467.312 689.391 C468.312 691.391 468.312 691.391 468.312 691.391 Z M-455.688 699.391 C-454.688 701.391 -454.688 701.391 -454.688 701.391 Z M463.312 699.391 C464.312 701.391 464.312 701.391 464.312 701.391 Z M-453.688 703.391 C-452.688 705.391 -452.688 705.391 -452.688 705.391 Z M461.312 703.391 C462.312 705.391 462.312 705.391 462.312 705.391 Z M424.312 771.391 C425.312 773.391 425.312 773.391 425.312 773.391 Z " fill="#C4084F" transform="translate(495.6884765625,-0.39111328125)"/>
<path d="M0 0 C2.047 0.005 4.094 0.01 6.141 0.014 C11.094 0.024 16.047 0.043 21 0.062 C21 12.933 21 25.803 21 39.062 C17.623 39.111 14.245 39.16 10.766 39.211 C7.422 39.265 4.079 39.322 0.736 39.38 C-1.552 39.418 -3.84 39.453 -6.129 39.484 C-26.145 39.765 -45.666 41.146 -65.375 44.688 C-66.091 44.815 -66.807 44.942 -67.545 45.074 C-131.588 56.59 -191.285 84.843 -241.162 126.533 C-242.851 127.939 -244.556 129.323 -246.266 130.703 C-254.402 137.367 -261.863 144.715 -269.312 152.125 C-269.825 152.632 -270.337 153.139 -270.865 153.661 C-277.716 160.458 -283.985 167.5 -290 175.062 C-290.863 176.09 -291.732 177.113 -292.609 178.129 C-347.91 242.613 -378.251 329.574 -377.391 414.113 C-377.369 416.816 -377.37 419.519 -377.371 422.222 C-377.37 443.667 -376.226 464.611 -372.188 485.688 C-372.056 486.391 -371.924 487.094 -371.788 487.818 C-356.078 571.447 -310.893 655.083 -243 708.062 C-241.143 709.643 -239.289 711.226 -237.438 712.812 C-215.152 731.365 -190.057 746.447 -164.012 759.083 C-162.022 760.052 -160.04 761.037 -158.059 762.023 C-141.087 770.357 -123.312 776.885 -104.994 781.549 C-101.901 782.345 -98.828 783.213 -95.75 784.062 C-28.705 801.717 41.385 800.004 108 781.062 C109.179 780.729 110.359 780.395 111.574 780.051 C154.598 767.238 195.924 746.542 231.08 718.581 C232.94 717.11 234.817 715.665 236.703 714.227 C244.336 708.38 251.447 702.136 258.43 695.531 C259.967 694.094 261.524 692.683 263.094 691.281 C269.643 685.422 275.741 679.276 281.564 672.686 C283.05 671.006 284.551 669.339 286.051 667.672 C319.443 630.214 343.155 586.096 360 539.062 C360.288 538.274 360.577 537.486 360.874 536.674 C364.881 525.712 367.47 514.436 370 503.062 C370.184 502.242 370.369 501.421 370.559 500.575 C375.212 479.745 377.408 459.557 379 438.062 C293.53 438.062 208.06 438.062 120 438.062 C120 425.192 120 412.322 120 399.062 C218.67 399.062 317.34 399.062 419 399.062 C419 445.325 419 445.325 417.325 460.177 C416.963 463.393 416.634 466.612 416.305 469.832 C414.204 489.775 414.204 489.775 411.797 498.996 C411.027 501.959 410.391 504.935 409.773 507.933 C400.601 551.618 384.032 593.849 361 632.062 C360.731 632.516 360.731 632.516 359.368 634.81 C352.243 646.782 344.59 658.098 336 669.062 C335.332 669.931 334.665 670.8 333.977 671.695 C332.333 673.83 330.669 675.948 329 678.062 C328.402 678.835 327.804 679.607 327.188 680.402 C322.648 686.196 317.823 691.628 312.809 697.008 C310.734 699.238 308.736 701.523 306.75 703.832 C302.561 708.638 298.08 713.13 293.562 717.625 C292.755 718.436 291.947 719.248 291.115 720.084 C286.24 724.952 281.239 729.59 276 734.062 C275.036 734.908 274.072 735.754 273.078 736.625 C253.576 753.434 232.351 768.291 210 781.062 C209.609 781.287 209.609 781.287 207.628 782.42 C169.136 804.299 127.424 820.287 84 829.062 C82.902 829.289 81.805 829.516 80.674 829.75 C12.92 843.475 -59.272 839.095 -125 818.062 C-126.044 817.729 -127.087 817.395 -128.163 817.051 C-182.266 799.518 -233.361 770.846 -275.418 732.398 C-276.812 731.137 -278.212 729.882 -279.643 728.662 C-285.635 723.54 -291.221 718.028 -296.79 712.458 C-298.426 710.824 -300.069 709.199 -301.713 707.574 C-308.263 701.058 -314.246 694.304 -320 687.062 C-320.935 685.961 -321.876 684.864 -322.828 683.777 C-383.753 613.911 -417.301 517.083 -417.125 384.042 C-411.118 308.199 -383.538 233.12 -338 172.062 C-337.752 171.729 -337.752 171.729 -336.497 170.04 C-329.038 160.044 -321.272 150.396 -313 141.062 C-312.595 140.601 -312.595 140.601 -310.543 138.266 C-304.41 131.427 -297.966 124.897 -291.5 118.375 C-290.634 117.496 -289.768 116.617 -288.875 115.711 C-283.703 110.532 -278.356 105.777 -272.64 101.206 C-270.16 99.192 -267.781 97.107 -265.414 94.961 C-260.927 90.932 -256.214 87.282 -251.375 83.688 C-250.5 83.036 -249.626 82.385 -248.725 81.714 C-214.194 56.166 -176.245 36.849 -136 22.062 C-135.278 21.796 -134.556 21.529 -133.812 21.255 C-112.855 13.617 -90.929 8.873 -69 5.062 C-68.486 4.973 -68.486 4.973 -65.885 4.52 C-60.019 3.52 -54.166 2.639 -48.25 2 C-47.58 1.922 -46.909 1.844 -46.219 1.764 C-30.813 0.063 -15.479 -0.067 0 0 Z " fill="#FEFCFD" transform="translate(499,81.9375)"/>
<path d="M0 0 C13.2 0 26.4 0 40 0 C40 132 40 264 40 400 C72.67 400 105.34 400 139 400 C139 412.87 139 425.74 139 439 C93.13 439 47.26 439 0 439 C0 294.13 0 149.26 0 0 Z " fill="#FEFEFE" transform="translate(480,280)"/>
<path d="M0 0 C2.274 1.712 4.407 3.505 6.527 5.402 C7.204 5.986 7.881 6.57 8.578 7.172 C16.688 14.652 22.978 24.616 25.527 35.402 C25.707 36.118 25.886 36.833 26.07 37.57 C28.68 53.743 26.386 70.307 17.23 84.109 C7.193 97.623 -6.44 107.797 -23.473 110.402 C-42.618 111.822 -58.407 108.78 -73.348 95.93 C-86.755 83.27 -93.32 67.828 -93.848 49.465 C-93.675 33.505 -86.943 19.354 -76.285 7.59 C-54.917 -11.769 -24.922 -16.103 0 0 Z " fill="#FEFDFE" transform="translate(373.47265625,289.59765625)"/>
<path d="M0 0 C0.66 0.33 1.32 0.66 2 1 C-3.28 6.28 -8.56 11.56 -14 17 C-14 14 -14 14 -12.715 12.374 C-12.128 11.803 -11.542 11.233 -10.938 10.645 C-10.306 10.023 -9.674 9.401 -9.023 8.76 C-8.356 8.117 -7.688 7.475 -7 6.812 C-6.332 6.158 -5.665 5.504 -4.977 4.83 C-3.324 3.213 -1.665 1.604 0 0 Z " fill="#DF002B" transform="translate(152,137)"/>
<path d="M0 0 C4.074 1.61 6.765 4.538 9.75 7.625 C10.257 8.141 10.763 8.656 11.285 9.188 C12.528 10.454 13.765 11.726 15 13 C14.67 13.66 14.34 14.32 14 15 C11.663 12.692 9.331 10.378 7 8.062 C6.332 7.403 5.665 6.744 4.977 6.064 C4.345 5.436 3.713 4.808 3.062 4.16 C2.476 3.579 1.889 2.998 1.285 2.399 C0 1 0 1 0 0 Z " fill="#D30028" transform="translate(847,138)"/>
<path d="M0 0 C3.3 0 6.6 0 10 0 C10 0.33 10 0.66 10 1 C6.7 1 3.4 1 0 1 C0 0.67 0 0.34 0 0 Z " fill="#D40036" transform="translate(545,999)"/>
<path d="M0 0 C3.3 0 6.6 0 10 0 C10 0.33 10 0.66 10 1 C6.7 1 3.4 1 0 1 C0 0.67 0 0.34 0 0 Z " fill="#BA0036" transform="translate(445,999)"/>
<path d="M0 0 C0.33 0 0.66 0 1 0 C1 2.97 1 5.94 1 9 C0.67 9 0.34 9 0 9 C0 6.03 0 3.06 0 0 Z " fill="#BC0041" transform="translate(999,547)"/>
<path d="M0 0 C0.33 0 0.66 0 1 0 C1 2.97 1 5.94 1 9 C0.67 9 0.34 9 0 9 C0 6.03 0 3.06 0 0 Z " fill="#BC0041" transform="translate(0,547)"/>
<path d="M0 0 C0.33 0 0.66 0 1 0 C1 2.97 1 5.94 1 9 C0.67 9 0.34 9 0 9 C0 6.03 0 3.06 0 0 Z " fill="#D40041" transform="translate(999,444)"/>
<path d="M0 0 C0.33 0 0.66 0 1 0 C1 2.97 1 5.94 1 9 C0.67 9 0.34 9 0 9 C0 6.03 0 3.06 0 0 Z " fill="#D40041" transform="translate(0,444)"/>
<path d="M0 0 C2.97 0 5.94 0 9 0 C9 0.33 9 0.66 9 1 C6.03 1 3.06 1 0 1 C0 0.67 0 0.34 0 0 Z " fill="#D40041" transform="translate(547,0)"/>
<path d="M0 0 C2.97 0 5.94 0 9 0 C9 0.33 9 0.66 9 1 C6.03 1 3.06 1 0 1 C0 0.67 0 0.34 0 0 Z " fill="#C6004F" transform="translate(444,0)"/>
<path d="M0 0 C2.64 0 5.28 0 8 0 C8 0.33 8 0.66 8 1 C5.36 1 2.72 1 0 1 C0 0.67 0 0.34 0 0 Z " fill="#C1003C" transform="translate(555,998)"/>
<path d="M0 0 C2.64 0 5.28 0 8 0 C8 0.33 8 0.66 8 1 C5.36 1 2.72 1 0 1 C0 0.67 0 0.34 0 0 Z " fill="#C1003C" transform="translate(437,998)"/>
<path d="M0 0 C0.33 0 0.66 0 1 0 C1 2.64 1 5.28 1 8 C0.67 8 0.34 8 0 8 C0 5.36 0 2.72 0 0 Z " fill="#BC0042" transform="translate(1,435)"/>
<path d="M0 0 C2.64 0 5.28 0 8 0 C8 0.33 8 0.66 8 1 C5.36 1 2.72 1 0 1 C0 0.67 0 0.34 0 0 Z " fill="#BC0042" transform="translate(557,1)"/>
<path d="M0 0 C2.64 0 5.28 0 8 0 C8 0.33 8 0.66 8 1 C5.36 1 2.72 1 0 1 C0 0.67 0 0.34 0 0 Z " fill="#AC0042" transform="translate(435,1)"/>
<path d="M0 0 C2.31 0 4.62 0 7 0 C7 0.33 7 0.66 7 1 C4.69 1 2.38 1 0 1 C0 0.67 0 0.34 0 0 Z " fill="#C50039" transform="translate(564,997)"/>
<path d="M0 0 C2.31 0 4.62 0 7 0 C7 0.33 7 0.66 7 1 C4.69 1 2.38 1 0 1 C0 0.67 0 0.34 0 0 Z " fill="#C50039" transform="translate(429,997)"/>
<path d="M0 0 C2.31 0 4.62 0 7 0 C7 0.33 7 0.66 7 1 C4.69 1 2.38 1 0 1 C0 0.67 0 0.34 0 0 Z " fill="#BF0045" transform="translate(571,996)"/>
<path d="M0 0 C2.31 0 4.62 0 7 0 C7 0.33 7 0.66 7 1 C4.69 1 2.38 1 0 1 C0 0.67 0 0.34 0 0 Z " fill="#B3003F" transform="translate(422,996)"/>
<path d="M0 0 C0.33 0 0.66 0 1 0 C1 2.31 1 4.62 1 7 C0.67 7 0.34 7 0 7 C0 4.69 0 2.38 0 0 Z " fill="#D70039" transform="translate(997,565)"/>
<path d="M0 0 C0.33 0 0.66 0 1 0 C1 2.31 1 4.62 1 7 C0.67 7 0.34 7 0 7 C0 4.69 0 2.38 0 0 Z " fill="#D70039" transform="translate(2,565)"/>
<path d="M0 0 C0.33 0 0.66 0 1 0 C1 2.31 1 4.62 1 7 C0.67 7 0.34 7 0 7 C0 4.69 0 2.38 0 0 Z " fill="#C5004B" transform="translate(998,557)"/>
<path d="M0 0 C0.33 0 0.66 0 1 0 C1 2.31 1 4.62 1 7 C0.67 7 0.34 7 0 7 C0 4.69 0 2.38 0 0 Z " fill="#C5004B" transform="translate(1,557)"/>
<path d="M0 0 C0.33 0 0.66 0 1 0 C1 2.31 1 4.62 1 7 C0.67 7 0.34 7 0 7 C0 4.69 0 2.38 0 0 Z " fill="#D7004B" transform="translate(998,436)"/>
<path d="M0 0 C0.33 0 0.66 0 1 0 C1 2.31 1 4.62 1 7 C0.67 7 0.34 7 0 7 C0 4.69 0 2.38 0 0 Z " fill="#C50039" transform="translate(997,428)"/>
<path d="M0 0 C0.33 0 0.66 0 1 0 C1 2.31 1 4.62 1 7 C0.67 7 0.34 7 0 7 C0 4.69 0 2.38 0 0 Z " fill="#B20039" transform="translate(2,428)"/>
<path d="M0 0 C0.33 0 0.66 0 1 0 C1 2.31 1 4.62 1 7 C0.67 7 0.34 7 0 7 C0 4.69 0 2.38 0 0 Z " fill="#BC002A" transform="translate(3,421)"/>
<path d="M0 0 C2.31 0 4.62 0 7 0 C7 0.33 7 0.66 7 1 C4.69 1 2.38 1 0 1 C0 0.67 0 0.34 0 0 Z " fill="#B3002D" transform="translate(572,3)"/>
<path d="M0 0 C2.31 0 4.62 0 7 0 C7 0.33 7 0.66 7 1 C4.69 1 2.38 1 0 1 C0 0.67 0 0.34 0 0 Z " fill="#B3002D" transform="translate(421,3)"/>
<path d="M0 0 C2.31 0 4.62 0 7 0 C7 0.33 7 0.66 7 1 C4.69 1 2.38 1 0 1 C0 0.67 0 0.34 0 0 Z " fill="#B20039" transform="translate(565,2)"/>
<path d="M0 0 C2.31 0 4.62 0 7 0 C7 0.33 7 0.66 7 1 C4.69 1 2.38 1 0 1 C0 0.67 0 0.34 0 0 Z " fill="#B2004B" transform="translate(428,2)"/>
<path d="M0 0 C1.98 0 3.96 0 6 0 C6 0.33 6 0.66 6 1 C4.02 1 2.04 1 0 1 C0 0.67 0 0.34 0 0 Z " fill="#B80046" transform="translate(578,995)"/>
<path d="M0 0 C1.98 0 3.96 0 6 0 C6 0.33 6 0.66 6 1 C4.02 1 2.04 1 0 1 C0 0.67 0 0.34 0 0 Z " fill="#B80046" transform="translate(416,995)"/>
<path d="M0 0 C1.98 0 3.96 0 6 0 C6 0.33 6 0.66 6 1 C4.02 1 2.04 1 0 1 C0 0.67 0 0.34 0 0 Z " fill="#B10038" transform="translate(584,994)"/>
<path d="M0 0 C1.98 0 3.96 0 6 0 C6 0.33 6 0.66 6 1 C4.02 1 2.04 1 0 1 C0 0.67 0 0.34 0 0 Z " fill="#9B0038" transform="translate(410,994)"/>
<path d="M0 0 C0.33 0 0.66 0 1 0 C1 1.98 1 3.96 1 6 C0.67 6 0.34 6 0 6 C0 4.02 0 2.04 0 0 Z " fill="#D4004D" transform="translate(996,572)"/>
<path d="M0 0 C0.33 0 0.66 0 1 0 C1 1.98 1 3.96 1 6 C0.67 6 0.34 6 0 6 C0 4.02 0 2.04 0 0 Z " fill="#D4004D" transform="translate(3,572)"/>
<path d="M0 0 C0.33 0 0.66 0 1 0 C1 1.98 1 3.96 1 6 C0.67 6 0.34 6 0 6 C0 4.02 0 2.04 0 0 Z " fill="#F4003C" transform="translate(996,422)"/>
<path d="M0 0 C0.33 0 0.66 0 1 0 C1 1.98 1 3.96 1 6 C0.67 6 0.34 6 0 6 C0 4.02 0 2.04 0 0 Z " fill="#A20031" transform="translate(995,415)"/>
<path d="M0 0 C0.33 0 0.66 0 1 0 C1 1.98 1 3.96 1 6 C0.67 6 0.34 6 0 6 C0 4.02 0 2.04 0 0 Z " fill="#8D0031" transform="translate(4,415)"/>
<path d="M0 0 C0.33 0 0.66 0 1 0 C1 1.98 1 3.96 1 6 C0.67 6 0.34 6 0 6 C0 4.02 0 2.04 0 0 Z " fill="#9B0038" transform="translate(993,404)"/>
<path d="M0 0 C1.98 0 3.96 0 6 0 C6 0.33 6 0.66 6 1 C4.02 1 2.04 1 0 1 C0 0.67 0 0.34 0 0 Z " fill="#B80031" transform="translate(579,4)"/>
<path d="M0 0 C1.98 0 3.96 0 6 0 C6 0.33 6 0.66 6 1 C4.02 1 2.04 1 0 1 C0 0.67 0 0.34 0 0 Z " fill="#B80031" transform="translate(415,4)"/>
<path d="M0 0 C1.65 0 3.3 0 5 0 C5 0.33 5 0.66 5 1 C3.35 1 1.7 1 0 1 C0 0.67 0 0.34 0 0 Z " fill="#C70048" transform="translate(590,993)"/>
<path d="M0 0 C1.65 0 3.3 0 5 0 C5 0.33 5 0.66 5 1 C3.35 1 1.7 1 0 1 C0 0.67 0 0.34 0 0 Z " fill="#E10048" transform="translate(405,993)"/>
<path d="M0 0 C1.65 0 3.3 0 5 0 C5 0.33 5 0.66 5 1 C3.35 1 1.7 1 0 1 C0 0.67 0 0.34 0 0 Z " fill="#E5004C" transform="translate(595,992)"/>
<path d="M0 0 C1.65 0 3.3 0 5 0 C5 0.33 5 0.66 5 1 C3.35 1 1.7 1 0 1 C0 0.67 0 0.34 0 0 Z " fill="#E5004C" transform="translate(400,992)"/>
<path d="M0 0 C1.65 0 3.3 0 5 0 C5 0.33 5 0.66 5 1 C3.35 1 1.7 1 0 1 C0 0.67 0 0.34 0 0 Z " fill="#D80050" transform="translate(600,991)"/>
<path d="M0 0 C1.65 0 3.3 0 5 0 C5 0.33 5 0.66 5 1 C3.35 1 1.7 1 0 1 C0 0.67 0 0.34 0 0 Z " fill="#D80050" transform="translate(395,991)"/>
<path d="M0 0 C1.65 0 3.3 0 5 0 C5 0.33 5 0.66 5 1 C3.35 1 1.7 1 0 1 C0 0.67 0 0.34 0 0 Z " fill="#F20037" transform="translate(609,989)"/>
<path d="M0 0 C1.65 0 3.3 0 5 0 C5 0.33 5 0.66 5 1 C3.35 1 1.7 1 0 1 C0 0.67 0 0.34 0 0 Z " fill="#B20032" transform="translate(386,989)"/>
<path d="M0 0 C0.33 0 0.66 0 1 0 C1 1.65 1 3.3 1 5 C0.67 5 0.34 5 0 5 C0 3.35 0 1.7 0 0 Z " fill="#E50032" transform="translate(990,605)"/>
<path d="M0 0 C0.33 0 0.66 0 1 0 C1 1.65 1 3.3 1 5 C0.67 5 0.34 5 0 5 C0 3.35 0 1.7 0 0 Z " fill="#940048" transform="translate(7,596)"/>
<path d="M0 0 C0.33 0 0.66 0 1 0 C1 1.65 1 3.3 1 5 C0.67 5 0.34 5 0 5 C0 3.35 0 1.7 0 0 Z " fill="#BA002A" transform="translate(993,590)"/>
<path d="M0 0 C0.33 0 0.66 0 1 0 C1 1.65 1 3.3 1 5 C0.67 5 0.34 5 0 5 C0 3.35 0 1.7 0 0 Z " fill="#BA0043" transform="translate(6,590)"/>
<path d="M0 0 C0.33 0 0.66 0 1 0 C1 1.65 1 3.3 1 5 C0.67 5 0.34 5 0 5 C0 3.35 0 1.7 0 0 Z " fill="#D40043" transform="translate(994,585)"/>
<path d="M0 0 C0.33 0 0.66 0 1 0 C1 1.65 1 3.3 1 5 C0.67 5 0.34 5 0 5 C0 3.35 0 1.7 0 0 Z " fill="#D40043" transform="translate(5,585)"/>
<path d="M0 0 C0.33 0 0.66 0 1 0 C1 1.65 1 3.3 1 5 C0.67 5 0.34 5 0 5 C0 3.35 0 1.7 0 0 Z " fill="#C3003B" transform="translate(995,579)"/>
<path d="M0 0 C0.33 0 0.66 0 1 0 C1 1.65 1 3.3 1 5 C0.67 5 0.34 5 0 5 C0 3.35 0 1.7 0 0 Z " fill="#C3003B" transform="translate(4,579)"/>
<path d="M0 0 C0.33 0 0.66 0 1 0 C1 1.65 1 3.3 1 5 C0.67 5 0.34 5 0 5 C0 3.35 0 1.7 0 0 Z " fill="#C3003B" transform="translate(994,410)"/>
<path d="M0 0 C0.33 0 0.66 0 1 0 C1 1.65 1 3.3 1 5 C0.67 5 0.34 5 0 5 C0 3.35 0 1.7 0 0 Z " fill="#D40043" transform="translate(5,410)"/>
<path d="M0 0 C0.33 0 0.66 0 1 0 C1 1.65 1 3.3 1 5 C0.67 5 0.34 5 0 5 C0 3.35 0 1.7 0 0 Z " fill="#C70048" transform="translate(992,399)"/>
<path d="M0 0 C0.33 0 0.66 0 1 0 C1 1.65 1 3.3 1 5 C0.67 5 0.34 5 0 5 C0 3.35 0 1.7 0 0 Z " fill="#C70048" transform="translate(7,399)"/>
<path d="M0 0 C1.65 0 3.3 0 5 0 C5 0.33 5 0.66 5 1 C3.35 1 1.7 1 0 1 C0 0.67 0 0.34 0 0 Z " fill="#940050" transform="translate(394,8)"/>
<path d="M0 0 C1.65 0 3.3 0 5 0 C5 0.33 5 0.66 5 1 C3.35 1 1.7 1 0 1 C0 0.67 0 0.34 0 0 Z " fill="#C70048" transform="translate(596,7)"/>
<path d="M0 0 C1.65 0 3.3 0 5 0 C5 0.33 5 0.66 5 1 C3.35 1 1.7 1 0 1 C0 0.67 0 0.34 0 0 Z " fill="#C70048" transform="translate(399,7)"/>
<path d="M0 0 C1.65 0 3.3 0 5 0 C5 0.33 5 0.66 5 1 C3.35 1 1.7 1 0 1 C0 0.67 0 0.34 0 0 Z " fill="#940048" transform="translate(591,6)"/>
<path d="M0 0 C1.65 0 3.3 0 5 0 C5 0.33 5 0.66 5 1 C3.35 1 1.7 1 0 1 C0 0.67 0 0.34 0 0 Z " fill="#C70048" transform="translate(404,6)"/>
<path d="M0 0 C1.65 0 3.3 0 5 0 C5 0.33 5 0.66 5 1 C3.35 1 1.7 1 0 1 C0 0.67 0 0.34 0 0 Z " fill="#C3003B" transform="translate(585,5)"/>
<path d="M0 0 C1.65 0 3.3 0 5 0 C5 0.33 5 0.66 5 1 C3.35 1 1.7 1 0 1 C0 0.67 0 0.34 0 0 Z " fill="#C3003B" transform="translate(410,5)"/>
<path d="M0 0 C4 1 4 1 4 1 Z " fill="#C4003A" transform="translate(605,990)"/>
<path d="M0 0 C4 1 4 1 4 1 Z " fill="#C4003A" transform="translate(391,990)"/>
<path d="M0 0 C4 1 4 1 4 1 Z " fill="#EF0044" transform="translate(614,988)"/>
<path d="M0 0 C4 1 4 1 4 1 Z " fill="#C4003A" transform="translate(382,988)"/>
<path d="M0 0 C4 1 4 1 4 1 Z " fill="#D90044" transform="translate(618,987)"/>
<path d="M0 0 C4 1 4 1 4 1 Z " fill="#D90044" transform="translate(378,987)"/>
<path d="M0 0 C4 1 4 1 4 1 Z " fill="#D90044" transform="translate(622,986)"/>
<path d="M0 0 C4 1 4 1 4 1 Z " fill="#D90044" transform="translate(374,986)"/>
<path d="M0 0 C4 1 4 1 4 1 Z " fill="#D90044" transform="translate(626,985)"/>
<path d="M0 0 C4 1 4 1 4 1 Z " fill="#EF004F" transform="translate(370,985)"/>
<path d="M0 0 C4 1 4 1 4 1 Z " fill="#D90025" transform="translate(633,983)"/>
<path d="M0 0 C4 1 4 1 4 1 Z " fill="#9A0025" transform="translate(640,981)"/>
<path d="M0 0 C0.99 0.33 1.98 0.66 3 1 C2.01 1 1.02 1 0 1 C0 0.67 0 0.34 0 0 Z " fill="#8F002F" transform="translate(177,884)"/>
<path d="M0 0 C0.66 0.33 1.32 0.66 2 1 C1.01 1 0.02 1 -1 1 C-0.67 0.67 -0.34 0.34 0 0 Z " fill="#9A0025" transform="translate(828,878)"/>
<path d="M0 0 C1 4 1 4 1 4 Z " fill="#9A0025" transform="translate(982,637)"/>
<path d="M0 0 C1 4 1 4 1 4 Z " fill="#B90044" transform="translate(984,630)"/>
<path d="M0 0 C1 4 1 4 1 4 Z " fill="#B90044" transform="translate(15,630)"/>
<path d="M0 0 C1 4 1 4 1 4 Z " fill="#EF0025" transform="translate(14,626)"/>
<path d="M0 0 C1 4 1 4 1 4 Z " fill="#D90025" transform="translate(985,626)"/>
<path d="M0 0 C1 4 1 4 1 4 Z " fill="#CF0084" transform="translate(988,614)"/>
<path d="M0 0 C1 4 1 4 1 4 Z " fill="#BF003F" transform="translate(11,614)"/>
<path d="M0 0 C1 4 1 4 1 4 Z " fill="#C4003A" transform="translate(989,610)"/>
<path d="M0 0 C1 4 1 4 1 4 Z " fill="#D90044" transform="translate(10,610)"/>
<path d="M0 0 C1 4 1 4 1 4 Z " fill="#C4003A" transform="translate(991,601)"/>
<path d="M0 0 C1 4 1 4 1 4 Z " fill="#C4003A" transform="translate(8,601)"/>
<path d="M0 0 C1 4 1 4 1 4 Z " fill="#A4005A" transform="translate(992,596)"/>
<path d="M0 0 C1 4 1 4 1 4 Z " fill="#A4005A" transform="translate(8,395)"/>
<path d="M0 0 C1 4 1 4 1 4 Z " fill="#B9005A" transform="translate(991,395)"/>
<path d="M0 0 C1 4 1 4 1 4 Z " fill="#AF0044" transform="translate(989,386)"/>
<path d="M0 0 C1 4 1 4 1 4 Z " fill="#AF0064" transform="translate(10,386)"/>
<path d="M0 0 C1 4 1 4 1 4 Z " fill="#9F003F" transform="translate(987,377)"/>
<path d="M0 0 C1 4 1 4 1 4 Z " fill="#AF0044" transform="translate(12,377)"/>
<path d="M0 0 C1 4 1 4 1 4 Z " fill="#D90025" transform="translate(984,366)"/>
<path d="M0 0 C0.66 0.33 1.32 0.66 2 1 C1.01 1 0.02 1 -1 1 C-0.67 0.67 -0.34 0.34 0 0 Z " fill="#EF002F" transform="translate(165,125)"/>
<path d="M0 0 C0.99 0.33 1.98 0.66 3 1 C2.01 1 1.02 1 0 1 C0 0.67 0 0.34 0 0 Z " fill="#EF002F" transform="translate(825,118)"/>
<path d="M0 0 C0.99 0.33 1.98 0.66 3 1 C2.01 1 1.02 1 0 1 C0 0.67 0 0.34 0 0 Z " fill="#8F002F" transform="translate(813,108)"/>
<path d="M0 0 C4 1 4 1 4 1 Z " fill="#D90025" transform="translate(644,19)"/>
<path d="M0 0 C4 1 4 1 4 1 Z " fill="#D90025" transform="translate(352,19)"/>
<path d="M0 0 C4 1 4 1 4 1 Z " fill="#9A0044" transform="translate(634,16)"/>
<path d="M0 0 C4 1 4 1 4 1 Z " fill="#9A0044" transform="translate(362,16)"/>
<path d="M0 0 C4 1 4 1 4 1 Z " fill="#D90025" transform="translate(630,15)"/>
<path d="M0 0 C4 1 4 1 4 1 Z " fill="#9A0025" transform="translate(366,15)"/>
<path d="M0 0 C4 1 4 1 4 1 Z " fill="#AF0044" transform="translate(623,13)"/>
<path d="M0 0 C4 1 4 1 4 1 Z " fill="#AF0044" transform="translate(373,13)"/>
<path d="M0 0 C4 1 4 1 4 1 Z " fill="#9F003F" transform="translate(619,12)"/>
<path d="M0 0 C4 1 4 1 4 1 Z " fill="#EF0044" transform="translate(377,12)"/>
<path d="M0 0 C4 1 4 1 4 1 Z " fill="#9F003F" transform="translate(615,11)"/>
<path d="M0 0 C4 1 4 1 4 1 Z " fill="#AF0044" transform="translate(381,11)"/>
<path d="M0 0 C4 1 4 1 4 1 Z " fill="#B90044" transform="translate(610,10)"/>
<path d="M0 0 C4 1 4 1 4 1 Z " fill="#CF0064" transform="translate(386,10)"/>
<path d="M0 0 C4 1 4 1 4 1 Z " fill="#D9003A" transform="translate(606,9)"/>
<path d="M0 0 C4 1 4 1 4 1 Z " fill="#C4003A" transform="translate(390,9)"/>
<path d="M0 0 C4 1 4 1 4 1 Z " fill="#A4003A" transform="translate(601,8)"/>
<path d="M0 0 C3 1 3 1 3 1 Z " fill="#D40063" transform="translate(630,984)"/>
<path d="M0 0 C3 1 3 1 3 1 Z " fill="#A2005B" transform="translate(367,984)"/>
<path d="M0 0 C3 1 3 1 3 1 Z " fill="#CD0031" transform="translate(363,983)"/>
<path d="M0 0 C3 1 3 1 3 1 Z " fill="#A2005B" transform="translate(637,982)"/>
<path d="M0 0 C3 1 3 1 3 1 Z " fill="#E90069" transform="translate(360,982)"/>
<path d="M0 0 C3 1 3 1 3 1 Z " fill="#CD0031" transform="translate(356,981)"/>
<path d="M0 0 C3 1 3 1 3 1 Z " fill="#FF0038" transform="translate(644,980)"/>
<path d="M0 0 C3 1 3 1 3 1 Z " fill="#E20038" transform="translate(353,980)"/>
<path d="M0 0 C3 1 3 1 3 1 Z " fill="#BF0069" transform="translate(647,979)"/>
<path d="M0 0 C3 1 3 1 3 1 Z " fill="#BF0069" transform="translate(350,979)"/>
<path d="M0 0 C3 1 3 1 3 1 Z " fill="#E9003F" transform="translate(650,978)"/>
<path d="M0 0 C3 1 3 1 3 1 Z " fill="#E9003F" transform="translate(347,978)"/>
<path d="M0 0 C3 1 3 1 3 1 Z " fill="#94003F" transform="translate(343,977)"/>
<path d="M0 0 C3 1 3 1 3 1 Z " fill="#E9003F" transform="translate(662,974)"/>
<path d="M0 0 C3 1 3 1 3 1 Z " fill="#BF003F" transform="translate(665,973)"/>
<path d="M0 0 C3 1 3 1 3 1 Z " fill="#BF003F" transform="translate(332,973)"/>
<path d="M0 0 C3 1 3 1 3 1 Z " fill="#FF0046" transform="translate(668,972)"/>
<path d="M0 0 C3 1 3 1 3 1 Z " fill="#FF0046" transform="translate(329,972)"/>
<path d="M0 0 C3 1 3 1 3 1 Z " fill="#710038" transform="translate(671,971)"/>
<path d="M0 0 C3 1 3 1 3 1 Z " fill="#C60038" transform="translate(326,971)"/>
<path d="M0 0 C3 1 3 1 3 1 Z " fill="#FF001C" transform="translate(676,969)"/>
<path d="M0 0 C3 1 3 1 3 1 Z " fill="#E90015" transform="translate(321,969)"/>
<path d="M0 0 C3 1 3 1 3 1 Z " fill="#710038" transform="translate(679,968)"/>
<path d="M0 0 C3 1 3 1 3 1 Z " fill="#710038" transform="translate(318,968)"/>
<path d="M0 0 C3 1 3 1 3 1 Z " fill="#710038" transform="translate(684,966)"/>
<path d="M0 0 C3 1 3 1 3 1 Z " fill="#C60038" transform="translate(313,966)"/>
<path d="M0 0 C3 1 3 1 3 1 Z " fill="#8D0046" transform="translate(696,961)"/>
<path d="M0 0 C3 1 3 1 3 1 Z " fill="#8D0046" transform="translate(301,961)"/>
<path d="M0 0 C3 1 3 1 3 1 Z " fill="#8D001C" transform="translate(292,957)"/>
<path d="" fill="#E9006A" transform="translate(0,0)"/>
<path d="" fill="#E90015" transform="translate(0,0)"/>
<path d="" fill="#E9003F" transform="translate(0,0)"/>
<path d="" fill="#E9003F" transform="translate(0,0)"/>
<path d="" fill="#8D0038" transform="translate(0,0)"/>
<path d="" fill="#E20038" transform="translate(0,0)"/>
<path d="" fill="#FF0038" transform="translate(0,0)"/>
<path d="" fill="#CD0031" transform="translate(0,0)"/>
<path d="" fill="#D40031" transform="translate(0,0)"/>
<path d="" fill="#FF0038" transform="translate(0,0)"/>
<path d="" fill="#FF0038" transform="translate(0,0)"/>
<path d="" fill="#CD0031" transform="translate(0,0)"/>
<path d="" fill="#CD0031" transform="translate(0,0)"/>
<path d="" fill="#BF0069" transform="translate(0,0)"/>
<path d="" fill="#940069" transform="translate(0,0)"/>
<path d="" fill="#BF0031" transform="translate(0,0)"/>
<path d="" fill="#A2005B" transform="translate(0,0)"/>
<path d="" fill="#A2005B" transform="translate(0,0)"/>
<path d="" fill="#CD005B" transform="translate(0,0)"/>
<path d="" fill="#E9005B" transform="translate(0,0)"/>
<path d="" fill="#E9005B" transform="translate(0,0)"/>
<path d="" fill="#BF005B" transform="translate(0,0)"/>
<path d="" fill="#BF005B" transform="translate(0,0)"/>
<path d="" fill="#CD0031" transform="translate(0,0)"/>
<path d="" fill="#E90031" transform="translate(0,0)"/>
<path d="" fill="#E90031" transform="translate(0,0)"/>
<path d="" fill="#CD0031" transform="translate(0,0)"/>
<path d="" fill="#E9003F" transform="translate(0,0)"/>
<path d="M0 0 C3 1 3 1 3 1 Z " fill="#630046" transform="translate(701,40)"/>
<path d="M0 0 C3 1 3 1 3 1 Z " fill="#8D001C" transform="translate(296,40)"/>
<path d="M0 0 C3 1 3 1 3 1 Z " fill="#B8001C" transform="translate(694,37)"/>
<path d="M0 0 C3 1 3 1 3 1 Z " fill="#FF001C" transform="translate(303,37)"/>
<path d="M0 0 C3 1 3 1 3 1 Z " fill="#710038" transform="translate(687,34)"/>
<path d="M0 0 C3 1 3 1 3 1 Z " fill="#710038" transform="translate(310,34)"/>
<path d="M0 0 C3 1 3 1 3 1 Z " fill="#710038" transform="translate(682,32)"/>
<path d="M0 0 C3 1 3 1 3 1 Z " fill="#C60038" transform="translate(315,32)"/>
<path d="M0 0 C3 1 3 1 3 1 Z " fill="#940015" transform="translate(679,31)"/>
<path d="M0 0 C3 1 3 1 3 1 Z " fill="#FF0046" transform="translate(674,29)"/>
<path d="M0 0 C3 1 3 1 3 1 Z " fill="#FF0046" transform="translate(323,29)"/>
<path d="M0 0 C3 1 3 1 3 1 Z " fill="#94003F" transform="translate(328,27)"/>
<path d="M0 0 C3 1 3 1 3 1 Z " fill="#E20038" transform="translate(666,26)"/>
<path d="M0 0 C3 1 3 1 3 1 Z " fill="#C60038" transform="translate(331,26)"/>
<path d="M0 0 C3 1 3 1 3 1 Z " fill="#E20038" transform="translate(663,25)"/>
<path d="M0 0 C3 1 3 1 3 1 Z " fill="#E20038" transform="translate(334,25)"/>
<path d="M0 0 C3 1 3 1 3 1 Z " fill="#E20038" transform="translate(660,24)"/>
<path d="M0 0 C3 1 3 1 3 1 Z " fill="#FF0046" transform="translate(337,24)"/>
<path d="M0 0 C3 1 3 1 3 1 Z " fill="#E20038" transform="translate(657,23)"/>
<path d="M0 0 C3 1 3 1 3 1 Z " fill="#E9003F" transform="translate(340,23)"/>
<path d="M0 0 C3 1 3 1 3 1 Z " fill="#E20038" transform="translate(654,22)"/>
<path d="M0 0 C3 1 3 1 3 1 Z " fill="#CD0031" transform="translate(343,22)"/>
<path d="M0 0 C3 1 3 1 3 1 Z " fill="#E20038" transform="translate(651,21)"/>
<path d="M0 0 C3 1 3 1 3 1 Z " fill="#E20038" transform="translate(346,21)"/>
<path d="M0 0 C3 1 3 1 3 1 Z " fill="#E20038" transform="translate(648,20)"/>
<path d="M0 0 C3 1 3 1 3 1 Z " fill="#E20038" transform="translate(349,20)"/>
<path d="M0 0 C3 1 3 1 3 1 Z " fill="#BF0069" transform="translate(641,18)"/>
<path d="M0 0 C3 1 3 1 3 1 Z " fill="#E90069" transform="translate(356,18)"/>
<path d="M0 0 C3 1 3 1 3 1 Z " fill="#CD0031" transform="translate(638,17)"/>
<path d="M0 0 C3 1 3 1 3 1 Z " fill="#CD0031" transform="translate(359,17)"/>
<path d="M0 0 C3 1 3 1 3 1 Z " fill="#BF0031" transform="translate(627,14)"/>
<path d="M0 0 C3 1 3 1 3 1 Z " fill="#D40063" transform="translate(370,14)"/>
<path d="M0 0 C2 1 2 1 2 1 Z " fill="#DF005F" transform="translate(654,977)"/>
<path d="M0 0 C2 1 2 1 2 1 Z " fill="#DF005F" transform="translate(657,976)"/>
<path d="M0 0 C2 1 2 1 2 1 Z " fill="#DF005F" transform="translate(341,976)"/>
<path d="M0 0 C2 1 2 1 2 1 Z " fill="#DF005F" transform="translate(660,975)"/>
<path d="M0 0 C2 1 2 1 2 1 Z " fill="#DF005F" transform="translate(338,975)"/>
<path d="M0 0 C2 1 2 1 2 1 Z " fill="#DF005F" transform="translate(335,974)"/>
<path d="M0 0 C2 1 2 1 2 1 Z " fill="#DF005F" transform="translate(674,970)"/>
<path d="M0 0 C2 1 2 1 2 1 Z " fill="#DF005F" transform="translate(324,970)"/>
<path d="M0 0 C2 1 2 1 2 1 Z " fill="#9F005F" transform="translate(682,967)"/>
<path d="M0 0 C2 1 2 1 2 1 Z " fill="#9F005F" transform="translate(316,967)"/>
<path d="M0 0 C2 1 2 1 2 1 Z " fill="#9F001F" transform="translate(687,965)"/>
<path d="M0 0 C2 1 2 1 2 1 Z " fill="#9F005F" transform="translate(311,965)"/>
<path d="M0 0 C2 1 2 1 2 1 Z " fill="#AA0055" transform="translate(689,964)"/>
<path d="M0 0 C2 1 2 1 2 1 Z " fill="#AA0055" transform="translate(309,964)"/>
<path d="M0 0 C2 1 2 1 2 1 Z " fill="#DF001F" transform="translate(692,963)"/>
<path d="M0 0 C2 1 2 1 2 1 Z " fill="#DF001F" transform="translate(306,963)"/>
<path d="M0 0 C2 1 2 1 2 1 Z " fill="#FF006A" transform="translate(694,962)"/>
<path d="M0 0 C2 1 2 1 2 1 Z " fill="#FF006A" transform="translate(304,962)"/>
<path d="M0 0 C2 1 2 1 2 1 Z " fill="#DF001F" transform="translate(699,960)"/>
<path d="M0 0 C2 1 2 1 2 1 Z " fill="#DF001F" transform="translate(299,960)"/>
<path d="M0 0 C2 1 2 1 2 1 Z " fill="#BF006A" transform="translate(701,959)"/>
<path d="M0 0 C2 1 2 1 2 1 Z " fill="#BF006A" transform="translate(297,959)"/>
<path d="M0 0 C2 1 2 1 2 1 Z " fill="#D4006A" transform="translate(703,958)"/>
<path d="M0 0 C2 1 2 1 2 1 Z " fill="#AA0055" transform="translate(295,958)"/>
<path d="M0 0 C2 1 2 1 2 1 Z " fill="#D4002A" transform="translate(705,957)"/>
<path d="M0 0 C2 1 2 1 2 1 Z " fill="#FF002A" transform="translate(708,956)"/>
<path d="M0 0 C2 1 2 1 2 1 Z " fill="#FF002A" transform="translate(290,956)"/>
<path d="M0 0 C2 1 2 1 2 1 Z " fill="#DF001F" transform="translate(710,955)"/>
<path d="M0 0 C2 1 2 1 2 1 Z " fill="#DF001F" transform="translate(288,955)"/>
<path d="M0 0 C2 1 2 1 2 1 Z " fill="#DF001F" transform="translate(712,954)"/>
<path d="M0 0 C2 1 2 1 2 1 Z " fill="#BF006A" transform="translate(286,954)"/>
<path d="M0 0 C2 1 2 1 2 1 Z " fill="#BF006A" transform="translate(714,953)"/>
<path d="M0 0 C2 1 2 1 2 1 Z " fill="#BF006A" transform="translate(284,953)"/>
<path d="M0 0 C2 1 2 1 2 1 Z " fill="#D4006A" transform="translate(716,952)"/>
<path d="M0 0 C2 1 2 1 2 1 Z " fill="#D4006A" transform="translate(282,952)"/>
<path d="M0 0 C2 1 2 1 2 1 Z " fill="#D4006A" transform="translate(718,951)"/>
<path d="M0 0 C2 1 2 1 2 1 Z " fill="#D4006A" transform="translate(280,951)"/>
<path d="M0 0 C2 1 2 1 2 1 Z " fill="#D4006A" transform="translate(720,950)"/>
<path d="M0 0 C2 1 2 1 2 1 Z " fill="#FF007F" transform="translate(278,950)"/>
<path d="M0 0 C2 1 2 1 2 1 Z " fill="#D4006A" transform="translate(722,949)"/>
<path d="M0 0 C2 1 2 1 2 1 Z " fill="#D4006A" transform="translate(276,949)"/>
<path d="M0 0 C2 1 2 1 2 1 Z " fill="#D4006A" transform="translate(724,948)"/>
<path d="M0 0 C2 1 2 1 2 1 Z " fill="#FF007F" transform="translate(274,948)"/>
<path d="M0 0 C2 1 2 1 2 1 Z " fill="#D4006A" transform="translate(726,947)"/>
<path d="M0 0 C2 1 2 1 2 1 Z " fill="#FF007F" transform="translate(272,947)"/>
<path d="M0 0 C2 1 2 1 2 1 Z " fill="#94006A" transform="translate(728,946)"/>
<path d="M0 0 C2 1 2 1 2 1 Z " fill="#D4006A" transform="translate(270,946)"/>
<path d="M0 0 C2 1 2 1 2 1 Z " fill="#BF006A" transform="translate(730,945)"/>
<path d="M0 0 C2 1 2 1 2 1 Z " fill="#94006A" transform="translate(268,945)"/>
<path d="M0 0 C2 1 2 1 2 1 Z " fill="#FF002A" transform="translate(732,944)"/>
<path d="M0 0 C2 1 2 1 2 1 Z " fill="#BF002A" transform="translate(266,944)"/>
<path d="M0 0 C2 1 2 1 2 1 Z " fill="#DF001F" transform="translate(734,943)"/>
<path d="M0 0 C2 1 2 1 2 1 Z " fill="#FF002A" transform="translate(264,943)"/>
<path d="M0 0 C2 1 2 1 2 1 Z " fill="#5F001F" transform="translate(736,942)"/>
<path d="M0 0 C2 1 2 1 2 1 Z " fill="#DF001F" transform="translate(262,942)"/>
<path d="M0 0 C2 1 2 1 2 1 Z " fill="#D4002A" transform="translate(739,940)"/>
<path d="M0 0 C2 1 2 1 2 1 Z " fill="#FF007F" transform="translate(741,939)"/>
<path d="M0 0 C2 1 2 1 2 1 Z " fill="#BF007F" transform="translate(257,939)"/>
<path d="M0 0 C2 1 2 1 2 1 Z " fill="#FF002A" transform="translate(743,938)"/>
<path d="M0 0 C2 1 2 1 2 1 Z " fill="#94002A" transform="translate(255,938)"/>
<path d="M0 0 C2 1 2 1 2 1 Z " fill="#DF001F" transform="translate(745,937)"/>
<path d="M0 0 C2 1 2 1 2 1 Z " fill="#DF001F" transform="translate(253,937)"/>
<path d="M0 0 C2 1 2 1 2 1 Z " fill="#FF00BF" transform="translate(748,935)"/>
<path d="M0 0 C2 1 2 1 2 1 Z " fill="#FF003F" transform="translate(250,935)"/>
<path d="M0 0 C2 1 2 1 2 1 Z " fill="#FF002A" transform="translate(750,934)"/>
<path d="M0 0 C2 1 2 1 2 1 Z " fill="#FF002A" transform="translate(248,934)"/>
<path d="M0 0 C2 1 2 1 2 1 Z " fill="#DF001F" transform="translate(246,933)"/>
<path d="M0 0 C2 1 2 1 2 1 Z " fill="#94006A" transform="translate(755,931)"/>
<path d="M0 0 C2 1 2 1 2 1 Z " fill="#94006A" transform="translate(243,931)"/>
<path d="M0 0 C2 1 2 1 2 1 Z " fill="#5F001F" transform="translate(757,930)"/>
<path d="M0 0 C2 1 2 1 2 1 Z " fill="#FF002A" transform="translate(241,930)"/>
<path d="M0 0 C2 1 2 1 2 1 Z " fill="#D4002A" transform="translate(760,928)"/>
<path d="M0 0 C2 1 2 1 2 1 Z " fill="#94002A" transform="translate(238,928)"/>
<path d="M0 0 C2 1 2 1 2 1 Z " fill="#FF003F" transform="translate(763,926)"/>
<path d="M0 0 C2 1 2 1 2 1 Z " fill="#FF002A" transform="translate(765,925)"/>
<path d="M0 0 C2 1 2 1 2 1 Z " fill="#FF002A" transform="translate(233,925)"/>
<path d="M0 0 C2 1 2 1 2 1 Z " fill="#D4002A" transform="translate(768,923)"/>
<path d="M0 0 C2 1 2 1 2 1 Z " fill="#94002A" transform="translate(230,923)"/>
<path d="M0 0 C2 1 2 1 2 1 Z " fill="#BF003F" transform="translate(771,921)"/>
<path d="M0 0 C2 1 2 1 2 1 Z " fill="#BF007F" transform="translate(227,921)"/>
<path d="M0 0 C2 1 2 1 2 1 Z " fill="#BF007F" transform="translate(774,919)"/>
<path d="M0 0 C2 1 2 1 2 1 Z " fill="#FF003F" transform="translate(224,919)"/>
<path d="M0 0 C2 1 2 1 2 1 Z " fill="#BF007F" transform="translate(777,917)"/>
<path d="M0 0 C2 1 2 1 2 1 Z " fill="#7F007F" transform="translate(780,915)"/>
<path d="M0 0 C2 1 2 1 2 1 Z " fill="#BF00BF" transform="translate(218,915)"/>
<path d="M0 0 C2 1 2 1 2 1 Z " fill="#D4002A" transform="translate(783,913)"/>
<path d="M0 0 C2 1 2 1 2 1 Z " fill="#BF007F" transform="translate(215,913)"/>
<path d="M0 0 C2 1 2 1 2 1 Z " fill="#FF002A" transform="translate(786,911)"/>
<path d="M0 0 C2 1 2 1 2 1 Z " fill="#FF002A" transform="translate(212,911)"/>
<path d="M0 0 C2 1 2 1 2 1 Z " fill="#7F003F" transform="translate(790,908)"/>
<path d="M0 0 C2 1 2 1 2 1 Z " fill="#FF002A" transform="translate(793,906)"/>
<path d="M0 0 C2 1 2 1 2 1 Z " fill="#FF002A" transform="translate(205,906)"/>
<path d="M0 0 C2 1 2 1 2 1 Z " fill="#D4002A" transform="translate(797,903)"/>
<path d="M0 0 C2 1 2 1 2 1 Z " fill="#D4002A" transform="translate(201,903)"/>
<path d="M0 0 C2 1 2 1 2 1 Z " fill="#D4002A" transform="translate(801,900)"/>
<path d="M0 0 C2 1 2 1 2 1 Z " fill="#D4002A" transform="translate(197,900)"/>
<path d="M0 0 C2 1 2 1 2 1 Z " fill="#FF002A" transform="translate(805,897)"/>
<path d="M0 0 C2 1 2 1 2 1 Z " fill="#FF002A" transform="translate(193,897)"/>
<path d="M0 0 C2 1 2 1 2 1 Z " fill="#D4002A" transform="translate(810,893)"/>
<path d="M0 0 C2 1 2 1 2 1 Z " fill="#FF003F" transform="translate(188,893)"/>
<path d="M0 0 C2 1 2 1 2 1 Z " fill="#D4002A" transform="translate(815,889)"/>
<path d="M0 0 C2 1 2 1 2 1 Z " fill="#FF003F" transform="translate(183,889)"/>
<path d="M0 0 C2 1 2 1 2 1 Z " fill="#FF003F" transform="translate(821,884)"/>
<path d="" fill="#D4006A" transform="translate(0,0)"/>
<path d="" fill="#AA0055" transform="translate(0,0)"/>
<path d="" fill="#AA0055" transform="translate(0,0)"/>
<path d="" fill="#AA0055" transform="translate(0,0)"/>
<path d="" fill="#D4006A" transform="translate(0,0)"/>
<path d="" fill="#D4006A" transform="translate(0,0)"/>
<path d="" fill="#D4006A" transform="translate(0,0)"/>
<path d="" fill="#FF006A" transform="translate(0,0)"/>
<path d="" fill="#FF006A" transform="translate(0,0)"/>
<path d="" fill="#D4006A" transform="translate(0,0)"/>
<path d="" fill="#FF006A" transform="translate(0,0)"/>
<path d="" fill="#D4006A" transform="translate(0,0)"/>
<path d="" fill="#D4006A" transform="translate(0,0)"/>
<path d="" fill="#FF006A" transform="translate(0,0)"/>
<path d="" fill="#AA0055" transform="translate(0,0)"/>
<path d="" fill="#AA0055" transform="translate(0,0)"/>
<path d="" fill="#B4004A" transform="translate(0,0)"/>
<path d="" fill="#DF005F" transform="translate(0,0)"/>
<path d="" fill="#D40055" transform="translate(0,0)"/>
<path d="" fill="#B4004A" transform="translate(0,0)"/>
<path d="" fill="#B4004A" transform="translate(0,0)"/>
<path d="" fill="#B4004A" transform="translate(0,0)"/>
<path d="" fill="#D40055" transform="translate(0,0)"/>
<path d="" fill="#AA0055" transform="translate(0,0)"/>
<path d="" fill="#D40055" transform="translate(0,0)"/>
<path d="" fill="#AA0055" transform="translate(0,0)"/>
<path d="" fill="#AA0055" transform="translate(0,0)"/>
<path d="" fill="#FF006A" transform="translate(0,0)"/>
<path d="" fill="#FF002A" transform="translate(0,0)"/>
<path d="" fill="#AA0055" transform="translate(0,0)"/>
<path d="" fill="#D4006A" transform="translate(0,0)"/>
<path d="M0 0 C2 1 2 1 2 1 Z " fill="#FF003F" transform="translate(179,113)"/>
<path d="M0 0 C2 1 2 1 2 1 Z " fill="#FF003F" transform="translate(809,105)"/>
<path d="M0 0 C2 1 2 1 2 1 Z " fill="#FF002A" transform="translate(804,101)"/>
<path d="M0 0 C2 1 2 1 2 1 Z " fill="#D4002A" transform="translate(194,101)"/>
<path d="M0 0 C2 1 2 1 2 1 Z " fill="#D4002A" transform="translate(800,98)"/>
<path d="M0 0 C2 1 2 1 2 1 Z " fill="#FF003F" transform="translate(198,98)"/>
<path d="M0 0 C2 1 2 1 2 1 Z " fill="#D4002A" transform="translate(796,95)"/>
<path d="M0 0 C2 1 2 1 2 1 Z " fill="#D4002A" transform="translate(202,95)"/>
<path d="M0 0 C2 1 2 1 2 1 Z " fill="#DF001F" transform="translate(792,92)"/>
<path d="M0 0 C2 1 2 1 2 1 Z " fill="#FF002A" transform="translate(206,92)"/>
<path d="M0 0 C2 1 2 1 2 1 Z " fill="#BF003F" transform="translate(789,90)"/>
<path d="M0 0 C2 1 2 1 2 1 Z " fill="#7F003F" transform="translate(209,90)"/>
<path d="M0 0 C2 1 2 1 2 1 Z " fill="#5F001F" transform="translate(785,87)"/>
<path d="M0 0 C2 1 2 1 2 1 Z " fill="#DF001F" transform="translate(213,87)"/>
<path d="M0 0 C2 1 2 1 2 1 Z " fill="#FF002A" transform="translate(782,85)"/>
<path d="M0 0 C2 1 2 1 2 1 Z " fill="#D4002A" transform="translate(216,85)"/>
<path d="M0 0 C2 1 2 1 2 1 Z " fill="#D4002A" transform="translate(779,83)"/>
<path d="M0 0 C2 1 2 1 2 1 Z " fill="#BF003F" transform="translate(219,83)"/>
<path d="M0 0 C2 1 2 1 2 1 Z " fill="#D4002A" transform="translate(776,81)"/>
<path d="M0 0 C2 1 2 1 2 1 Z " fill="#BF003F" transform="translate(222,81)"/>
<path d="M0 0 C2 1 2 1 2 1 Z " fill="#D4002A" transform="translate(773,79)"/>
<path d="M0 0 C2 1 2 1 2 1 Z " fill="#94002A" transform="translate(225,79)"/>
<path d="M0 0 C2 1 2 1 2 1 Z " fill="#DF001F" transform="translate(770,77)"/>
<path d="M0 0 C2 1 2 1 2 1 Z " fill="#FF002A" transform="translate(228,77)"/>
<path d="M0 0 C2 1 2 1 2 1 Z " fill="#5F001F" transform="translate(767,75)"/>
<path d="M0 0 C2 1 2 1 2 1 Z " fill="#FF002A" transform="translate(231,75)"/>
<path d="M0 0 C2 1 2 1 2 1 Z " fill="#FF003F" transform="translate(765,74)"/>
<path d="M0 0 C2 1 2 1 2 1 Z " fill="#D4002A" transform="translate(762,72)"/>
<path d="M0 0 C2 1 2 1 2 1 Z " fill="#94002A" transform="translate(236,72)"/>
<path d="M0 0 C2 1 2 1 2 1 Z " fill="#5F001F" transform="translate(759,70)"/>
<path d="M0 0 C2 1 2 1 2 1 Z " fill="#DF001F" transform="translate(239,70)"/>
<path d="M0 0 C2 1 2 1 2 1 Z " fill="#94006A" transform="translate(757,69)"/>
<path d="M0 0 C2 1 2 1 2 1 Z " fill="#FF007F" transform="translate(241,69)"/>
<path d="M0 0 C2 1 2 1 2 1 Z " fill="#DF001F" transform="translate(754,67)"/>
<path d="M0 0 C2 1 2 1 2 1 Z " fill="#DF001F" transform="translate(244,67)"/>
<path d="M0 0 C2 1 2 1 2 1 Z " fill="#94006A" transform="translate(752,66)"/>
<path d="M0 0 C2 1 2 1 2 1 Z " fill="#BF007F" transform="translate(246,66)"/>
<path d="M0 0 C2 1 2 1 2 1 Z " fill="#7F002A" transform="translate(249,64)"/>
<path d="M0 0 C2 1 2 1 2 1 Z " fill="#FF002A" transform="translate(747,63)"/>
<path d="M0 0 C2 1 2 1 2 1 Z " fill="#D4002A" transform="translate(251,63)"/>
<path d="M0 0 C2 1 2 1 2 1 Z " fill="#94006A" transform="translate(745,62)"/>
<path d="M0 0 C2 1 2 1 2 1 Z " fill="#FF007F" transform="translate(253,62)"/>
<path d="M0 0 C2 1 2 1 2 1 Z " fill="#D4002A" transform="translate(743,61)"/>
<path d="M0 0 C2 1 2 1 2 1 Z " fill="#7F002A" transform="translate(256,60)"/>
<path d="M0 0 C2 1 2 1 2 1 Z " fill="#FF002A" transform="translate(740,59)"/>
<path d="M0 0 C2 1 2 1 2 1 Z " fill="#FF002A" transform="translate(258,59)"/>
<path d="M0 0 C2 1 2 1 2 1 Z " fill="#FF002A" transform="translate(738,58)"/>
<path d="M0 0 C2 1 2 1 2 1 Z " fill="#94002A" transform="translate(260,58)"/>
<path d="M0 0 C2 1 2 1 2 1 Z " fill="#94006A" transform="translate(736,57)"/>
<path d="M0 0 C2 1 2 1 2 1 Z " fill="#D4006A" transform="translate(262,57)"/>
<path d="M0 0 C2 1 2 1 2 1 Z " fill="#FF007F" transform="translate(734,56)"/>
<path d="M0 0 C2 1 2 1 2 1 Z " fill="#D4002A" transform="translate(264,56)"/>
<path d="M0 0 C2 1 2 1 2 1 Z " fill="#D4002A" transform="translate(732,55)"/>
<path d="M0 0 C2 1 2 1 2 1 Z " fill="#D4002A" transform="translate(266,55)"/>
<path d="M0 0 C2 1 2 1 2 1 Z " fill="#55002A" transform="translate(730,54)"/>
<path d="M0 0 C2 1 2 1 2 1 Z " fill="#7F002A" transform="translate(727,52)"/>
<path d="M0 0 C2 1 2 1 2 1 Z " fill="#FF002A" transform="translate(271,52)"/>
<path d="M0 0 C2 1 2 1 2 1 Z " fill="#7F002A" transform="translate(725,51)"/>
<path d="M0 0 C2 1 2 1 2 1 Z " fill="#DF001F" transform="translate(273,51)"/>
<path d="M0 0 C2 1 2 1 2 1 Z " fill="#FF002A" transform="translate(723,50)"/>
<path d="M0 0 C2 1 2 1 2 1 Z " fill="#FF002A" transform="translate(275,50)"/>
<path d="M0 0 C2 1 2 1 2 1 Z " fill="#FF002A" transform="translate(721,49)"/>
<path d="M0 0 C2 1 2 1 2 1 Z " fill="#FF002A" transform="translate(277,49)"/>
<path d="M0 0 C2 1 2 1 2 1 Z " fill="#7F002A" transform="translate(719,48)"/>
<path d="M0 0 C2 1 2 1 2 1 Z " fill="#FF002A" transform="translate(279,48)"/>
<path d="M0 0 C2 1 2 1 2 1 Z " fill="#7F002A" transform="translate(717,47)"/>
<path d="M0 0 C2 1 2 1 2 1 Z " fill="#FF002A" transform="translate(281,47)"/>
<path d="M0 0 C2 1 2 1 2 1 Z " fill="#D4002A" transform="translate(714,46)"/>
<path d="M0 0 C2 1 2 1 2 1 Z " fill="#55002A" transform="translate(283,46)"/>
<path d="M0 0 C2 1 2 1 2 1 Z " fill="#D4006A" transform="translate(712,45)"/>
<path d="M0 0 C2 1 2 1 2 1 Z " fill="#D4002A" transform="translate(286,45)"/>
<path d="M0 0 C2 1 2 1 2 1 Z " fill="#D4006A" transform="translate(710,44)"/>
<path d="M0 0 C2 1 2 1 2 1 Z " fill="#D4006A" transform="translate(288,44)"/>
<path d="M0 0 C2 1 2 1 2 1 Z " fill="#BF006A" transform="translate(708,43)"/>
<path d="M0 0 C2 1 2 1 2 1 Z " fill="#D4006A" transform="translate(290,43)"/>
<path d="M0 0 C2 1 2 1 2 1 Z " fill="#FF002A" transform="translate(706,42)"/>
<path d="M0 0 C2 1 2 1 2 1 Z " fill="#BF006A" transform="translate(292,42)"/>
<path d="M0 0 C2 1 2 1 2 1 Z " fill="#DF001F" transform="translate(704,41)"/>
<path d="M0 0 C2 1 2 1 2 1 Z " fill="#DF001F" transform="translate(294,41)"/>
<path d="M0 0 C2 1 2 1 2 1 Z " fill="#D4006A" transform="translate(699,39)"/>
<path d="M0 0 C2 1 2 1 2 1 Z " fill="#AA0055" transform="translate(299,39)"/>
<path d="M0 0 C2 1 2 1 2 1 Z " fill="#DF001F" transform="translate(697,38)"/>
<path d="M0 0 C2 1 2 1 2 1 Z " fill="#9F005F" transform="translate(301,38)"/>
<path d="M0 0 C2 1 2 1 2 1 Z " fill="#FF006A" transform="translate(692,36)"/>
<path d="M0 0 C2 1 2 1 2 1 Z " fill="#D4006A" transform="translate(306,36)"/>
<path d="M0 0 C2 1 2 1 2 1 Z " fill="#DF001F" transform="translate(690,35)"/>
<path d="M0 0 C2 1 2 1 2 1 Z " fill="#DF001F" transform="translate(308,35)"/>
<path d="M0 0 C2 1 2 1 2 1 Z " fill="#9F001F" transform="translate(685,33)"/>
<path d="M0 0 C2 1 2 1 2 1 Z " fill="#9F005F" transform="translate(313,33)"/>
<path d="M0 0 C2 1 2 1 2 1 Z " fill="#9F001F" transform="translate(318,31)"/>
<path d="M0 0 C2 1 2 1 2 1 Z " fill="#DF005F" transform="translate(677,30)"/>
<path d="M0 0 C2 1 2 1 2 1 Z " fill="#D40055" transform="translate(321,30)"/>
<path d="M0 0 C2 1 2 1 2 1 Z " fill="#9F005F" transform="translate(672,28)"/>
<path d="M0 0 C2 1 2 1 2 1 Z " fill="#9F005F" transform="translate(326,28)"/>
<path d="M0 0 C2 1 2 1 2 1 Z " fill="#DF005F" transform="translate(669,27)"/>
<path d="" fill="#FF0055" transform="translate(0,0)"/>
<path d="" fill="#FF0055" transform="translate(0,0)"/>
<path d="" fill="#AA0055" transform="translate(0,0)"/>
<path d="" fill="#AA0055" transform="translate(0,0)"/>
<path d="" fill="#FF0055" transform="translate(0,0)"/>
<path d="" fill="#BF003F" transform="translate(0,0)"/>
<path d="" fill="#AA0055" transform="translate(0,0)"/>
<path d="" fill="#AA0055" transform="translate(0,0)"/>
<path d="" fill="#AA0055" transform="translate(0,0)"/>
<path d="" fill="#AA0055" transform="translate(0,0)"/>
<path d="" fill="#BF003F" transform="translate(0,0)"/>
<path d="" fill="#BF003F" transform="translate(0,0)"/>
<path d="" fill="#AA0055" transform="translate(0,0)"/>
<path d="" fill="#AA0055" transform="translate(0,0)"/>
<path d="" fill="#FF0055" transform="translate(0,0)"/>
<path d="" fill="#BF003F" transform="translate(0,0)"/>
<path d="" fill="#BF003F" transform="translate(0,0)"/>
<path d="" fill="#BF003F" transform="translate(0,0)"/>
<path d="" fill="#BF003F" transform="translate(0,0)"/>
<path d="" fill="#BF003F" transform="translate(0,0)"/>
<path d="" fill="#BF003F" transform="translate(0,0)"/>
<path d="" fill="#BF003F" transform="translate(0,0)"/>
<path d="" fill="#FF0055" transform="translate(0,0)"/>
<path d="" fill="#BF003F" transform="translate(0,0)"/>
<path d="" fill="#AA0055" transform="translate(0,0)"/>
<path d="" fill="#BF003F" transform="translate(0,0)"/>
<path d="" fill="#AA0055" transform="translate(0,0)"/>
<path d="" fill="#AA0055" transform="translate(0,0)"/>
<path d="" fill="#BF003F" transform="translate(0,0)"/>
<path d="" fill="#BF003F" transform="translate(0,0)"/>
<path d="" fill="#BF003F" transform="translate(0,0)"/>
<path d="" fill="#FF007F" transform="translate(0,0)"/>
<path d="" fill="#AA0055" transform="translate(0,0)"/>
<path d="" fill="#BF003F" transform="translate(0,0)"/>
<path d="" fill="#BF003F" transform="translate(0,0)"/>
<path d="" fill="#AA0055" transform="translate(0,0)"/>
<path d="" fill="#AA0055" transform="translate(0,0)"/>
<path d="" fill="#BF003F" transform="translate(0,0)"/>
<path d="" fill="#BF003F" transform="translate(0,0)"/>
<path d="" fill="#AA0055" transform="translate(0,0)"/>
<path d="" fill="#AA0055" transform="translate(0,0)"/>
<path d="" fill="#BF003F" transform="translate(0,0)"/>
<path d="" fill="#BF003F" transform="translate(0,0)"/>
<path d="" fill="#FF007F" transform="translate(0,0)"/>
<path d="" fill="#FF007F" transform="translate(0,0)"/>
<path d="" fill="#FF0055" transform="translate(0,0)"/>
<path d="" fill="#BF003F" transform="translate(0,0)"/>
<path d="" fill="#BF003F" transform="translate(0,0)"/>
<path d="" fill="#BF003F" transform="translate(0,0)"/>
<path d="" fill="#FF007F" transform="translate(0,0)"/>
<path d="" fill="#AA0055" transform="translate(0,0)"/>
<path d="" fill="#BF003F" transform="translate(0,0)"/>
<path d="" fill="#BF003F" transform="translate(0,0)"/>
<path d="" fill="#BF003F" transform="translate(0,0)"/>
<path d="" fill="#BF003F" transform="translate(0,0)"/>
<path d="" fill="#FF007F" transform="translate(0,0)"/>
<path d="" fill="#AA0055" transform="translate(0,0)"/>
<path d="" fill="#FF0055" transform="translate(0,0)"/>
<path d="" fill="#BF003F" transform="translate(0,0)"/>
<path d="" fill="#BF003F" transform="translate(0,0)"/>
<path d="" fill="#BF003F" transform="translate(0,0)"/>
<path d="" fill="#BF003F" transform="translate(0,0)"/>
<path d="" fill="#FF007F" transform="translate(0,0)"/>
<path d="" fill="#AA0055" transform="translate(0,0)"/>
<path d="" fill="#AA0055" transform="translate(0,0)"/>
<path d="" fill="#FF0055" transform="translate(0,0)"/>
<path d="" fill="#BF003F" transform="translate(0,0)"/>
<path d="" fill="#BF003F" transform="translate(0,0)"/>
<path d="" fill="#BF003F" transform="translate(0,0)"/>
<path d="" fill="#BF003F" transform="translate(0,0)"/>
<path d="" fill="#7F007F" transform="translate(0,0)"/>
<path d="" fill="#FF007F" transform="translate(0,0)"/>
<path d="" fill="#AA0055" transform="translate(0,0)"/>
<path d="" fill="#AA0055" transform="translate(0,0)"/>
<path d="" fill="#BF003F" transform="translate(0,0)"/>
<path d="" fill="#BF003F" transform="translate(0,0)"/>
<path d="" fill="#BF003F" transform="translate(0,0)"/>
<path d="" fill="#BF003F" transform="translate(0,0)"/>
<path d="" fill="#BF003F" transform="translate(0,0)"/>
<path d="" fill="#BF003F" transform="translate(0,0)"/>
<path d="" fill="#BF003F" transform="translate(0,0)"/>
<path d="" fill="#BF003F" transform="translate(0,0)"/>
<path d="" fill="#FF0000" transform="translate(0,0)"/>
<path d="" fill="#FF007F" transform="translate(0,0)"/>
<path d="" fill="#AA0055" transform="translate(0,0)"/>
<path d="" fill="#AA0055" transform="translate(0,0)"/>
<path d="" fill="#AA0055" transform="translate(0,0)"/>
<path d="" fill="#AA0055" transform="translate(0,0)"/>
<path d="" fill="#FF0055" transform="translate(0,0)"/>
<path d="" fill="#BF003F" transform="translate(0,0)"/>
<path d="" fill="#BF003F" transform="translate(0,0)"/>
<path d="" fill="#BF003F" transform="translate(0,0)"/>
<path d="" fill="#BF003F" transform="translate(0,0)"/>
<path d="" fill="#BF003F" transform="translate(0,0)"/>
<path d="" fill="#BF003F" transform="translate(0,0)"/>
<path d="" fill="#BF003F" transform="translate(0,0)"/>
<path d="" fill="#BF003F" transform="translate(0,0)"/>
<path d="" fill="#BF003F" transform="translate(0,0)"/>
<path d="" fill="#BF003F" transform="translate(0,0)"/>
<path d="" fill="#990033" transform="translate(0,0)"/>
<path d="" fill="#FF003F" transform="translate(0,0)"/>
<path d="" fill="#990033" transform="translate(0,0)"/>
<path d="" fill="#BF003F" transform="translate(0,0)"/>
<path d="" fill="#BF003F" transform="translate(0,0)"/>
<path d="" fill="#BF003F" transform="translate(0,0)"/>
<path d="" fill="#BF003F" transform="translate(0,0)"/>
<path d="" fill="#990033" transform="translate(0,0)"/>
<path d="" fill="#FF003F" transform="translate(0,0)"/>
<path d="" fill="#FF003F" transform="translate(0,0)"/>
<path d="" fill="#BF003F" transform="translate(0,0)"/>
<path d="" fill="#990033" transform="translate(0,0)"/>
<path d="" fill="#BF003F" transform="translate(0,0)"/>
<path d="" fill="#BF003F" transform="translate(0,0)"/>
<path d="" fill="#BF003F" transform="translate(0,0)"/>
<path d="" fill="#BF003F" transform="translate(0,0)"/>
<path d="" fill="#CC0033" transform="translate(0,0)"/>
<path d="" fill="#BF003F" transform="translate(0,0)"/>
<path d="" fill="#990033" transform="translate(0,0)"/>
<path d="" fill="#BF003F" transform="translate(0,0)"/>
<path d="" fill="#BF003F" transform="translate(0,0)"/>
<path d="" fill="#FF003F" transform="translate(0,0)"/>
<path d="" fill="#BF003F" transform="translate(0,0)"/>
<path d="" fill="#BF003F" transform="translate(0,0)"/>
<path d="" fill="#BF003F" transform="translate(0,0)"/>
<path d="" fill="#BF003F" transform="translate(0,0)"/>
<path d="" fill="#BF003F" transform="translate(0,0)"/>
<path d="" fill="#BF003F" transform="translate(0,0)"/>
<path d="" fill="#BF003F" transform="translate(0,0)"/>
<path d="" fill="#BF003F" transform="translate(0,0)"/>
<path d="" fill="#BF003F" transform="translate(0,0)"/>
<path d="" fill="#BF003F" transform="translate(0,0)"/>
<path d="" fill="#BF003F" transform="translate(0,0)"/>
<path d="" fill="#FF0055" transform="translate(0,0)"/>
<path d="" fill="#BF003F" transform="translate(0,0)"/>
<path d="" fill="#FF0055" transform="translate(0,0)"/>
<path d="" fill="#FF0055" transform="translate(0,0)"/>
<path d="" fill="#AA0055" transform="translate(0,0)"/>
<path d="" fill="#AA0055" transform="translate(0,0)"/>
<path d="" fill="#FF007F" transform="translate(0,0)"/>
<path d="" fill="#FF003F" transform="translate(0,0)"/>
<path d="" fill="#CC0033" transform="translate(0,0)"/>
<path d="" fill="#CC0033" transform="translate(0,0)"/>
<path d="" fill="#BF003F" transform="translate(0,0)"/>
<path d="" fill="#BF003F" transform="translate(0,0)"/>
<path d="" fill="#BF003F" transform="translate(0,0)"/>
<path d="" fill="#BF003F" transform="translate(0,0)"/>
<path d="" fill="#AA0055" transform="translate(0,0)"/>
<path d="" fill="#AA0055" transform="translate(0,0)"/>
<path d="" fill="#BF003F" transform="translate(0,0)"/>
<path d="" fill="#FF003F" transform="translate(0,0)"/>
<path d="" fill="#BF003F" transform="translate(0,0)"/>
<path d="" fill="#BF003F" transform="translate(0,0)"/>
<path d="" fill="#AA0055" transform="translate(0,0)"/>
<path d="" fill="#7F003F" transform="translate(0,0)"/>
<path d="" fill="#BF003F" transform="translate(0,0)"/>
<path d="" fill="#BF003F" transform="translate(0,0)"/>
<path d="" fill="#FF0055" transform="translate(0,0)"/>
<path d="" fill="#BF003F" transform="translate(0,0)"/>
<path d="" fill="#BF003F" transform="translate(0,0)"/>
<path d="" fill="#BF003F" transform="translate(0,0)"/>
<path d="" fill="#BF003F" transform="translate(0,0)"/>
<path d="" fill="#7F003F" transform="translate(0,0)"/>
<path d="" fill="#BF003F" transform="translate(0,0)"/>
<path d="" fill="#BF003F" transform="translate(0,0)"/>
<path d="" fill="#BF003F" transform="translate(0,0)"/>
<path d="" fill="#BF003F" transform="translate(0,0)"/>
<path d="" fill="#AA0055" transform="translate(0,0)"/>
<path d="" fill="#BF003F" transform="translate(0,0)"/>
<path d="" fill="#BF003F" transform="translate(0,0)"/>
<path d="" fill="#BF003F" transform="translate(0,0)"/>
<path d="" fill="#BF003F" transform="translate(0,0)"/>
<path d="" fill="#BF003F" transform="translate(0,0)"/>
<path d="" fill="#BF003F" transform="translate(0,0)"/>
<path d="" fill="#BF003F" transform="translate(0,0)"/>
<path d="" fill="#BF003F" transform="translate(0,0)"/>
<path d="" fill="#FF0055" transform="translate(0,0)"/>
<path d="" fill="#BF003F" transform="translate(0,0)"/>
<path d="" fill="#BF003F" transform="translate(0,0)"/>
<path d="" fill="#BF003F" transform="translate(0,0)"/>
<path d="" fill="#BF003F" transform="translate(0,0)"/>
<path d="" fill="#BF003F" transform="translate(0,0)"/>
<path d="" fill="#BF003F" transform="translate(0,0)"/>
<path d="" fill="#AA0055" transform="translate(0,0)"/>
<path d="" fill="#AA0055" transform="translate(0,0)"/>
<path d="" fill="#BF003F" transform="translate(0,0)"/>
<path d="" fill="#BF003F" transform="translate(0,0)"/>
<path d="" fill="#BF003F" transform="translate(0,0)"/>
<path d="" fill="#BF003F" transform="translate(0,0)"/>
<path d="" fill="#AA0055" transform="translate(0,0)"/>
<path d="" fill="#AA0055" transform="translate(0,0)"/>
<path d="" fill="#BF003F" transform="translate(0,0)"/>
<path d="" fill="#BF003F" transform="translate(0,0)"/>
<path d="" fill="#BF003F" transform="translate(0,0)"/>
<path d="" fill="#BF003F" transform="translate(0,0)"/>
<path d="" fill="#990033" transform="translate(0,0)"/>
<path d="" fill="#BF003F" transform="translate(0,0)"/>
<path d="" fill="#FF007F" transform="translate(0,0)"/>
<path d="" fill="#AA0055" transform="translate(0,0)"/>
<path d="" fill="#AA0055" transform="translate(0,0)"/>
<path d="" fill="#BF003F" transform="translate(0,0)"/>
<path d="" fill="#BF003F" transform="translate(0,0)"/>
<path d="" fill="#BF003F" transform="translate(0,0)"/>
<path d="" fill="#BF003F" transform="translate(0,0)"/>
<path d="" fill="#BF003F" transform="translate(0,0)"/>
<path d="" fill="#BF003F" transform="translate(0,0)"/>
<path d="" fill="#990033" transform="translate(0,0)"/>
<path d="" fill="#990033" transform="translate(0,0)"/>
<path d="" fill="#BF003F" transform="translate(0,0)"/>
<path d="" fill="#990033" transform="translate(0,0)"/>
<path d="" fill="#BF003F" transform="translate(0,0)"/>
<path d="" fill="#990033" transform="translate(0,0)"/>
<path d="" fill="#BF003F" transform="translate(0,0)"/>
<path d="" fill="#BF003F" transform="translate(0,0)"/>
<path d="" fill="#BF003F" transform="translate(0,0)"/>
<path d="" fill="#BF003F" transform="translate(0,0)"/>
<path d="" fill="#BF003F" transform="translate(0,0)"/>
<path d="" fill="#BF003F" transform="translate(0,0)"/>
<path d="" fill="#BF003F" transform="translate(0,0)"/>
<path d="" fill="#FF003F" transform="translate(0,0)"/>
<path d="" fill="#990033" transform="translate(0,0)"/>
<path d="" fill="#BF003F" transform="translate(0,0)"/>
<path d="" fill="#BF003F" transform="translate(0,0)"/>
<path d="" fill="#BF003F" transform="translate(0,0)"/>
<path d="" fill="#BF003F" transform="translate(0,0)"/>
<path d="" fill="#BF003F" transform="translate(0,0)"/>
<path d="" fill="#BF003F" transform="translate(0,0)"/>
<path d="" fill="#FF0055" transform="translate(0,0)"/>
<path d="" fill="#FF0055" transform="translate(0,0)"/>
<path d="" fill="#AA0055" transform="translate(0,0)"/>
<path d="" fill="#AA0055" transform="translate(0,0)"/>
<path d="" fill="#FF007F" transform="translate(0,0)"/>
<path d="" fill="#FF007F" transform="translate(0,0)"/>
<path d="" fill="#7F007F" transform="translate(0,0)"/>
<path d="" fill="#BF003F" transform="translate(0,0)"/>
<path d="" fill="#BF003F" transform="translate(0,0)"/>
<path d="" fill="#BF003F" transform="translate(0,0)"/>
<path d="" fill="#BF003F" transform="translate(0,0)"/>
<path d="" fill="#BF003F" transform="translate(0,0)"/>
<path d="" fill="#BF003F" transform="translate(0,0)"/>
<path d="" fill="#AA0055" transform="translate(0,0)"/>
<path d="" fill="#FF0055" transform="translate(0,0)"/>
<path d="" fill="#FF007F" transform="translate(0,0)"/>
<path d="" fill="#FF007F" transform="translate(0,0)"/>
<path d="" fill="#BF003F" transform="translate(0,0)"/>
<path d="" fill="#BF003F" transform="translate(0,0)"/>
<path d="" fill="#BF003F" transform="translate(0,0)"/>
<path d="" fill="#BF003F" transform="translate(0,0)"/>
<path d="" fill="#AA0055" transform="translate(0,0)"/>
<path d="" fill="#FF0055" transform="translate(0,0)"/>
<path d="" fill="#FF007F" transform="translate(0,0)"/>
<path d="" fill="#BF003F" transform="translate(0,0)"/>
<path d="" fill="#BF003F" transform="translate(0,0)"/>
<path d="" fill="#BF003F" transform="translate(0,0)"/>
<path d="" fill="#BF003F" transform="translate(0,0)"/>
<path d="" fill="#AA0055" transform="translate(0,0)"/>
<path d="" fill="#AA0055" transform="translate(0,0)"/>
<path d="" fill="#BF003F" transform="translate(0,0)"/>
<path d="" fill="#BF003F" transform="translate(0,0)"/>
<path d="" fill="#AA0055" transform="translate(0,0)"/>
<path d="" fill="#AA0055" transform="translate(0,0)"/>
<path d="" fill="#BF003F" transform="translate(0,0)"/>
<path d="" fill="#BF003F" transform="translate(0,0)"/>
<path d="" fill="#BF003F" transform="translate(0,0)"/>
<path d="" fill="#FF007F" transform="translate(0,0)"/>
<path d="" fill="#AA0055" transform="translate(0,0)"/>
<path d="" fill="#BF003F" transform="translate(0,0)"/>
<path d="" fill="#BF003F" transform="translate(0,0)"/>
<path d="" fill="#AA0055" transform="translate(0,0)"/>
<path d="" fill="#AA0055" transform="translate(0,0)"/>
<path d="" fill="#BF003F" transform="translate(0,0)"/>
<path d="" fill="#BF003F" transform="translate(0,0)"/>
<path d="" fill="#AA0055" transform="translate(0,0)"/>
<path d="" fill="#AA0055" transform="translate(0,0)"/>
<path d="" fill="#BF003F" transform="translate(0,0)"/>
<path d="" fill="#BF003F" transform="translate(0,0)"/>
<path d="" fill="#FF007F" transform="translate(0,0)"/>
<path d="" fill="#AA0055" transform="translate(0,0)"/>
<path d="" fill="#FF0055" transform="translate(0,0)"/>
<path d="" fill="#BF003F" transform="translate(0,0)"/>
<path d="" fill="#BF003F" transform="translate(0,0)"/>
<path d="" fill="#BF003F" transform="translate(0,0)"/>
<path d="" fill="#FF007F" transform="translate(0,0)"/>
<path d="" fill="#AA0055" transform="translate(0,0)"/>
<path d="" fill="#AA0055" transform="translate(0,0)"/>
<path d="" fill="#AA0055" transform="translate(0,0)"/>
<path d="" fill="#FF0055" transform="translate(0,0)"/>
<path d="" fill="#FF0055" transform="translate(0,0)"/>
<path d="" fill="#BF003F" transform="translate(0,0)"/>
<path d="" fill="#BF003F" transform="translate(0,0)"/>
<path d="" fill="#FF0055" transform="translate(0,0)"/>
<path d="" fill="#FF0055" transform="translate(0,0)"/>
<path d="" fill="#FF0055" transform="translate(0,0)"/>
<path d="" fill="#FF0055" transform="translate(0,0)"/>
<path d="" fill="#AA0055" transform="translate(0,0)"/>
<path d="" fill="#AA0055" transform="translate(0,0)"/>
<path d="" fill="#FF007F" transform="translate(0,0)"/>
<path d="" fill="#FF0055" transform="translate(0,0)"/>
<path d="" fill="#BF003F" transform="translate(0,0)"/>
<path d="" fill="#AA0055" transform="translate(0,0)"/>
<path d="" fill="#AA0055" transform="translate(0,0)"/>
<path d="" fill="#AA0055" transform="translate(0,0)"/>
<path d="" fill="#FF0055" transform="translate(0,0)"/>
<path d="" fill="#AA0055" transform="translate(0,0)"/>
<path d="" fill="#AA0055" transform="translate(0,0)"/>
<path d="" fill="#BF003F" transform="translate(0,0)"/>
<path d="" fill="#AA0055" transform="translate(0,0)"/>
<path d="" fill="#FF0055" transform="translate(0,0)"/>
<path d="" fill="#AA0055" transform="translate(0,0)"/>
<path d="" fill="#FF0055" transform="translate(0,0)"/>
<path d="" fill="#FF0055" transform="translate(0,0)"/>
</svg>
