<svg xmlns="http://www.w3.org/2000/svg" width="788.069" height="150" viewBox="0 0 788.069 150"><path d="M253.396 91.054V37.82c0-3.582-.616-5.423-2.559-7.57-1.226-1.536-.412-2.869 1.124-2.869h17.506v63.673h-16.071Zm17.811 19.856v11.569h-58.454c-12.382 0-17.297-3.175-17.297-13.512V94.122c0-2.045-.717-3.582-2.152-5.322-1.226-1.536-.407-2.966 1.028-2.966h17.398v20.986c0 3.169 1.023 4.09 4.198 4.09h55.279ZM203.85 39.356c0-3.378-.203-5.219-2.152-7.366-1.226-1.537-.407-2.971 1.028-2.971h17.709v13.613c0 13.411 13.105 21.296 24.979 25.285l-4.406 8.292c-1.327 2.457-6.343 1.536-15.15-3.892-5.016-3.067-9.829-7.163-12.998-11.462-3.79 5.423-8.496 9.931-13.924 13.512-6.242 4.096-14.23 7.988-15.557 5.423l-4.711-8.902c13.614-5.327 25.182-14.23 25.182-27.228v-4.304ZM352.996 92.487V37.823c0-3.582-.514-5.22-2.457-7.575-1.333-1.537-.514-2.87 1.023-2.87h17.505v24.16h11.671v11.569h-11.671v29.38h-16.071Zm-40.434-20.574c7.061 0 11.156-5.428 11.156-11.98 0-6.96-4.095-12.281-11.156-12.281-7.168 0-11.162 5.321-11.162 12.281 0 6.552 3.994 11.98 11.162 11.98m57.737 39v11.569h-57.432c-12.388 0-17.297-3.175-17.297-13.518V98.22c0-2.05-.717-3.587-2.152-5.327-1.226-1.536-.407-2.965 1.028-2.965h17.399v16.89c0 3.174 1.022 4.095 4.197 4.095h54.257Zm-65.21-75.96c0-3.581-.204-5.219-2.152-7.575-1.328-1.536-.509-2.864 1.027-2.864h17.501v11.467h23.239V47.24h-10.75c3.175 3.586 5.123 7.987 5.123 13.206 0 12.897-9.523 22.726-26.515 22.726-16.89 0-26.516-9.829-26.516-22.726 0-5.326 1.847-9.727 4.915-13.206h-10.744V35.981h24.872v-1.028ZM453.365 112.129V94.013h-42.484v15.15c0 2.147.926 2.966 3.276 2.966h39.208ZM395.12 91.652c0-2.045-.717-3.581-2.152-5.321-1.226-1.537-.407-2.966 1.023-2.966h72.785c1.638 0 2.355.514 2.355 2.254v37.361h-62.752c-7.163 0-11.259-4.299-11.259-10.648v-20.68Zm58.347-48.925c.102-1.435-.717-2.152-2.457-2.152h-55.172V29.413h60.29c11.467 0 14.026 3.073 13.105 13.004l-1.949 20.471h13.823v11.264h-97.555V62.888h68.074l1.841-20.161ZM534.717 86.128c4.706 0 9.111.305 13.1.819v-7.372H521.51v7.372c3.994-.514 8.394-.819 13.207-.819m21.697-41.66c0-5.734-6.75-8.293-21.697-8.293s-21.703 2.559-21.703 8.293c0 5.733 6.756 8.287 21.703 8.287s21.697-2.554 21.697-8.287m.819 61.109c0-6.039-7.773-8.496-22.516-8.496-14.738 0-22.516 2.457-22.516 8.496 0 6.044 7.778 8.496 22.516 8.496 14.743 0 22.516-2.452 22.516-8.496m14.947-61.109c0 11.359-11.36 19.036-37.463 19.036s-37.469-7.677-37.469-19.036c0-11.366 11.366-19.043 37.469-19.043s37.463 7.677 37.463 19.043m.819 61.109c0 12.388-14.122 19.449-38.282 19.449-24.16 0-38.282-7.061-38.282-19.449 0-6.039 3.372-10.852 9.722-14.23h-.306V79.575h-19.963V68.52h97.556v11.055h-19.963v11.772h-.305c6.344 3.378 9.823 8.191 9.823 14.23M657.086 46.831c.097-1.944-.615-2.763-2.66-2.763h-54.873v-11.67h56.918c14.026 0 17.398 3.378 16.89 16.173l-2.966 54.454h15.348v11.676h-97.55v-11.676h66.233l2.66-56.194ZM719.792 112.241h41.05v-5.937h-43.507v3.485c0 1.944.819 2.452 2.457 2.452m40.022-69.605v-4.813h-57.528v-9.93h70.837c1.638 0 2.355.514 2.355 2.254v22.109h-57.324v3.073c0 1.638.615 1.943 2.152 1.943h56.505v9.931h-65.103c-7.066 0-9.218-2.457-9.218-8.603v-5.525c0-3.378-.712-5.118-2.661-7.473-1.226-1.638-.509-2.966 1.023-2.966h58.962Zm-58.245 53.127c0-2.05-.717-3.581-2.147-5.321-1.231-1.536-.407-2.971 1.023-2.971h16.89v8.389h43.507v-8.389h15.76v35.52h-63.775c-7.163 0-11.258-4.299-11.258-10.648v-16.58Zm86.5-23.646v10.852h-40.434v9.106H731.05v-9.106h-40.536V72.117h97.555Z" style="fill:#0046ff"/><path d="M149.922 71.661c.053 1.097.084 2.188.091 3.275v.059c0 34.699-23.558 63.895-55.561 72.461a75.75 75.75 0 0 1-16.066 2.465 78.012 78.012 0 0 1-4.879.067C35.549 149.244 4.504 120.304.449 83.246a73.03 73.03 0 0 1-.358-4.828A79.557 79.557 0 0 1 0 75.153v-.158C0 33.583 33.577 0 75.005 0c35.331 0 64.948 24.421 72.907 57.292a75.139 75.139 0 0 1 2.01 14.369Zm-35.327-34.302c-4.389-1.213-7.634-2.254-8.591-4.27-.453-.954-.176-1.915.449-2.364.677-.494 1.589-.329 2.652.19 1.571.76 3.494 1.89 4.97 2.072 4.301.519 3.515-6.059-4.213-9.877-4.546-2.258-8.994-3.184-15.02-2.96-2.231.092-4.336.011-6.202-.284-2.817-.434-6.269-1.63-8.594-2.114-1.779-.375-2.793-.326-3.217.267-.393.561-.267 1.388.817 2.759 2.175 2.742 5.602 5.792 3.848 12.928-4.339 17.689 1.603 25.785 7.658 27.114 3.392.753 6.518-.042 8.426-2.023 1.813-1.897 2.596-5.106.849-7.823-2.673-4.162-3.617-7.78-1.228-9.285 2.182-1.378 5.283-.108 7.64 5.165 3.771 8.45 8.679 10.691 13.586 4.681 4.02-4.923 3.862-12.051-3.83-14.176ZM100.938 83.53c-20.342-12.188-30.43-17.009-38.663-22.886-13.642-9.726-15.8-16.974-16.217-22.016-.744-9.025 6.086-17.149 13.039-20.978.536-.326 1.456-1.076 1.056-2.103-.404-1.038-1.649-.838-2.116-.737-15.55 3.3-30.662 16.992-28.315 35.27.937 7.24 5.542 19.467 29.392 33.509 8.135 4.786 15.158 8.415 26.183 14.727 14.929 8.534 21.801 19.53 12.555 31.525-.702.838-1.305 1.707-1.053 2.465.284.876 1.438 1.027 2.515.543 7.097-3.268 12.958-8.173 15.751-12.721 4.914-8.008 7.363-23.713-14.127-36.598Zm-23.793 48.667c-1.803-.519-4.539-1.368-6.82-2.363-2.876-1.256-5.475-2.634-6.622-3.77-.751-.754-.867-1.606-.267-2.482 3.438-4.94 4.406-6.897 5.367-9.222 2.042-4.922.025-5.399-3.143-4.488-3.445.986-6.17 1.992-8.282 2.784-2.961 1.105-4.792 1.782-5.869 1.256-1.122-.544-1.329-2.493-1.733-5.726-.284-2.3-.768-4.923-1.385-7.483-1.274-5.129-3.469-4.144-5.283-2.047-2.259 2.742-3.504 6.136-4.441 7.917-.502.954-1.077 1.269-1.778 1.118-1.565-.333-3.631-2.755-5.887-5.634-3.294-4.211-4.763-7.447-6.479-7.647-3.644-.425-2.024 8.194 1.396 15.298 3.336 6.953 8.511 13.797 17.178 19.274 9.889 6.258 24.503 8.53 33.479 7.268 2.835-.4 3.396-3.24.569-4.053Z" style="fill-rule:nonzero;fill:#0046ff"/></svg>