<?xml version="1.0" encoding="UTF-8"?>
<!-- Generator: visioncortex VTracer 0.6.12 -->
<svg version="1.1" xmlns="http://www.w3.org/2000/svg" width="1600" height="800">
<path d="M0 0 C0 0.99 0 1.98 0 3 C5.143 7 5.143 7 9 7 C9.113 7.402 9.113 7.402 9.688 9.438 C10.121 10.283 10.554 11.129 11 12 C13.625 12.812 13.625 12.812 16 13 C16 13.66 16 14.32 16 15 C16.562 15.237 17.123 15.474 17.702 15.719 C20.526 17.293 22.476 19.217 24.766 21.5 C25.655 22.387 26.545 23.274 27.461 24.188 C28.381 25.116 29.302 26.044 30.25 27 C31.186 27.928 32.122 28.856 33.086 29.812 C33.97 30.699 34.855 31.586 35.766 32.5 C36.578 33.315 37.39 34.129 38.228 34.969 C40 37 40 37 40 39 C40.59 39.244 41.181 39.487 41.789 39.738 C44.394 41.225 45.606 42.775 47.375 45.188 C49.502 48.029 51.64 50.787 54 53.438 C64 64.951 64 64.951 64 69 C64.66 69 65.32 69 66 69 C66.66 69.66 67.32 70.32 68 71 C70.379 71.379 70.379 71.379 73.348 71.562 C74.429 71.637 75.509 71.712 76.623 71.789 C77.758 71.859 78.893 71.928 80.062 72 C86.753 72.42 93.23 72.859 99.75 74.465 C102.314 75.075 104.885 75.544 107.48 76 C108.417 76.165 109.353 76.33 110.318 76.5 C112.242 76.835 114.167 77.169 116.092 77.5 C120.898 78.35 125.393 79.352 130 81 C132.454 81.66 134.913 82.306 137.375 82.938 C142.732 84.337 147.854 85.959 153 88 C155.991 89.028 158.993 90.019 162 91 C162 91.66 162 92.32 162 93 C162.804 93.082 163.609 93.165 164.438 93.25 C168.106 94.022 171.031 95.241 174.41 96.812 C179.213 99.015 184.117 100.984 189 103 C189 103.66 189 104.32 189 105 C189.66 105.33 190.32 105.66 191 106 C191.558 106.433 192.116 106.866 192.691 107.312 C195.633 109.463 198.764 111.221 201.938 113 C208.705 116.818 208.705 116.818 211.766 118.707 C214.19 120.11 216.242 120.606 219 121 C219 122.32 219 123.64 219 125 C218.34 125 217.68 125 217 125 C217 125.66 217 126.32 217 127 C208.738 131.592 208.738 131.592 204 131 C204.33 131.66 204.66 132.32 205 133 C191.522 139.634 178.192 144.696 163.34 147.324 C160 148 160 148 157.254 149.02 C145.133 152.672 131.198 151.049 118.673 150.904 C89.402 150.588 89.402 150.588 81.551 157.383 C72.852 166.454 74.48 183.773 73.938 195.625 C73.822 198.092 73.704 200.559 73.581 203.025 C73.505 204.547 73.433 206.07 73.367 207.592 C73.112 212.776 73.112 212.776 72 215 C71.759 216.929 71.52 218.858 71.295 220.789 C70.042 230.185 67.741 239.345 62 247 C58.868 246.816 57.545 246.721 55 245 C52.802 240.861 51.481 236.437 50 232 C46.884 224.343 42.993 217.083 39.034 209.837 C38.657 209.139 38.279 208.442 37.891 207.723 C37.551 207.101 37.211 206.48 36.86 205.84 C35.96 203.915 35.448 202.073 35 200 C34.34 200 33.68 200 33 200 C31.379 197.734 31.379 197.734 29.562 194.75 C26.124 189.136 26.124 189.136 24.207 187.039 C23 185 23 185 23.258 181.977 C23.544 180.871 23.83 179.765 24.125 178.625 C24.396 177.524 24.666 176.423 24.945 175.289 C26.008 171.974 27.433 169.102 29 166 C29.691 163.931 30.336 161.847 30.938 159.75 C32.415 154.778 34.13 150.022 36.117 145.234 C37.315 142.203 38.178 139.152 39 136 C39.66 136 40.32 136 41 136 C41.103 135.051 41.206 134.102 41.312 133.125 C41.991 128.265 43.509 123.662 45 119 C45.66 119 46.32 119 47 119 C47.043 118.72 47.043 118.72 47.262 117.305 C48.624 109.533 51.222 102.357 54 95 C51.665 97.257 49.813 99.281 48 102 C47.34 102 46.68 102 46 102 C45.756 102.727 45.513 103.454 45.262 104.203 C43.846 107.341 42.178 109.258 39.812 111.75 C36.248 115.599 32.943 119.523 29.766 123.695 C27.138 127.125 24.414 130.476 21.699 133.836 C20 136 20 136 18 139 C17.34 139 16.68 139 16 139 C15.876 139.392 15.876 139.392 15.25 141.375 C13.779 144.465 12.927 144.537 10 146 C9.711 146.736 9.423 147.472 9.125 148.23 C7.834 151.408 6.149 153.647 4 156.312 C3.299 157.196 2.597 158.079 1.875 158.988 C1.256 159.652 0.638 160.316 0 161 C-0.66 161 -1.32 161 -2 161 C-2.268 161.619 -2.536 162.238 -2.812 162.875 C-4 165 -4 165 -7 167 C-9.231 166.764 -9.231 166.764 -11.855 166.137 C-18.383 164.799 -24.669 164.74 -31.312 164.812 C-31.883 164.813 -31.883 164.813 -34.768 164.814 C-43.217 164.859 -43.217 164.859 -47.18 165.573 C-50 166 -50 166 -53 165 C-53 164.34 -53 163.68 -53 163 C-52.505 162.67 -52.505 162.67 -50 161 C-49.258 160.257 -48.515 159.515 -47.75 158.75 C-45.698 156.698 -43.763 155.021 -41.5 153.25 C-37.443 149.858 -35.271 145.71 -33 141 C-32.34 141 -31.68 141 -31 141 C-30.687 139.292 -30.375 137.583 -30.062 135.875 C-29.888 134.924 -29.714 133.972 -29.535 132.992 C-29.447 132.498 -29.447 132.498 -29 130 C-28.82 129.049 -28.639 128.097 -28.453 127.117 C-27.004 117.147 -27.595 107.247 -29.75 97.438 C-29.907 96.713 -30.064 95.988 -30.225 95.241 C-31.307 90.737 -32.908 86.859 -35.131 82.795 C-36.353 80.271 -36.723 77.771 -37 75 C-37.66 75 -38.32 75 -39 75 C-45.001 61.191 -49.77 47.08 -44.25 32.25 C-43.543 30.811 -42.798 29.39 -42 28 C-41.722 27.505 -41.722 27.505 -40.312 25 C-30.975 12.886 -30.975 12.886 -25 9 C-24.34 9 -23.68 9 -23 9 C-23 8.34 -23 7.68 -23 7 C-22.01 7.33 -21.02 7.66 -20 8 C-16.812 6.562 -16.812 6.562 -14 5 C-14 4.34 -14 3.68 -14 3 C-5.115 -1.644 -5.115 -1.644 0 0 Z M-10 2 C-10 2.66 -10 3.32 -10 4 C-9.01 3.67 -8.02 3.34 -7 3 C-7.99 2.67 -8.98 2.34 -10 2 Z M-39 25 C-38 27 -38 27 -38 27 Z M-42 32 C-41 34 -41 34 -41 34 Z M-43 35 C-44.886 38.998 -45.27 42.221 -45.25 46.625 C-45.255 47.752 -45.26 48.878 -45.266 50.039 C-45 53 -45 53 -43 56 C-42.67 49.07 -42.34 42.14 -42 35 C-42.33 35 -42.66 35 -43 35 Z M52 55 C52.99 55.99 53.98 56.98 55 58 C54.67 57.01 54.34 56.02 54 55 C53.34 55 52.68 55 52 55 Z M-43 56 C-42 59 -42 59 -42 59 Z M-41 64 C-40 66 -40 66 -40 66 Z M-40 67 C-39 69 -39 69 -39 69 Z M-39 69 C-38 71 -38 71 -38 71 Z M66 73 C66 73.33 66 73.66 66 74 C66.964 74.061 67.928 74.121 68.922 74.184 C70.185 74.267 71.448 74.351 72.75 74.438 C73.376 74.478 73.376 74.478 76.547 74.684 C79.208 74.927 81.443 75.339 84 76 C85.415 76.065 86.833 76.086 88.25 76.062 C89.487 76.042 90.725 76.021 92 76 C86.257 72.554 79.565 72.88 73.062 72.938 C72.721 72.94 72.721 72.94 70.99 72.951 C69.327 72.963 67.663 72.981 66 73 Z M-36 75 C-35 77 -35 77 -35 77 Z M93 76 C93 76.33 93 76.66 93 77 C95.31 77 97.62 77 100 77 C100 76.67 100 76.34 100 76 C97.69 76 95.38 76 93 76 Z M100 77 C100 77.33 100 77.66 100 78 C102.31 78 104.62 78 107 78 C107 77.67 107 77.34 107 77 C104.69 77 102.38 77 100 77 Z M107 78 C107 78.33 107 78.66 107 79 C108.98 79 110.96 79 113 79 C113 78.67 113 78.34 113 78 C111.02 78 109.04 78 107 78 Z M113 79 C113 79.33 113 79.66 113 80 C114.65 80 116.3 80 118 80 C118 79.67 118 79.34 118 79 C116.35 79 114.7 79 113 79 Z M-34 80 C-33 82 -33 82 -33 82 Z M118 80 C118.66 80.66 119.32 81.32 120 82 C122.125 81.625 122.125 81.625 124 81 C123.01 80.835 123.01 80.835 118 80 Z M61 81 C62 83 62 83 62 83 Z M124 82 C128 83 128 83 128 83 Z M129 83 C133 84 133 84 133 84 Z M133 84 C137 85 137 85 137 85 Z M137 85 C141 86 141 86 141 86 Z M-31 86 C-30 88 -30 88 -30 88 Z M141 86 C141.33 86.66 141.66 87.32 142 88 C142.99 87.67 143.98 87.34 145 87 C143.68 86.67 142.36 86.34 141 86 Z M57 89 C58 93 58 93 58 93 Z M158 92 C158.33 92.66 158.66 93.32 159 94 C159.66 93.67 160.32 93.34 161 93 C160.01 92.67 159.02 92.34 158 92 Z M-29 93 C-28 95 -28 95 -28 95 Z M56 93 C57 96 57 96 57 96 Z M-28 97 C-27 99 -27 99 -27 99 Z M55 97 C56 100 56 100 56 100 Z M173 98 C173.33 98.66 173.66 99.32 174 100 C174.66 99.67 175.32 99.34 176 99 C175.01 98.67 174.02 98.34 173 98 Z M-27 99 C-26.67 101.97 -26.34 104.94 -26 108 C-25.34 107.67 -24.68 107.34 -24 107 C-24.66 104.36 -25.32 101.72 -26 99 C-26.33 99 -26.66 99 -27 99 Z M42 104 C43 106 43 106 43 106 Z M53 104 C52.67 104.66 52.34 105.32 52 106 C52.66 106 53.32 106 54 106 C53.67 105.34 53.34 104.68 53 104 Z M186 104 C186.66 104.66 187.32 105.32 188 106 C188 105.34 188 104.68 188 104 C187.34 104 186.68 104 186 104 Z M51 106 C52 109 52 109 52 109 Z M-25 109 C-25.061 109.99 -25.121 110.98 -25.184 112 C-25.605 118.695 -26.051 125.355 -27 132 C-23.743 128.743 -24.013 125.521 -23.902 121.012 C-23.909 119.57 -23.921 118.129 -23.938 116.688 C-23.942 115.947 -23.947 115.206 -23.951 114.443 C-23.963 112.629 -23.981 110.814 -24 109 C-24.33 109 -24.66 109 -25 109 Z M37 110 C38 112 38 112 38 112 Z M50 110 C51 113 51 113 51 113 Z M32 116 C33 118 33 118 33 118 Z M48 117 C49 119 49 119 49 119 Z M27 122 C28 124 28 124 28 124 Z M217 122 C218 124 218 124 218 124 Z M45 124 C46 126 46 126 46 126 Z M44 127 C45 130 45 130 45 130 Z M-28 132 C-27 136 -27 136 -27 136 Z M42 134 C43 136 43 136 43 136 Z M195 134 C194.67 134.66 194.34 135.32 194 136 C194.99 135.67 195.98 135.34 197 135 C196.34 134.67 195.68 134.34 195 134 Z M17 135 C16.67 135.66 16.34 136.32 16 137 C16.66 137 17.32 137 18 137 C17.67 136.34 17.34 135.68 17 135 Z M179 140 C178.67 140.66 178.34 141.32 178 142 C179.32 141.34 180.64 140.68 182 140 C181.01 140 180.02 140 179 140 Z M12 141 C12 144 12 144 12 144 Z M39 141 C40 143 40 143 40 143 Z M174 142 C178 143 178 143 178 143 Z M169 143 C169 143.33 169 143.66 169 144 C170.65 144 172.3 144 174 144 C174 143.67 174 143.34 174 143 C172.35 143 170.7 143 169 143 Z M-33 144 C-32.67 144.66 -32.34 145.32 -32 146 C-31.67 145.34 -31.34 144.68 -31 144 C-31.66 144 -32.32 144 -33 144 Z M38 144 C39 146 39 146 39 146 Z M165 144 C169 145 169 145 169 145 Z M159 145 C159 145.33 159 145.66 159 146 C160.65 146 162.3 146 164 146 C164 145.67 164 145.34 164 145 C162.35 145 160.7 145 159 145 Z M96 148 C96 148.33 96 148.66 96 149 C103.59 149 111.18 149 119 149 C119 148.67 119 148.34 119 148 C111.41 148 103.82 148 96 148 Z M150 147 C147.678 147.224 145.351 147.393 143.023 147.535 C142.681 147.557 142.681 147.557 140.947 147.665 C138.757 147.802 136.566 147.932 134.375 148.062 C132.891 148.154 131.406 148.246 129.922 148.338 C126.282 148.563 122.641 148.783 119 149 C119 149.33 119 149.66 119 150 C148.75 150.304 148.75 150.304 158 147 C158 146.67 158 146.34 158 146 C152.25 145.875 152.25 145.875 150 147 Z M91 149 C91 149.33 91 149.66 91 150 C92.65 150 94.3 150 96 150 C96 149.67 96 149.34 96 149 C94.35 149 92.7 149 91 149 Z M36 151 C37 153 37 153 37 153 Z M-39 152 C-38 154 -38 154 -38 154 Z M83 152 C83.33 152.66 83.66 153.32 84 154 C84.33 153.34 84.66 152.68 85 152 C84.34 152 83.68 152 83 152 Z M33 158 C34 160 34 160 34 160 Z M74 164 C75 166 75 166 75 166 Z M73 170 C74 174 74 174 74 174 Z M72 174 C71.659 178.083 71.328 182.166 71 186.25 C70.905 187.39 70.809 188.529 70.711 189.703 C70.118 197.154 69.877 204.527 70 212 C75.55 201.674 73.112 185.536 73 174 C72.67 174 72.34 174 72 174 Z M27 175 C28 177 28 177 28 177 Z M25 181 C26 185 26 185 26 185 Z M32 194 C33 196 33 196 33 196 Z M39 206 C39.66 206.66 40.32 207.32 41 208 C41 207.34 41 206.68 41 206 C40.34 206 39.68 206 39 206 Z M43 212 C44 214 44 214 44 214 Z M69 213 C69 215.31 69 217.62 69 220 C69.33 220 69.66 220 70 220 C70 217.69 70 215.38 70 213 C69.67 213 69.34 213 69 213 Z M45 217 C45.33 217.66 45.66 218.32 46 219 C46.33 218.34 46.66 217.68 47 217 C46.34 217 45.68 217 45 217 Z M68 223 C69 226 69 226 69 226 Z M49 224 C50 226 50 226 50 226 Z M51 229 C52 231 52 231 52 231 Z M67 229 C68 231 68 231 68 231 Z M66 232 C67 235 67 235 67 235 Z M65 235 C65 238 65 238 65 238 Z M55 238 C56 240 56 240 56 240 Z " fill="#E10029" transform="translate(837,211)"/>
<path d="M0 0 C16.5 0 33 0 50 0 C50.33 24.75 50.66 49.5 51 75 C58.882 64.969 66.586 54.957 74.07 44.648 C77.826 39.493 81.675 34.417 85.575 29.37 C89.178 24.707 92.737 20.027 96.188 15.25 C97.457 13.499 98.728 11.749 100 10 C100.642 9.114 101.284 8.229 101.945 7.316 C102.561 6.49 103.178 5.664 103.812 4.812 C104.084 4.444 104.084 4.444 105.457 2.582 C105.966 2.06 106.475 1.538 107 1 C107.99 1 108.98 1 110 1 C110.33 0.67 110.66 0.34 111 0 C112.841 -0.094 114.686 -0.117 116.53 -0.114 C117.711 -0.113 118.892 -0.113 120.109 -0.113 C121.394 -0.108 122.68 -0.103 124.004 -0.098 C124.658 -0.097 124.658 -0.097 127.968 -0.093 C131.452 -0.09 134.935 -0.08 138.419 -0.069 C141.971 -0.058 145.524 -0.054 149.076 -0.049 C156.051 -0.038 163.025 -0.021 170 0 C169.144 4.133 167.088 6.946 164.562 10.25 C164.155 10.804 163.747 11.359 163.326 11.93 C162.27 13.328 161.14 14.67 160 16 C159.34 16 158.68 16 158 16 C157.759 16.55 157.518 17.101 157.27 17.668 C155.712 20.529 153.785 22.82 151.688 25.312 C149.006 28.529 146.421 31.727 144.062 35.188 C143.382 36.116 142.701 37.044 142 38 C141.34 38 140.68 38 140 38 C139.755 38.728 139.51 39.457 139.258 40.207 C137.855 43.321 136.221 45.215 133.875 47.688 C126.687 55.462 120.335 63.806 114.078 72.336 C112.186 74.761 110.184 76.843 108 79 C107.34 79.99 106.68 80.98 106 82 C105.34 82 104.68 82 104 82 C103.794 82.681 103.587 83.361 103.375 84.062 C100.982 89.174 96.991 93.069 93 97 C94.045 99.252 95.112 101.146 96.625 103.125 C98 105 98 105 98 107 C98.495 107.165 98.495 107.165 101 108 C102.797 110.187 102.797 110.187 104.75 113 C107.943 117.536 111.259 121.913 114.75 126.223 C116 128 116 128 116 130 C116.99 130.33 117.98 130.66 119 131 C120.465 132.637 120.465 132.637 121.938 134.688 C122.458 135.407 122.979 136.126 123.516 136.867 C124.766 138.664 125.981 140.486 127.188 142.312 C128.702 144.558 130.102 146.121 132 148 C132.882 149.057 133.746 150.13 134.594 151.215 C135.067 151.819 135.54 152.423 136.027 153.045 C136.513 153.669 136.999 154.294 137.5 154.938 C137.986 155.558 138.472 156.179 138.973 156.818 C139.908 158.015 140.84 159.213 141.77 160.414 C142.784 161.722 143.812 163.021 144.844 164.316 C146 166 146 166 146 168 C146.99 168.33 147.98 168.66 149 169 C150.797 171.188 150.797 171.188 152.75 174 C155.943 178.536 159.259 182.913 162.75 187.223 C164 189 164 189 164 191 C164.99 191.33 165.98 191.66 167 192 C168.641 193.672 168.641 193.672 170.25 195.75 C170.791 196.425 171.333 197.101 171.891 197.797 C173.312 200.62 172.723 202.001 172 205 C163.959 205.326 155.921 205.574 147.876 205.725 C144.138 205.798 140.406 205.897 136.671 206.056 C110.476 207.147 110.476 207.147 104.761 201.892 C101.777 198.251 99 193.835 99 189 C98.34 189 97.68 189 97 189 C95.555 187.199 95.555 187.199 93.875 184.688 C89.078 177.636 84.083 170.739 78.938 163.938 C76.626 160.862 74.36 157.756 72.125 154.625 C71.827 154.209 71.827 154.209 70.32 152.102 C69 150 69 150 69 148 C68.34 148 67.68 148 67 148 C63 142.588 63 142.588 63 140 C62.01 139.67 61.02 139.34 60 139 C58.465 137.039 58.465 137.039 56.938 134.625 C56.431 133.834 55.924 133.042 55.402 132.227 C55.171 131.859 55.171 131.859 54 130 C53.34 129.01 52.68 128.02 52 127 C51.99 127.554 51.99 127.554 51.94 130.358 C51.863 134.537 51.774 138.715 51.683 142.894 C51.645 144.689 51.61 146.485 51.578 148.281 C51.075 176.466 51.075 176.466 46 188 C45.34 188 44.68 188 44 188 C43.711 188.763 43.423 189.526 43.125 190.312 C42 193 42 193 40 196 C39.34 196 38.68 196 38 196 C38 196.66 38 197.32 38 198 C37.01 198.33 36.02 198.66 35 199 C34.484 199.516 33.969 200.031 33.438 200.562 C32.963 201.037 32.489 201.511 32 202 C31.34 202 30.68 202 30 202 C30 202.66 30 203.32 30 204 C19.552 209.471 12.79 207.673 0 207 C0 138.69 0 70.38 0 0 Z M103 8 C103 11 103 11 103 11 Z M98 15 C99 17 99 17 99 17 Z M90 25 C90.33 25.66 90.66 26.32 91 27 C91.33 26.34 91.66 25.68 92 25 C91.34 25 90.68 25 90 25 Z M84 33 C85 35 85 35 85 35 Z M141 34 C140.67 34.66 140.34 35.32 140 36 C140.66 36 141.32 36 142 36 C141.67 35.34 141.34 34.68 141 34 Z M80 39 C81 41 81 41 81 41 Z M66 57 C67 59 67 59 67 59 Z M93 93 C92.67 93.66 92.34 94.32 92 95 C92.66 95 93.32 95 94 95 C93.67 94.34 93.34 93.68 93 93 Z M90 97 C91 99 91 99 91 99 Z M48 118 C48 136.48 48 154.96 48 174 C48.33 174 48.66 174 49 174 C49 155.52 49 137.04 49 118 C48.67 118 48.34 118 48 118 Z M52 123 C53 125 53 125 53 125 Z M65 141 C66 143 66 143 66 143 Z M124 141 C125 143 125 143 125 143 Z M78 159 C79 161 79 161 79 161 Z M138 159 C139 161 139 161 139 161 Z M143 165 C144 167 144 167 144 167 Z M146 170 C146.99 170.99 147.98 171.98 149 173 C148.67 172.01 148.34 171.02 148 170 C147.34 170 146.68 170 146 170 Z M47 174 C47 175.65 47 177.3 47 179 C47.33 179 47.66 179 48 179 C48 177.35 48 175.7 48 174 C47.67 174 47.34 174 47 174 Z M152 177 C153 179 153 179 153 179 Z M46 179 C47 182 47 182 47 182 Z M45 182 C44.67 183.32 44.34 184.64 44 186 C44.66 185.67 45.32 185.34 46 185 C45.67 184.01 45.34 183.02 45 182 Z M41 189 C42 191 42 191 42 191 Z M165 194 C165.66 194.66 166.32 195.32 167 196 C167 195.34 167 194.68 167 194 C166.34 194 165.68 194 165 194 Z M105 195 C106 197 106 197 106 197 Z M28 201 C27.67 201.66 27.34 202.32 27 203 C27.66 203 28.32 203 29 203 C28.67 202.34 28.34 201.68 28 201 Z M18 205 C22 206 22 206 22 206 Z M12 206 C12 206.33 12 206.66 12 207 C13.65 207 15.3 207 17 207 C17 206.67 17 206.34 17 206 C15.35 206 13.7 206 12 206 Z " fill="#E10029" transform="translate(665,432)"/>
<path d="M0 0 C2.122 -0.002 4.243 -0.02 6.365 -0.039 C14.928 -0.073 23.157 0.582 31.59 2.185 C31.59 2.845 31.59 3.505 31.59 4.185 C31.893 4.204 31.893 4.204 33.426 4.299 C43.175 5.064 50.898 6.998 58.59 13.185 C58.112 15.123 57.632 17.061 57.152 18.998 C56.885 20.077 56.618 21.156 56.344 22.267 C55.829 24.259 55.24 26.233 54.59 28.185 C53.93 28.185 53.27 28.185 52.59 28.185 C52.456 28.639 52.456 28.639 51.777 30.935 C50.673 33.956 49.804 35.886 47.59 38.185 C45.402 38.935 45.402 38.935 43.59 39.185 C43.539 39.789 43.489 40.392 43.437 41.013 C42.59 43.185 42.59 43.185 40.148 44.67 C31.977 47.983 26.72 49.159 18.074 47.166 C12.338 45.999 6.799 45.959 0.965 46.06 C-0.04 46.069 -1.044 46.078 -2.078 46.088 C-4.523 46.111 -6.966 46.144 -9.41 46.185 C-9.41 46.845 -9.41 47.505 -9.41 48.185 C-10.215 48.66 -11.019 49.134 -11.848 49.623 C-14.41 51.185 -14.41 51.185 -15.41 54.185 C-15.897 60.761 -15.394 66.219 -12.41 72.185 C-11.967 72.247 -11.967 72.247 -9.723 72.56 C-5.773 73.306 -3.744 74.952 -0.41 77.185 C2.068 78.49 4.602 79.654 7.152 80.81 C7.799 81.109 8.445 81.408 9.111 81.717 C12.568 83.306 16.043 84.81 19.59 86.185 C19.59 86.845 19.59 87.505 19.59 88.185 C19.92 88.216 19.92 88.216 21.59 88.373 C25.711 89.489 29.247 91.523 32.59 94.185 C32.59 94.845 32.59 95.505 32.59 96.185 C35.23 96.845 37.87 97.505 40.59 98.185 C40.59 98.845 40.59 99.505 40.59 100.185 C41.286 100.394 41.982 100.603 42.699 100.818 C46.486 102.609 48.934 105.091 51.84 108.06 C52.381 108.59 52.922 109.12 53.48 109.666 C56.223 112.429 57.872 114.362 58.59 118.185 C59.25 118.185 59.91 118.185 60.59 118.185 C61.264 119.452 61.929 120.724 62.59 121.998 C62.961 122.705 63.332 123.413 63.715 124.142 C64.59 126.185 64.59 126.185 64.59 129.185 C65.25 129.185 65.91 129.185 66.59 129.185 C69.91 142.189 72.887 159.591 66.59 172.185 C65.93 172.185 65.27 172.185 64.59 172.185 C64.538 172.618 64.538 172.618 64.277 174.81 C63.556 178.352 62.318 181.028 60.59 184.185 C59.93 184.185 59.27 184.185 58.59 184.185 C58.479 184.539 58.479 184.539 57.922 186.33 C56.29 189.827 53.999 192.215 51.277 194.873 C50.803 195.358 50.33 195.843 49.842 196.344 C46.967 199.194 44.461 200.979 40.59 202.185 C40.59 202.845 40.59 203.505 40.59 204.185 C39.93 203.855 39.27 203.525 38.59 203.185 C36.064 204.027 34.173 204.919 31.902 206.248 C30.809 206.887 29.716 207.527 28.59 208.185 C28.92 208.845 29.25 209.505 29.59 210.185 C20.785 213.718 13.08 214.779 3.636 214.717 C2.337 214.72 1.038 214.724 -0.3 214.728 C-3.033 214.734 -5.766 214.726 -8.499 214.707 C-11.953 214.684 -15.405 214.697 -18.859 214.721 C-50.734 214.902 -50.734 214.902 -65.41 207.185 C-65.41 206.525 -65.41 205.865 -65.41 205.185 C-66.4 205.185 -67.39 205.185 -68.41 205.185 C-70.081 204.874 -71.749 204.544 -73.41 204.185 C-73.41 203.525 -73.41 202.865 -73.41 202.185 C-75.06 201.855 -76.71 201.525 -78.41 201.185 C-79.931 196.622 -80.348 191.853 -78.727 187.24 C-77.688 185.179 -76.553 183.19 -75.41 181.185 C-74.317 179.023 -73.235 176.857 -72.16 174.685 C-71.244 172.852 -70.327 171.019 -69.41 169.185 C-68.75 169.185 -68.09 169.185 -67.41 169.185 C-67.287 168.559 -67.163 167.932 -67.035 167.287 C-66.38 164.689 -65.724 162.526 -64.41 160.185 C-61.649 158.731 -59.573 158.548 -56.41 158.185 C-56.41 158.845 -56.41 159.505 -56.41 160.185 C-55.681 160.304 -54.951 160.422 -54.199 160.545 C-51.402 161.187 -49.329 162.126 -46.785 163.435 C-31.827 170.341 -14.88 174.23 1.277 169.56 C6.337 167.578 9.064 166.057 11.59 161.185 C12.323 156.614 12.19 152.685 10.465 148.373 C6.24 143.445 1.476 140.36 -4.348 137.623 C-5.746 136.945 -7.143 136.265 -8.539 135.584 C-9.304 135.211 -10.068 134.838 -10.856 134.454 C-15.872 131.963 -20.825 129.348 -25.785 126.748 C-26.802 126.215 -27.819 125.683 -28.867 125.134 C-30.687 124.181 -32.507 123.228 -34.326 122.273 C-35.681 121.566 -37.043 120.869 -38.41 120.185 C-38.41 119.525 -38.41 118.865 -38.41 118.185 C-39.339 117.897 -40.267 117.608 -41.223 117.31 C-44.41 116.185 -44.41 116.185 -47.41 114.185 C-47.41 113.525 -47.41 112.865 -47.41 112.185 C-48.132 111.958 -48.854 111.732 -49.598 111.498 C-56.932 108.075 -64.41 98.586 -67.41 91.185 C-67.41 90.195 -67.41 89.205 -67.41 88.185 C-68.07 88.185 -68.73 88.185 -69.41 88.185 C-71.349 82.235 -73.037 76.464 -73.41 70.185 C-73.437 69.75 -73.437 69.75 -73.571 67.549 C-74.149 48.717 -68.05 34.722 -55.489 21.076 C-52.635 18.479 -50.045 17.397 -46.41 16.185 C-46.41 15.195 -46.41 14.205 -46.41 13.185 C-40.425 8.66 -33.754 5.616 -26.524 3.736 C-24.41 3.185 -24.41 3.185 -21.66 2.06 C-14.801 -0.607 -7.238 -0.001 0 0 Z M-10.41 1.185 C-10.41 1.515 -10.41 1.845 -10.41 2.185 C-2.16 2.185 6.09 2.185 14.59 2.185 C14.59 1.855 14.59 1.525 14.59 1.185 C6.34 1.185 -1.91 1.185 -10.41 1.185 Z M-23.41 4.185 C-20.139 5.258 -17.981 5.078 -14.66 4.248 C-13.861 4.053 -13.062 3.859 -12.239 3.658 C-11.635 3.502 -11.032 3.346 -10.41 3.185 C-10.41 2.855 -10.41 2.525 -10.41 2.185 C-15.332 2.018 -18.914 1.937 -23.41 4.185 Z M14.59 2.185 C14.59 2.515 14.59 2.845 14.59 3.185 C15.158 3.246 15.727 3.306 16.312 3.369 C21.087 3.887 25.839 4.478 30.59 5.185 C26.64 2.552 24.041 2.063 19.402 2.123 C18.501 2.132 17.6 2.141 16.672 2.15 C16.328 2.156 16.328 2.156 14.59 2.185 Z M-27.41 5.185 C-23.41 6.185 -23.41 6.185 -23.41 6.185 Z M30.59 5.185 C30.59 5.515 30.59 5.845 30.59 6.185 C32.24 6.185 33.89 6.185 35.59 6.185 C35.59 5.855 35.59 5.525 35.59 5.185 C33.94 5.185 32.29 5.185 30.59 5.185 Z M35.59 6.185 C39.59 7.185 39.59 7.185 39.59 7.185 Z M39.59 7.185 C43.151 9.06 46.702 10.139 50.59 11.185 C48.59 8.185 48.59 8.185 46.426 7.674 C45.613 7.616 44.801 7.558 43.965 7.498 C43.147 7.432 42.33 7.366 41.488 7.299 C40.862 7.261 40.235 7.224 39.59 7.185 Z M-37.41 9.185 C-37.74 9.845 -38.07 10.505 -38.41 11.185 C-37.75 11.185 -37.09 11.185 -36.41 11.185 C-36.74 10.525 -37.07 9.865 -37.41 9.185 Z M55.59 14.185 C56.59 17.185 56.59 17.185 56.59 17.185 Z M53.59 21.185 C53.26 22.505 52.93 23.825 52.59 25.185 C53.25 25.185 53.91 25.185 54.59 25.185 C54.26 23.865 53.93 22.545 53.59 21.185 Z M-59.41 27.185 C-58.41 29.185 -58.41 29.185 -58.41 29.185 Z M50.59 27.185 C51.59 29.185 51.59 29.185 51.59 29.185 Z M-63.41 32.185 C-63.08 32.845 -62.75 33.505 -62.41 34.185 C-62.08 33.525 -61.75 32.865 -61.41 32.185 C-62.07 32.185 -62.73 32.185 -63.41 32.185 Z M-66.41 39.185 C-65.41 41.185 -65.41 41.185 -65.41 41.185 Z M-5.41 43.185 C-5.41 43.515 -5.41 43.845 -5.41 44.185 C1.52 44.185 8.45 44.185 15.59 44.185 C15.59 43.855 15.59 43.525 15.59 43.185 C8.66 43.185 1.73 43.185 -5.41 43.185 Z M16.59 44.185 C16.59 44.515 16.59 44.845 16.59 45.185 C18.57 45.185 20.55 45.185 22.59 45.185 C22.59 44.855 22.59 44.525 22.59 44.185 C20.61 44.185 18.63 44.185 16.59 44.185 Z M30.59 44.185 C34.59 45.185 34.59 45.185 34.59 45.185 Z M-69.41 45.185 C-68.41 48.185 -68.41 48.185 -68.41 48.185 Z M24.59 45.185 C28.59 46.185 28.59 46.185 28.59 46.185 Z M-70.41 48.185 C-70.41 49.835 -70.41 51.485 -70.41 53.185 C-70.08 53.185 -69.75 53.185 -69.41 53.185 C-69.41 51.535 -69.41 49.885 -69.41 48.185 C-69.74 48.185 -70.07 48.185 -70.41 48.185 Z M-71.41 53.185 C-71.41 60.775 -71.41 68.365 -71.41 76.185 C-71.08 76.185 -70.75 76.185 -70.41 76.185 C-70.41 68.595 -70.41 61.005 -70.41 53.185 C-70.74 53.185 -71.07 53.185 -71.41 53.185 Z M-18.41 53.185 C-18.41 57.145 -18.41 61.105 -18.41 65.185 C-18.08 65.185 -17.75 65.185 -17.41 65.185 C-17.41 61.225 -17.41 57.265 -17.41 53.185 C-17.74 53.185 -18.07 53.185 -18.41 53.185 Z M-70.41 76.185 C-70.41 77.835 -70.41 79.485 -70.41 81.185 C-70.08 81.185 -69.75 81.185 -69.41 81.185 C-69.41 79.535 -69.41 77.885 -69.41 76.185 C-69.74 76.185 -70.07 76.185 -70.41 76.185 Z M-69.41 81.185 C-68.41 84.185 -68.41 84.185 -68.41 84.185 Z M3.59 81.185 C3.92 81.845 4.25 82.505 4.59 83.185 C5.25 82.855 5.91 82.525 6.59 82.185 C5.6 81.855 4.61 81.525 3.59 81.185 Z M-66.41 88.185 C-65.41 90.185 -65.41 90.185 -65.41 90.185 Z M28.59 93.185 C28.59 93.845 28.59 94.505 28.59 95.185 C29.25 94.855 29.91 94.525 30.59 94.185 C29.93 93.855 29.27 93.525 28.59 93.185 Z M-63.41 94.185 C-63.41 94.845 -63.41 95.505 -63.41 96.185 C-62.75 95.855 -62.09 95.525 -61.41 95.185 C-62.07 94.855 -62.73 94.525 -63.41 94.185 Z M-59.41 99.185 C-58.41 101.185 -58.41 101.185 -58.41 101.185 Z M37.59 99.185 C38.25 99.845 38.91 100.505 39.59 101.185 C39.59 100.525 39.59 99.865 39.59 99.185 C38.93 99.185 38.27 99.185 37.59 99.185 Z M-38.41 117.185 C-37.75 117.845 -37.09 118.505 -36.41 119.185 C-36.41 118.525 -36.41 117.865 -36.41 117.185 C-37.07 117.185 -37.73 117.185 -38.41 117.185 Z M60.59 122.185 C61.59 124.185 61.59 124.185 61.59 124.185 Z M-27.41 123.185 C-27.08 123.845 -26.75 124.505 -26.41 125.185 C-25.75 124.855 -25.09 124.525 -24.41 124.185 C-25.4 123.855 -26.39 123.525 -27.41 123.185 Z M62.59 127.185 C63.59 129.185 63.59 129.185 63.59 129.185 Z M-15.41 129.185 C-15.08 129.845 -14.75 130.505 -14.41 131.185 C-13.75 130.855 -13.09 130.525 -12.41 130.185 C-13.4 129.855 -14.39 129.525 -15.41 129.185 Z M63.59 130.185 C64.59 132.185 64.59 132.185 64.59 132.185 Z M65.59 134.185 C66.59 138.185 66.59 138.185 66.59 138.185 Z M-3.41 135.185 C-3.08 135.845 -2.75 136.505 -2.41 137.185 C-1.75 136.855 -1.09 136.525 -0.41 136.185 C-1.4 135.855 -2.39 135.525 -3.41 135.185 Z M66.59 138.185 C66.59 141.485 66.59 144.785 66.59 148.185 C66.92 148.185 67.25 148.185 67.59 148.185 C67.59 144.885 67.59 141.585 67.59 138.185 C67.26 138.185 66.93 138.185 66.59 138.185 Z M67.59 148.185 C67.59 149.835 67.59 151.485 67.59 153.185 C67.92 153.185 68.25 153.185 68.59 153.185 C68.59 151.535 68.59 149.885 68.59 148.185 C68.26 148.185 67.93 148.185 67.59 148.185 Z M13.59 152.185 C13.59 154.825 13.59 157.465 13.59 160.185 C14.715 158.435 14.715 158.435 15.59 156.185 C14.715 153.935 14.715 153.935 13.59 152.185 Z M66.59 153.185 C66.59 156.485 66.59 159.785 66.59 163.185 C66.92 163.185 67.25 163.185 67.59 163.185 C67.59 159.885 67.59 156.585 67.59 153.185 C67.26 153.185 66.93 153.185 66.59 153.185 Z M-58.41 159.185 C-57.41 161.185 -57.41 161.185 -57.41 161.185 Z M-64.41 163.185 C-63.41 165.185 -63.41 165.185 -63.41 165.185 Z M65.59 163.185 C66.59 167.185 66.59 167.185 66.59 167.185 Z M-65.41 165.185 C-64.41 167.185 -64.41 167.185 -64.41 167.185 Z M-47.41 165.185 C-46.75 165.845 -46.09 166.505 -45.41 167.185 C-45.41 166.525 -45.41 165.865 -45.41 165.185 C-46.07 165.185 -46.73 165.185 -47.41 165.185 Z M10.59 165.185 C11.59 167.185 11.59 167.185 11.59 167.185 Z M64.59 167.185 C65.59 169.185 65.59 169.185 65.59 169.185 Z M-35.41 170.185 C-32.145 172.069 -29.129 172.678 -25.41 173.185 C-28.417 170.179 -31.234 170.589 -35.41 170.185 Z M-1.41 171.185 C-2.07 171.845 -2.73 172.505 -3.41 173.185 C-1.76 172.855 -0.11 172.525 1.59 172.185 C0.6 171.855 -0.39 171.525 -1.41 171.185 Z M-69.41 172.185 C-68.41 174.185 -68.41 174.185 -68.41 174.185 Z M62.59 172.185 C63.59 174.185 63.59 174.185 63.59 174.185 Z M-23.41 173.185 C-23.41 173.515 -23.41 173.845 -23.41 174.185 C-17.14 174.185 -10.87 174.185 -4.41 174.185 C-4.41 173.855 -4.41 173.525 -4.41 173.185 C-10.68 173.185 -16.95 173.185 -23.41 173.185 Z M60.59 177.185 C61.59 179.185 61.59 179.185 61.59 179.185 Z M-74.41 182.185 C-74.41 185.185 -74.41 185.185 -74.41 185.185 Z M-72.41 201.185 C-72.41 201.845 -72.41 202.505 -72.41 203.185 C-71.75 202.855 -71.09 202.525 -70.41 202.185 C-71.07 201.855 -71.73 201.525 -72.41 201.185 Z M-58.41 207.185 C-58.08 207.845 -57.75 208.505 -57.41 209.185 C-56.75 208.855 -56.09 208.525 -55.41 208.185 C-56.4 207.855 -57.39 207.525 -58.41 207.185 Z M-55.41 209.185 C-51.41 210.185 -51.41 210.185 -51.41 210.185 Z M-51.41 210.185 C-47.41 211.185 -47.41 211.185 -47.41 211.185 Z M19.59 210.185 C23.59 211.185 23.59 211.185 23.59 211.185 Z M-47.41 211.185 C-47.41 211.515 -47.41 211.845 -47.41 212.185 C-45.76 212.185 -44.11 212.185 -42.41 212.185 C-42.41 211.855 -42.41 211.525 -42.41 211.185 C-44.06 211.185 -45.71 211.185 -47.41 211.185 Z M15.59 211.185 C19.59 212.185 19.59 212.185 19.59 212.185 Z M-41.41 212.185 C-41.41 212.515 -41.41 212.845 -41.41 213.185 C-39.76 213.185 -38.11 213.185 -36.41 213.185 C-36.41 212.855 -36.41 212.525 -36.41 212.185 C-38.06 212.185 -39.71 212.185 -41.41 212.185 Z M11.59 212.185 C15.59 213.185 15.59 213.185 15.59 213.185 Z " fill="#E10029" transform="translate(572.410400390625,425.814697265625)"/>
<path d="M0 0 C0.584 0.001 0.584 0.001 3.537 0.004 C4.125 0.003 4.125 0.003 7.101 0 C15.772 0.105 23.196 1.084 31.287 4.379 C31.287 5.039 31.287 5.699 31.287 6.379 C31.95 6.5 32.614 6.621 33.298 6.746 C37.821 7.604 42.086 8.419 46.287 10.379 C46.287 11.039 46.287 11.699 46.287 12.379 C47.483 12.565 48.679 12.75 49.912 12.941 C56.891 14.449 63.033 18.052 69.287 21.379 C69.287 22.369 69.287 23.359 69.287 24.379 C70.989 25.369 72.699 26.346 74.412 27.316 C75.363 27.862 76.314 28.407 77.294 28.969 C80.349 30.408 82.948 30.988 86.287 31.379 C86.287 32.039 86.287 32.699 86.287 33.379 C88.267 33.709 90.247 34.039 92.287 34.379 C91.957 34.544 91.957 34.544 90.287 35.379 C90.829 35.572 91.372 35.766 91.931 35.965 C92.647 36.225 93.362 36.486 94.099 36.754 C94.807 37.009 95.515 37.264 96.244 37.527 C98.287 38.379 98.287 38.379 101.287 40.379 C101.287 41.369 101.287 42.359 101.287 43.379 C101.782 43.709 101.782 43.709 104.287 45.379 C104.287 46.039 104.287 46.699 104.287 47.379 C103.957 47.544 103.957 47.544 102.287 48.379 C102.287 49.369 102.287 50.359 102.287 51.379 C98.657 52.369 95.027 53.359 91.287 54.379 C91.287 55.039 91.287 55.699 91.287 56.379 C84.777 60.26 84.777 60.26 81.974 60.941 C80.287 61.379 80.287 61.379 78.287 64.379 C77.998 65.163 77.709 65.946 77.412 66.754 C76.287 69.379 76.287 69.379 74.349 71.629 C71.597 75.299 70.57 79.021 69.287 83.379 C68.895 84.451 68.503 85.524 68.099 86.629 C64.057 105.285 72.415 125.23 81.474 141.316 C86.784 151.66 89.047 165.662 86.474 176.941 C86.082 178.076 85.69 179.21 85.287 180.379 C85.127 181.114 84.967 181.848 84.802 182.605 C82.547 192.205 76.33 200.703 68.287 206.379 C67.627 206.379 66.967 206.379 66.287 206.379 C65.915 207.101 65.544 207.823 65.162 208.566 C62.6 212.409 59.447 214.438 55.287 216.379 C52.662 216.504 52.662 216.504 50.287 216.379 C46.974 217.879 46.974 217.879 44.287 219.379 C44.287 220.039 44.287 220.699 44.287 221.379 C35.315 224.811 27.887 226.571 18.287 226.379 C18.287 226.049 18.287 225.719 18.287 225.379 C20.597 225.049 22.907 224.719 25.287 224.379 C24.214 224.4 23.142 224.42 22.037 224.441 C16.372 224.347 16.372 224.347 14.287 223.379 C11.497 219.527 10.736 216.296 10.193 211.609 C10.115 210.959 10.038 210.308 9.958 209.637 C8.992 201.297 8.305 192.926 7.609 184.559 C6.48 171.075 6.48 171.075 5.318 164.703 C3.512 154.57 2.925 144.242 2.037 133.997 C0.439 115.693 0.439 115.693 -0.709 109.418 C-2.406 100.128 -2.957 90.653 -3.776 81.254 C-4.035 78.288 -4.295 75.322 -4.561 72.356 C-4.725 70.522 -4.885 68.688 -5.042 66.854 C-5.115 66.032 -5.189 65.21 -5.264 64.363 C-5.327 63.64 -5.39 62.916 -5.455 62.171 C-5.713 60.379 -5.713 60.379 -6.713 58.379 C-7.082 55.499 -7.403 52.631 -7.686 49.742 C-7.773 48.871 -7.861 47.999 -7.951 47.101 C-8.135 45.246 -8.317 43.39 -8.498 41.535 C-8.77 38.747 -9.055 35.96 -9.34 33.174 C-11.55 11.039 -11.55 11.039 -10.713 2.379 C-7.595 -0.739 -4.262 0.055 0 0 Z M11.287 1.379 C15.287 2.379 15.287 2.379 15.287 2.379 Z M15.287 2.379 C19.287 3.379 19.287 3.379 19.287 3.379 Z M-9.713 3.379 C-9.713 6.679 -9.713 9.979 -9.713 13.379 C-9.383 13.379 -9.053 13.379 -8.713 13.379 C-8.713 10.079 -8.713 6.779 -8.713 3.379 C-9.043 3.379 -9.373 3.379 -9.713 3.379 Z M19.287 3.379 C23.287 4.379 23.287 4.379 23.287 4.379 Z M26.287 5.379 C26.947 5.709 26.947 5.709 30.287 7.379 C29.957 6.719 29.627 6.059 29.287 5.379 C28.297 5.379 27.307 5.379 26.287 5.379 Z M43.287 11.379 C43.287 12.039 43.287 12.699 43.287 13.379 C43.947 13.379 44.607 13.379 45.287 13.379 C45.287 12.719 45.287 12.059 45.287 11.379 C44.627 11.379 43.967 11.379 43.287 11.379 Z M-8.713 14.379 C-8.713 17.679 -8.713 20.979 -8.713 24.379 C-8.383 24.379 -8.053 24.379 -7.713 24.379 C-7.713 21.079 -7.713 17.779 -7.713 14.379 C-8.043 14.379 -8.373 14.379 -8.713 14.379 Z M56.287 17.379 C56.617 18.039 56.947 18.699 57.287 19.379 C57.947 19.049 58.607 18.719 59.287 18.379 C58.297 18.049 57.307 17.719 56.287 17.379 Z M-7.713 24.379 C-7.993 32.278 -7.229 39.626 -5.713 47.379 C-5.383 47.379 -5.053 47.379 -4.713 47.379 C-4.443 39.547 -5.482 32.106 -6.713 24.379 C-7.043 24.379 -7.373 24.379 -7.713 24.379 Z M-4.713 48.379 C-4.713 51.019 -4.713 53.659 -4.713 56.379 C-4.383 56.379 -4.053 56.379 -3.713 56.379 C-3.713 53.739 -3.713 51.099 -3.713 48.379 C-4.043 48.379 -4.373 48.379 -4.713 48.379 Z M89.287 53.379 C90.287 55.379 90.287 55.379 90.287 55.379 Z M-3.713 58.379 C-3.713 61.349 -3.713 64.319 -3.713 67.379 C-3.383 67.379 -3.053 67.379 -2.713 67.379 C-2.713 64.409 -2.713 61.439 -2.713 58.379 C-3.043 58.379 -3.373 58.379 -3.713 58.379 Z M74.287 66.379 C73.957 66.874 73.957 66.874 72.287 69.379 C73.277 69.049 74.267 68.719 75.287 68.379 C74.957 67.719 74.627 67.059 74.287 66.379 Z M-2.713 69.379 C-2.713 72.679 -2.713 75.979 -2.713 79.379 C-2.383 79.379 -2.053 79.379 -1.713 79.379 C-1.713 76.079 -1.713 72.779 -1.713 69.379 C-2.043 69.379 -2.373 69.379 -2.713 69.379 Z M70.287 71.379 C71.287 73.379 71.287 73.379 71.287 73.379 Z M68.287 76.379 C69.287 78.379 69.287 78.379 69.287 78.379 Z M67.287 78.379 C66.957 79.369 66.627 80.359 66.287 81.379 C66.617 81.544 66.617 81.544 68.287 82.379 C67.957 81.059 67.627 79.739 67.287 78.379 Z M-1.713 79.379 C-1.993 87.278 -1.229 94.626 0.287 102.379 C0.617 102.379 0.947 102.379 1.287 102.379 C1.557 94.547 0.518 87.106 -0.713 79.379 C-1.043 79.379 -1.373 79.379 -1.713 79.379 Z M66.287 82.379 C65.957 84.029 65.627 85.679 65.287 87.379 C65.947 86.389 66.607 85.399 67.287 84.379 C66.957 83.719 66.627 83.059 66.287 82.379 Z M64.287 88.379 C64.287 93.329 64.287 98.279 64.287 103.379 C64.617 103.379 64.947 103.379 65.287 103.379 C65.287 98.429 65.287 93.479 65.287 88.379 C64.957 88.379 64.627 88.379 64.287 88.379 Z M1.287 103.379 C1.287 106.019 1.287 108.659 1.287 111.379 C1.617 111.379 1.947 111.379 2.287 111.379 C2.287 108.739 2.287 106.099 2.287 103.379 C1.957 103.379 1.627 103.379 1.287 103.379 Z M65.287 106.379 C66.287 110.379 66.287 110.379 66.287 110.379 Z M66.287 112.379 C66.617 113.369 66.947 114.359 67.287 115.379 C67.617 114.389 67.947 113.399 68.287 112.379 C67.627 112.379 66.967 112.379 66.287 112.379 Z M2.287 113.379 C2.287 116.679 2.287 119.979 2.287 123.379 C2.617 123.379 2.947 123.379 3.287 123.379 C3.287 120.079 3.287 116.779 3.287 113.379 C2.957 113.379 2.627 113.379 2.287 113.379 Z M68.287 115.379 C69.287 118.379 69.287 118.379 69.287 118.379 Z M3.287 123.379 C3.287 126.679 3.287 129.979 3.287 133.379 C3.617 133.379 3.947 133.379 4.287 133.379 C4.287 130.079 4.287 126.779 4.287 123.379 C3.957 123.379 3.627 123.379 3.287 123.379 Z M71.287 125.379 C72.287 127.379 72.287 127.379 72.287 127.379 Z M73.287 127.379 C72.957 128.039 72.627 128.699 72.287 129.379 C72.947 129.379 73.607 129.379 74.287 129.379 C73.957 128.719 73.627 128.059 73.287 127.379 Z M74.287 130.379 C75.287 132.379 75.287 132.379 75.287 132.379 Z M4.287 134.379 C4.007 142.278 4.771 149.626 6.287 157.379 C6.617 157.379 6.947 157.379 7.287 157.379 C7.557 149.547 6.518 142.106 5.287 134.379 C4.957 134.379 4.627 134.379 4.287 134.379 Z M79.287 142.379 C80.287 144.379 80.287 144.379 80.287 144.379 Z M80.287 144.379 C81.287 147.379 81.287 147.379 81.287 147.379 Z M81.287 147.379 C82.287 150.379 82.287 150.379 82.287 150.379 Z M82.287 151.379 C83.287 155.379 83.287 155.379 83.287 155.379 Z M83.287 156.379 C83.287 163.639 83.287 170.899 83.287 178.379 C85.356 174.24 85.531 172.445 85.474 167.941 C85.468 166.829 85.461 165.716 85.455 164.57 C85.305 161.728 84.933 159.145 84.287 156.379 C83.957 156.379 83.627 156.379 83.287 156.379 Z M7.287 158.379 C7.287 161.349 7.287 164.319 7.287 167.379 C7.617 167.379 7.947 167.379 8.287 167.379 C8.287 164.409 8.287 161.439 8.287 158.379 C7.957 158.379 7.627 158.379 7.287 158.379 Z M8.287 168.379 C8.287 171.349 8.287 174.319 8.287 177.379 C8.617 177.379 8.947 177.379 9.287 177.379 C9.287 174.409 9.287 171.439 9.287 168.379 C8.957 168.379 8.627 168.379 8.287 168.379 Z M9.287 178.379 C9.287 182.009 9.287 185.639 9.287 189.379 C9.617 189.379 9.947 189.379 10.287 189.379 C10.287 185.749 10.287 182.119 10.287 178.379 C9.957 178.379 9.627 178.379 9.287 178.379 Z M82.287 179.379 C83.287 182.379 83.287 182.379 83.287 182.379 Z M80.287 186.379 C81.287 188.379 81.287 188.379 81.287 188.379 Z M10.287 189.379 C10.287 192.679 10.287 195.979 10.287 199.379 C10.617 199.379 10.947 199.379 11.287 199.379 C11.287 196.079 11.287 192.779 11.287 189.379 C10.957 189.379 10.627 189.379 10.287 189.379 Z M77.287 191.379 C78.287 193.379 78.287 193.379 78.287 193.379 Z M11.287 199.379 C11.232 200.983 11.194 202.587 11.162 204.191 C11.138 205.085 11.115 205.978 11.091 206.898 C11.287 209.379 11.287 209.379 13.287 212.379 C13.341 210.963 13.38 209.546 13.412 208.129 C13.435 207.34 13.458 206.551 13.482 205.738 C13.269 203.172 12.573 201.587 11.287 199.379 Z M60.287 209.379 C60.617 210.039 60.947 210.699 61.287 211.379 C61.617 210.719 61.947 210.059 62.287 209.379 C61.627 209.379 60.967 209.379 60.287 209.379 Z M13.287 213.379 C13.287 215.029 13.287 216.679 13.287 218.379 C13.617 218.379 13.947 218.379 14.287 218.379 C14.287 216.729 14.287 215.079 14.287 213.379 C13.957 213.379 13.627 213.379 13.287 213.379 Z M33.287 221.379 C32.957 222.039 32.627 222.699 32.287 223.379 C33.607 223.049 34.927 222.719 36.287 222.379 C35.297 222.049 34.307 221.719 33.287 221.379 Z " fill="#EE7501" transform="translate(720.71337890625,159.62109375)"/>
<path d="M0 0 C0.33 0.165 0.33 0.165 2 1 C2.99 0.67 3.98 0.34 5 0 C5.66 0 6.32 0 7 0 C7 0.66 7 1.32 7 2 C7.763 2.289 8.526 2.577 9.312 2.875 C12 4 12 4 15 6 C15 6.66 15 7.32 15 8 C15.726 8.244 16.451 8.487 17.199 8.738 C20.344 10.155 22.302 11.831 24.812 14.188 C25.683 14.994 26.553 15.801 27.449 16.633 C28.291 17.414 29.133 18.195 30 19 C31.37 20.193 32.745 21.381 34.125 22.562 C46.772 33.587 46.772 33.587 47.273 38.898 C47.307 40.046 47.34 41.193 47.375 42.375 C47.424 43.517 47.473 44.659 47.523 45.836 C47 49 47 49 44.703 51.305 C40.639 53.853 36.913 56 32 56 C32 56.66 32 57.32 32 58 C30.399 58.673 28.794 59.338 27.188 60 C26.294 60.371 25.401 60.743 24.48 61.125 C22 62 22 62 19 62 C19 62.66 19 63.32 19 64 C17.399 64.673 15.794 65.338 14.188 66 C13.294 66.371 12.401 66.743 11.48 67.125 C9 68 9 68 6 68 C6 68.66 6 69.32 6 70 C4.399 70.673 2.794 71.338 1.188 72 C0.294 72.371 -0.599 72.743 -1.52 73.125 C-4 74 -4 74 -7 74 C-7 74.66 -7 75.32 -7 76 C-7.773 76.315 -8.547 76.629 -9.344 76.953 C-18.881 80.872 -18.881 80.872 -23.375 83.25 C-26.541 84.893 -29.422 85.642 -33 86 C-33 86.66 -33 87.32 -33 88 C-33.75 88.303 -34.5 88.606 -35.273 88.918 C-41.252 91.365 -47.05 93.982 -52.797 96.93 C-55.458 98.223 -58.16 99.178 -61 100 C-61 99.34 -61 98.68 -61 98 C-63.64 99.32 -66.28 100.64 -69 102 C-69 102.66 -69 103.32 -69 104 C-69.66 104 -70.32 104 -71 104 C-71 104.66 -71 105.32 -71 106 C-71.411 106.151 -71.411 106.151 -73.492 106.918 C-79.867 109.31 -85.982 111.846 -91.977 115.082 C-94 116 -94 116 -97 116 C-97 116.66 -97 117.32 -97 118 C-98.601 118.673 -100.206 119.338 -101.812 120 C-102.259 120.186 -102.259 120.186 -104.52 121.125 C-107 122 -107 122 -110 122 C-110 122.66 -110 123.32 -110 124 C-110.773 124.315 -111.547 124.629 -112.344 124.953 C-121.881 128.872 -121.881 128.872 -126.375 131.25 C-129.541 132.893 -132.422 133.642 -136 134 C-136 134.66 -136 135.32 -136 136 C-137.601 136.673 -139.206 137.338 -140.812 138 C-141.706 138.371 -142.599 138.743 -143.52 139.125 C-146 140 -146 140 -149 140 C-149 140.66 -149 141.32 -149 142 C-152.673 142.54 -154.092 141.947 -157.375 140.062 C-159.391 138.267 -159.965 137.494 -160.156 134.77 C-159.887 132.475 -159.466 130.261 -159 128 C-159 127.01 -159 126.02 -159 125 C-158.288 123.39 -157.508 121.808 -156.688 120.25 C-152.874 112.967 -150.521 106.813 -149.438 98.688 C-149.315 97.812 -149.192 96.936 -149.065 96.033 C-148.696 93.357 -148.345 90.679 -148 88 C-147.898 87.221 -147.796 86.442 -147.691 85.639 C-146.465 76.1 -145.707 66.602 -145.429 56.986 C-145.104 47.995 -143.926 40.963 -138 34 C-137.34 34 -136.68 34 -136 34 C-136 33.34 -136 32.68 -136 32 C-128.002 26.895 -120.402 25.675 -111.012 25.84 C-110.187 25.845 -109.363 25.85 -108.513 25.856 C-105.905 25.873 -103.296 25.904 -100.688 25.938 C-72.755 26.238 -72.755 26.238 -61 23 C-59.45 22.666 -57.898 22.345 -56.344 22.035 C-55.548 21.875 -54.753 21.714 -53.934 21.549 C-52.312 21.225 -50.69 20.904 -49.066 20.588 C-43.787 19.514 -39.001 18.011 -34 16 C-33.136 15.661 -32.273 15.322 -31.383 14.973 C-30.638 14.672 -29.893 14.372 -29.125 14.062 C-28.291 13.729 -27.457 13.395 -26.598 13.051 C-24.81 12.328 -23.027 11.595 -21.246 10.855 C-20.803 10.673 -20.803 10.673 -18.562 9.75 C-17.759 9.415 -16.956 9.08 -16.129 8.734 C-14 8 -14 8 -11 8 C-11 7.34 -11 6.68 -11 6 C-9.733 5.326 -8.461 4.661 -7.188 4 C-6.834 3.814 -6.834 3.814 -5.043 2.875 C-3 2 -3 2 0 2 C0 1.34 0 0.68 0 0 Z M-10 7 C-10.33 7.66 -10.66 8.32 -11 9 C-10.01 8.67 -9.02 8.34 -8 8 C-8.66 7.67 -9.32 7.34 -10 7 Z M-23 13 C-22.67 13.66 -22.34 14.32 -22 15 C-21.67 14.34 -21.34 13.68 -21 13 C-21.66 13 -22.32 13 -23 13 Z M-39 19 C-39.33 19.66 -39.66 20.32 -40 21 C-38.68 20.67 -37.36 20.34 -36 20 C-36.99 19.67 -37.98 19.34 -39 19 Z M-48 22 C-44 23 -44 23 -44 23 Z M-59 24 C-59 24.33 -59 24.66 -59 25 C-55.7 24.67 -52.4 24.34 -49 24 C-49 23.67 -49 23.34 -49 23 C-52.492 22.9 -55.594 23.222 -59 24 Z M-66 27 C-64.845 26.835 -64.845 26.835 -59 26 C-62.486 24.798 -62.68 24.787 -66 27 Z M-76 27 C-76 27.33 -76 27.66 -76 28 C-73.03 28 -70.06 28 -67 28 C-67 27.67 -67 27.34 -67 27 C-69.97 27 -72.94 27 -76 27 Z M-125 28 C-125 28.33 -125 28.66 -125 29 C-109.16 29 -93.32 29 -77 29 C-77 28.67 -77 28.34 -77 28 C-92.84 28 -108.68 28 -125 28 Z M-129 29 C-129.66 29.66 -130.32 30.32 -131 31 C-129.02 30.67 -127.04 30.34 -125 30 C-126.875 29.375 -126.875 29.375 -129 29 Z M-142 42 C-141 46 -141 46 -141 46 Z M-143 46 C-143 47.98 -143 49.96 -143 52 C-142.67 52 -142.34 52 -142 52 C-142 50.02 -142 48.04 -142 46 C-142.33 46 -142.66 46 -143 46 Z M40.375 50.5 C39.921 50.995 39.467 51.49 39 52 C40.938 51.625 40.938 51.625 43 51 C43.33 50.34 43.66 49.68 44 49 C42 49 42 49 40.375 50.5 Z M-144 53 C-144 60.59 -144 68.18 -144 76 C-143.67 76 -143.34 76 -143 76 C-143 68.41 -143 60.82 -143 53 C-143.33 53 -143.66 53 -144 53 Z M29 55 C29.33 55.66 29.66 56.32 30 57 C30.33 56.34 30.66 55.68 31 55 C30.34 55 29.68 55 29 55 Z M4 67 C3.67 67.66 3.34 68.32 3 69 C3.66 69 4.32 69 5 69 C4.67 68.34 4.34 67.68 4 67 Z M-9 73 C-9.33 73.66 -9.66 74.32 -10 75 C-9.34 75 -8.68 75 -8 75 C-8.33 74.34 -8.66 73.68 -9 73 Z M-145 79 C-146.258 85.742 -147.264 92.135 -147 99 C-146.67 99 -146.34 99 -146 99 C-144.388 92.235 -143.734 85.95 -144 79 C-144.33 79 -144.66 79 -145 79 Z M-22 79 C-22.33 79.66 -22.66 80.32 -23 81 C-22.34 81 -21.68 81 -21 81 C-21.33 80.34 -21.66 79.68 -22 79 Z M-35 85 C-35.33 85.66 -35.66 86.32 -36 87 C-35.01 86.67 -34.02 86.34 -33 86 C-33.66 85.67 -34.32 85.34 -35 85 Z M-48 91 C-48.33 91.66 -48.66 92.32 -49 93 C-48.01 92.67 -47.02 92.34 -46 92 C-46.66 91.67 -47.32 91.34 -48 91 Z M-148 99 C-148 100.65 -148 102.3 -148 104 C-147.67 104 -147.34 104 -147 104 C-147 102.35 -147 100.7 -147 99 C-147.33 99 -147.66 99 -148 99 Z M-74 103 C-73.67 103.66 -73.34 104.32 -73 105 C-72.67 104.34 -72.34 103.68 -72 103 C-72.66 103 -73.32 103 -74 103 Z M-149 104 C-148 106 -148 106 -148 106 Z M-87 109 C-86.67 109.66 -86.34 110.32 -86 111 C-85.67 110.34 -85.34 109.68 -85 109 C-85.66 109 -86.32 109 -87 109 Z M-151 113 C-150 115 -150 115 -150 115 Z M-153 116 C-152 118 -152 118 -152 118 Z M-155 121 C-154 123 -154 123 -154 123 Z M-125 127 C-125.33 127.66 -125.66 128.32 -126 129 C-125.34 129 -124.68 129 -124 129 C-124.33 128.34 -124.66 127.68 -125 127 Z M-138 133 C-138.33 133.66 -138.66 134.32 -139 135 C-138.01 134.67 -137.02 134.34 -136 134 C-136.66 133.67 -137.32 133.34 -138 133 Z " fill="#EE7601" transform="translate(1059,338)"/>
<path d="M0 0 C0.33 0 0.66 0 1 0 C1 67.98 1 135.96 1 206 C0.34 206 -0.32 206 -1 206 C-1.023 179.289 -1.041 152.577 -1.052 125.866 C-1.057 113.464 -1.064 101.063 -1.075 88.661 C-1.085 77.856 -1.092 67.051 -1.094 56.246 C-1.095 50.521 -1.098 44.796 -1.106 39.071 C-1.112 33.689 -1.115 28.307 -1.113 22.925 C-1.113 20.944 -1.115 18.963 -1.119 16.981 C-1.124 14.288 -1.123 11.596 -1.12 8.903 C-1.123 8.108 -1.126 7.313 -1.129 6.495 C-1.114 1.114 -1.114 1.114 0 0 Z " fill="#E90014" transform="translate(663,433)"/>
<path d="M0 0 C1.65 0 3.3 0 5 0 C11.139 10.304 13.756 23.095 13 35 C12.34 35 11.68 35 11 35 C10.67 32.03 10.34 29.06 10 26 C10 28.97 10 31.94 10 35 C9.505 35.165 9.505 35.165 7 36 C6.663 32.959 6.33 29.917 6 26.875 C5.905 26.019 5.809 25.163 5.711 24.281 C4.407 12.176 4.407 12.176 6 7 C5.381 6.897 4.763 6.794 4.125 6.688 C2 6 2 6 0 3 C0 2.01 0 1.02 0 0 Z M7 10 C8 13 8 13 8 13 Z M8 14 C9 18 9 18 9 18 Z " fill="#F58300" transform="translate(795,297)"/>
<path d="M0 0 C4.8 3.446 4.8 3.446 5.812 6.25 C5.874 6.827 5.936 7.405 6 8 C6.66 8 7.32 8 8 8 C8.674 9.267 9.339 10.539 10 11.812 C10.186 12.166 10.186 12.166 11.125 13.957 C12 16 12 16 12 19 C12.66 19 13.32 19 14 19 C17.498 32.702 18.453 46.104 15 60 C14.34 60.66 13.68 61.32 13 62 C11.72 58.16 12.711 56.782 14 53 C15.832 40.102 14.878 28.17 9.438 16.312 C8.982 15.319 8.527 14.325 8.059 13.301 C7.709 12.542 7.36 11.782 7 11 C6 12 6 12 5 14 C3.35 11.69 1.7 9.38 0 7 C0.33 6.34 0.66 5.68 1 5 C1.495 5.33 1.495 5.33 4 7 C3.67 6.608 3.67 6.608 2 4.625 C0 2 0 2 0 0 Z " fill="#E50018" transform="translate(625,536)"/>
<path d="M0 0 C0.99 0.33 1.98 0.66 3 1 C2.905 1.687 2.809 2.374 2.711 3.082 C2.6 3.983 2.489 4.884 2.375 5.812 C2.259 6.706 2.143 7.599 2.023 8.52 C2 11 2 11 4 14 C4.082 14.804 4.165 15.609 4.25 16.438 C5 19 5 19 8 21 C11 23 11 23 11.938 25.688 C11.958 26.451 11.979 27.214 12 28 C11.67 28.33 11.34 28.66 11 29 C11.66 29.33 12.32 29.66 13 30 C12.67 30.99 12.34 31.98 12 33 C12 32.34 12 31.68 12 31 C10.68 30.67 9.36 30.34 8 30 C8 29.01 8 28.02 8 27 C7.34 27 6.68 27 6 27 C4.763 25.256 3.609 23.453 2.5 21.625 C-0.821 16.179 -0.821 16.179 -3 14 C-2.67 13.01 -2.34 12.02 -2 11 C-1.63 9.483 -1.277 7.962 -0.938 6.438 C-0.761 5.652 -0.584 4.867 -0.402 4.059 C0 2 0 2 0 0 Z M5 21 C6 23 6 23 6 23 Z " fill="#CF0025" transform="translate(864,384)"/>
<path d="M0 0 C0.66 0.33 1.32 0.66 2 1 C1.75 2.812 1.75 2.812 1 5 C0.34 5.451 -0.32 5.901 -1 6.366 C-3 8 -3 8 -3.607 10.001 C-3.653 10.772 -3.699 11.542 -3.746 12.336 C-3.801 13.222 -3.857 14.109 -3.914 15.022 C-4.074 20.559 -4.103 26.087 -4.062 31.625 C-4.058 32.82 -4.053 34.015 -4.049 35.246 C-4.037 38.164 -4.021 41.082 -4 44 C-4.99 43.67 -5.98 43.34 -7 43 C-7.66 43.99 -8.32 44.98 -9 46 C-8.761 41.892 -8.512 37.784 -8.255 33.677 C-8.169 32.284 -8.086 30.89 -8.005 29.496 C-6.778 8.383 -6.778 8.383 0 0 Z " fill="#E36300" transform="translate(921,372)"/>
<path d="M0 0 C0.66 0 1.32 0 2 0 C2 0.66 2 1.32 2 2 C2.73 2.119 3.459 2.237 4.211 2.359 C7.009 3.002 9.081 3.941 11.625 5.25 C25.565 11.685 43.263 16.648 58.312 11.438 C59.529 10.963 60.746 10.489 62 10 C62.99 10.33 63.98 10.66 65 11 C64.29 11.193 63.579 11.387 62.848 11.586 C61.929 11.846 61.009 12.107 60.062 12.375 C59.146 12.63 58.229 12.885 57.285 13.148 C55 14 55 14 54 16 C50.792 16.088 47.584 16.141 44.375 16.188 C43.471 16.213 42.568 16.238 41.637 16.264 C36.171 16.324 32.832 15.761 28 13 C25.409 12.134 22.775 11.472 20.125 10.812 C19.437 10.635 18.748 10.458 18.039 10.275 C16.361 9.844 14.681 9.421 13 9 C13 8.34 13 7.68 13 7 C12.385 6.795 11.77 6.59 11.137 6.379 C7.758 5.253 4.379 4.126 1 3 C0.67 2.01 0.34 1.02 0 0 Z " fill="#E10017" transform="translate(514,584)"/>
<path d="M0 0 C1.32 0.33 2.64 0.66 4 1 C4 1.66 4 2.32 4 3 C4.664 3.121 5.328 3.242 6.012 3.367 C10.534 4.225 14.799 5.04 19 7 C19 7.66 19 8.32 19 9 C20.196 9.186 21.393 9.371 22.625 9.562 C29.604 11.07 35.746 14.673 42 18 C38.71 19.097 37.287 18.8 34 18 C34 17.34 34 16.68 34 16 C29.637 14.13 25.764 13 21 13 C21 12.01 21 11.02 21 10 C19.02 10.33 17.04 10.66 15 11 C14.794 10.361 14.587 9.721 14.375 9.062 C13 7 13 7 10.438 6.25 C6.281 5.948 2.165 5.917 -2 6 C-2 5.34 -2 4.68 -2 4 C-2.66 3.67 -3.32 3.34 -4 3 C-1 2 -1 2 0 2 C0 1.34 0 0.68 0 0 Z M16 8 C16 8.66 16 9.32 16 10 C16.66 10 17.32 10 18 10 C18 9.34 18 8.68 18 8 C17.34 8 16.68 8 16 8 Z " fill="#DC7200" transform="translate(748,163)"/>
<path d="M0 0 C0.66 0 1.32 0 2 0 C4.37 3.693 4.14 6.753 4 11.062 C3.802 21.196 4.925 31.187 6.305 41.217 C6.876 45.421 6.935 48.842 6 53 C5.67 53 5.34 53 5 53 C4.287 45.613 3.575 38.225 2.864 30.838 C2.621 28.323 2.379 25.808 2.136 23.292 C1.788 19.686 1.441 16.079 1.094 12.473 C0.984 11.34 0.875 10.208 0.762 9.042 C0.662 8.001 0.562 6.96 0.459 5.887 C0.37 4.965 0.281 4.044 0.19 3.094 C0 1 0 1 0 0 Z " fill="#F05E00" transform="translate(715,219)"/>
<path d="M0 0 C-0.66 0.33 -1.32 0.66 -2 1 C-1.835 1.495 -1.835 1.495 -1 4 C-5.378 5.646 -9.495 7.084 -14.188 7.375 C-19.76 7.808 -24.722 9.992 -29.863 12.039 C-32.903 12.97 -34.119 13.181 -37 12 C-36.105 11.685 -35.211 11.371 -34.289 11.047 C-26.194 8.182 -18.163 5.216 -10.27 1.828 C-9.376 1.452 -8.483 1.075 -7.562 0.688 C-6.759 0.341 -5.956 -0.006 -5.129 -0.363 C-3 -1 -3 -1 0 0 Z M-12 4 C-11.67 4.66 -11.34 5.32 -11 6 C-10.67 5.34 -10.34 4.68 -10 4 C-10.66 4 -11.32 4 -12 4 Z " fill="#E86700" transform="translate(1048,347)"/>
<path d="M0 0 C0 0.66 0 1.32 0 2 C0.99 2 1.98 2 3 2 C3.66 1.34 4.32 0.68 5 0 C5.66 0.66 6.32 1.32 7 2 C-0.916 6.464 -7.941 9.068 -17 10 C-17.33 9.34 -17.66 8.68 -18 8 C-16.378 7.162 -14.752 6.33 -13.125 5.5 C-12.673 5.268 -12.673 5.268 -10.383 4.094 C-8 3 -8 3 -6 3 C-6 3.99 -6 4.98 -6 6 C-5.34 6 -4.68 6 -4 6 C-4.33 4.68 -4.66 3.36 -5 2 C-2 0 -2 0 0 0 Z " fill="#F28300" transform="translate(970,446)"/>
<path d="M0 0 C0.66 0.33 1.32 0.66 2 1 C1.547 2.602 1.093 4.202 0.629 5.801 C0.184 7.356 -0.244 8.917 -0.66 10.48 C-2.105 15.701 -3.708 19.686 -7 24 C-7.66 23.01 -8.32 22.02 -9 21 C-8.34 21 -7.68 21 -7 21 C-7.179 20.446 -7.358 19.891 -7.543 19.32 C-8.081 16.591 -7.822 14.604 -7.312 11.875 C-7.164 11.006 -7.016 10.137 -6.863 9.242 C-6 7 -6 7 -3.996 5.859 C-3.667 5.718 -3.667 5.718 -2 5 C-0.75 2.375 -0.75 2.375 0 0 Z M-3 7 C-2 10 -2 10 -2 10 Z M-5 14 C-4 16 -4 16 -4 16 Z " fill="#ED6000" transform="translate(806,332)"/>
<path d="M0 0 C1.32 1.32 2.64 2.64 4 4 C3.01 4.33 2.02 4.66 1 5 C0.732 5.701 0.464 6.403 0.188 7.125 C-1.225 10.544 -3.196 12.732 -5.66 15.449 C-7 17 -7 17 -8 19 C-8.66 18.67 -9.32 18.34 -10 18 C-10.66 18.33 -11.32 18.66 -12 19 C-11.67 17.02 -11.34 15.04 -11 13 C-9.68 12.67 -8.36 12.34 -7 12 C-7.33 11.01 -7.66 10.02 -8 9 C-7.216 8.897 -6.433 8.794 -5.625 8.688 C-3 8 -3 8 -1 5 C-0.615 3.345 -0.272 1.678 0 0 Z " fill="#CF0024" transform="translate(768,509)"/>
<path d="M0 0 C0.495 0.33 0.495 0.33 3 2 C5.652 2.309 5.652 2.309 8.938 2.438 C18.387 2.973 27.662 4.506 37 6 C37 6.33 37 6.66 37 7 C36.401 6.964 36.401 6.964 33.371 6.781 C23.231 6.195 13.158 5.863 3 6 C2.67 6.66 2.34 7.32 2 8 C1.34 8 0.68 8 0 8 C0 5.36 0 2.72 0 0 Z " fill="#DB0027" transform="translate(900,282)"/>
<path d="M0 0 C0.33 0 0.66 0 1 0 C1.08 0.775 1.161 1.55 1.244 2.348 C4.205 30.764 4.205 30.764 6 42 C5.505 42.165 5.505 42.165 3 43 C2.405 37.038 1.817 31.074 1.236 25.111 C1.037 23.08 0.836 21.05 0.634 19.02 C0.343 16.109 0.06 13.197 -0.223 10.285 C-0.269 9.828 -0.269 9.828 -0.503 7.517 C-0.71 5.348 -0.861 3.174 -1 1 C-0.67 0.67 -0.34 0.34 0 0 Z " fill="#E65900" transform="translate(711,175)"/>
<path d="M0 0 C8.855 -0.206 17.624 1.048 26.395 2.129 C26.395 2.459 26.395 2.789 26.395 3.129 C12.205 3.129 -1.985 3.129 -16.605 3.129 C-12.632 -0.845 -5.386 0.266 0 0 Z " fill="#D80024" transform="translate(803.60546875,375.87109375)"/>
<path d="M0 0 C10.065 0.165 10.065 0.165 61 1 C61 1.33 61 1.66 61 2 C40.87 2 20.74 2 0 2 C0 1.34 0 0.68 0 0 Z " fill="#DB0022" transform="translate(776,637)"/>
<path d="M0 0 C0.513 0.002 0.513 0.002 3.109 0.013 C3.689 0.014 3.689 0.014 6.627 0.014 C7.886 0.024 9.144 0.035 10.44 0.045 C11.725 0.048 13.009 0.051 14.333 0.054 C17.749 0.061 21.165 0.081 24.582 0.103 C28.067 0.124 31.553 0.133 35.038 0.143 C41.878 0.164 48.718 0.198 55.558 0.241 C55.558 0.571 55.558 0.901 55.558 1.241 C48.178 1.371 40.797 1.502 33.417 1.632 C29.991 1.692 26.564 1.753 23.137 1.813 C19.198 1.883 15.259 1.952 11.319 2.022 C10.088 2.044 8.857 2.066 7.588 2.088 C6.447 2.108 5.306 2.128 4.131 2.149 C3.125 2.166 2.119 2.184 1.082 2.203 C-0.759 2.23 -2.601 2.241 -4.442 2.241 C-2.442 0.241 -2.442 0.241 0 0 Z " fill="#F50038" transform="translate(777.4424133300781,429.7594909667969)"/>
<path d="M0 0 C15.84 0 31.68 0 48 0 C48 0.33 48 0.66 48 1 C32.16 1 16.32 1 0 1 C0 0.67 0 0.34 0 0 Z " fill="#FF0039" transform="translate(665,430)"/>
<path d="M0 0 C4.423 0.583 7.516 2.268 11.312 4.562 C12.381 5.203 13.45 5.844 14.551 6.504 C15.359 6.998 16.167 7.491 17 8 C14 9 14 9 10.645 7.348 C9.361 6.596 8.084 5.834 6.812 5.062 C6.485 4.869 6.485 4.869 4.83 3.893 C3.215 2.937 1.607 1.97 0 1 C0 0.67 0 0.34 0 0 Z " fill="#EB001C" transform="translate(1037,322)"/>
<path d="M0 0 C3.791 1.45 7.387 3.152 11 5 C8 6 8 6 5.957 5.039 C5.249 4.572 4.542 4.106 3.812 3.625 C3.097 3.164 2.382 2.702 1.645 2.227 C1.102 1.822 0.559 1.417 0 1 C0 0.67 0 0.34 0 0 Z " fill="#D66300" transform="translate(790,182)"/>
<path d="M0 0 C0.33 0.66 0.66 1.32 1 2 C-1.354 3.429 -2.48 4.087 -5.25 3.625 C-5.827 3.419 -6.405 3.212 -7 3 C-4.69 2.01 -2.38 1.02 0 0 Z " fill="#D88100" transform="translate(772,376)"/>
<path d="M0 0 C-4.625 2.125 -4.625 2.125 -8 1 C-3.375 -1.125 -3.375 -1.125 0 0 Z " fill="#FB7E00" transform="translate(998,439)"/>
<path d="M0 0 C-1.812 1.062 -1.812 1.062 -4 2 C-4.99 1.67 -5.98 1.34 -7 1 C-3.375 -1.125 -3.375 -1.125 0 0 Z " fill="#CD0011" transform="translate(609,632)"/>
<path d="M0 0 C0.33 0 0.66 0 1 0 C1 1.98 1 3.96 1 6 C0.34 5.34 -0.32 4.68 -1 4 C-0.625 1.875 -0.625 1.875 0 0 Z " fill="#FF6900" transform="translate(898,466)"/>
<path d="M0 0 C4.75 0.75 4.75 0.75 7 3 C2.25 2.25 2.25 2.25 0 0 Z " fill="#F6001A" transform="translate(1028,317)"/>
<path d="M0 0 C-1.812 1.062 -1.812 1.062 -4 2 C-4.99 1.67 -5.98 1.34 -7 1 C-3.375 -1.125 -3.375 -1.125 0 0 Z " fill="#CE0027" transform="translate(823,216)"/>
<path d="M0 0 C0 0.99 0 1.98 0 3 C-0.99 3 -1.98 3 -3 3 C-2.01 2.01 -1.02 1.02 0 0 Z " fill="#F26000" transform="translate(802,220)"/>
<path d="M0 0 C0.99 0.99 1.98 1.98 3 3 C2.01 2.67 1.02 2.34 0 2 C0 1.34 0 0.68 0 0 Z " fill="#EE0060" transform="translate(837,212)"/>
<path d="M0 0 C0.99 0.33 1.98 0.66 3 1 C2.01 1 1.02 1 0 1 C0 0.67 0 0.34 0 0 Z " fill="#E90024" transform="translate(559,496)"/>
<path d="M0 0 C0.66 0.33 1.32 0.66 2 1 C1.01 1 0.02 1 -1 1 C-0.67 0.67 -0.34 0.34 0 0 Z " fill="#FF8900" transform="translate(787,366)"/>
<path d="M0 0 C0.99 0.33 1.98 0.66 3 1 C2.01 1 1.02 1 0 1 C0 0.67 0 0.34 0 0 Z " fill="#F20018" transform="translate(847,221)"/>
<path d="M0 0 C0.99 0.33 1.98 0.66 3 1 C2.01 1 1.02 1 0 1 C0 0.67 0 0.34 0 0 Z " fill="#FF0014" transform="translate(840,215)"/>
<path d="M0 0 C0.66 0 1.32 0 2 0 C2 0.66 2 1.32 2 2 C1.34 2 0.68 2 0 2 C0 1.34 0 0.68 0 0 Z " fill="#9F7F00" transform="translate(801,188)"/>
<path d="M0 0 C0.66 0.66 1.32 1.32 2 2 C1.34 2 0.68 2 0 2 C0 1.34 0 0.68 0 0 Z " fill="#EE0000" transform="translate(838,634)"/>
<path d="M0 0 C3 1 3 1 3 1 Z " fill="#F0001C" transform="translate(504,631)"/>
<path d="M0 0 C3 1 3 1 3 1 Z " fill="#E20015" transform="translate(511,583)"/>
<path d="M0 0 C0.33 0.66 0.66 1.32 1 2 C0.34 1.67 -0.32 1.34 -1 1 C-0.67 0.67 -0.34 0.34 0 0 Z " fill="#B30017" transform="translate(617,464)"/>
<path d="M0 0 C3 1 3 1 3 1 Z " fill="#D40000" transform="translate(895,458)"/>
<path d="M0 0 C0.33 0.66 0.66 1.32 1 2 C0.34 1.67 -0.32 1.34 -1 1 C-0.67 0.67 -0.34 0.34 0 0 Z " fill="#EE001F" transform="translate(524,441)"/>
<path d="M0 0 C3 1 3 1 3 1 Z " fill="#FF7100" transform="translate(1061,337)"/>
<path d="M0 0 C0.66 0 1.32 0 2 0 C1.67 0.66 1.34 1.32 1 2 C0.67 1.34 0.34 0.68 0 0 Z " fill="#FF0055" transform="translate(1035,320)"/>
<path d="M0 0 C0.66 0.66 1.32 1.32 2 2 C1.34 2 0.68 2 0 2 C0 1.34 0 0.68 0 0 Z " fill="#E27100" transform="translate(826,205)"/>
<path d="M0 0 C2 1 2 1 2 1 Z " fill="#E50059" transform="translate(609,630)"/>
<path d="M0 0 C2 1 2 1 2 1 Z " fill="#FF0015" transform="translate(607,522)"/>
<path d="M0 0 C2 1 2 1 2 1 Z " fill="#FF003D" transform="translate(605,521)"/>
<path d="M0 0 C2 1 2 1 2 1 Z " fill="#9F1F00" transform="translate(737,384)"/>
<path d="M0 0 C2 1 2 1 2 1 Z " fill="#E50044" transform="translate(1042,342)"/>
<path d="M0 0 C2 1 2 1 2 1 Z " fill="#FF7700" transform="translate(822,202)"/>
<path d="M0 0 C2 1 2 1 2 1 Z " fill="#CF7F00" transform="translate(807,192)"/>
<path d="" fill="#FF003F" transform="translate(0,0)"/>
<path d="" fill="#FF0000" transform="translate(0,0)"/>
</svg>
