<?xml version="1.0" encoding="UTF-8"?>
<svg xmlns="http://www.w3.org/2000/svg" viewBox="252 0 65.04 64.29">
  <g>
    <rect fill="#ff595f" x="252.54" y="12.94" width="12.94" height="17.35"/>
    <polygon fill="#ff595f" points="283.37 0 283.37 30.29 270.43 30.29 270.43 12.94 265.48 12.94 265.48 0 283.37 0"/>
  </g>
  <path fill="#02aa5e" d="M287.49,0v30.29h29.55V0h-29.55ZM305.03,18.03h-5.54v-5.78h5.54v5.78Z"/>
  <polygon fill="#ffc82b" points="283.32 34 283.32 46.94 274.64 46.94 274.64 64.29 261.7 64.29 261.7 46.94 253.03 46.94 253.03 34 283.32 34"/>
  <polygon fill="#0a62bb" points="317.04 34 317.04 46.94 308.36 46.94 308.36 64.29 295.42 64.29 295.42 46.94 286.74 46.94 286.74 34 317.04 34"/>
</svg>
