<?xml version="1.0" encoding="UTF-8"?>
<svg id="Layer_1" data-name="Layer 1" xmlns="http://www.w3.org/2000/svg" viewBox="0 0 317.04 64.29">
  <defs>
    <style>
      .cls-1 { fill: #0a62bb; }
      .cls-2 { fill: #02aa5e; }
      .cls-3 { fill: #ff595f; }
      .cls-4 { fill: #ffc82b; }
    </style>
  </defs>
  <g>
    <g>
      <rect class="cls-3" y="29.94" width="12.94" height="17.35"/>
      <polygon class="cls-3" points="30.83 17 30.83 47.29 17.89 47.29 17.89 29.94 12.94 29.94 12.94 17 30.83 17"/>
    </g>
    <path class="cls-2" d="M34.94,17v30.29h29.55v-30.29h-29.55ZM52.48,35.03h-5.54v-5.78h5.54v5.78Z"/>
    <polygon class="cls-4" points="99.01 17 99.01 29.94 90.33 29.94 90.33 47.29 77.4 47.29 77.4 29.94 68.72 29.94 68.72 17 99.01 17"/>
    <polygon class="cls-1" points="132.73 17 132.73 29.94 124.05 29.94 124.05 47.29 111.11 47.29 111.11 29.94 102.43 29.94 102.43 17 132.73 17"/>
  </g>
  <g>
    <g>
      <rect class="cls-3" x="252.54" y="12.94" width="12.94" height="17.35"/>
      <polygon class="cls-3" points="283.37 0 283.37 30.29 270.43 30.29 270.43 12.94 265.48 12.94 265.48 0 283.37 0"/>
    </g>
    <path class="cls-2" d="M287.49,0v30.29h29.55V0h-29.55ZM305.03,18.03h-5.54v-5.78h5.54v5.78Z"/>
    <polygon class="cls-4" points="283.32 34 283.32 46.94 274.64 46.94 274.64 64.29 261.7 64.29 261.7 46.94 253.03 46.94 253.03 34 283.32 34"/>
    <polygon class="cls-1" points="317.04 34 317.04 46.94 308.36 46.94 308.36 64.29 295.42 64.29 295.42 46.94 286.74 46.94 286.74 34 317.04 34"/>
  </g>
</svg>
