<?xml version="1.0" encoding="UTF-8"?>
<svg xmlns="http://www.w3.org/2000/svg" viewBox="0 17 132.73 30.29">
  <rect fill="#ff595f" y="29.94" width="12.94" height="17.35"/>
  <polygon fill="#ff595f" points="30.83 17 30.83 47.29 17.89 47.29 17.89 29.94 12.94 29.94 12.94 17 30.83 17"/>
  <path fill="#02aa5e" d="M34.94,17v30.29h29.55v-30.29h-29.55ZM52.48,35.03h-5.54v-5.78h5.54v5.78Z"/>
  <polygon fill="#ffc82b" points="99.01 17 99.01 29.94 90.33 29.94 90.33 47.29 77.4 47.29 77.4 29.94 68.72 29.94 68.72 17 99.01 17"/>
  <polygon fill="#0a62bb" points="132.73 17 132.73 29.94 124.05 29.94 124.05 47.29 111.11 47.29 111.11 29.94 102.43 29.94 102.43 17 132.73 17"/>
</svg>
